<?xml version="1.0" encoding="UTF-8"?>
<svg id="Layer_1" xmlns="http://www.w3.org/2000/svg" version="1.1" viewBox="0 0 1920 1080">
  <!-- Generator: Adobe Illustrator 29.5.1, SVG Export Plug-In . SVG Version: 2.1.0 Build 141)  -->
  <defs>
    <style>
      .st0 {
        fill: #591123;
      }

      .st1 {
        fill: #581022;
      }
    </style>
  </defs>
  <path class="st1" d="M915.94,218.55c.83.17,1.4-.18,2.12-.45,14.45-5.3,29.42-14.33,44.58-19.98,21.31-7.94,65.7-20.33,87.67-17.7,14.22,1.7,5.95,16.01,5.02,24.98l13.97-1.16c52.91-1.81,103.78,7.56,150.56,32.3,18.31,9.68,65.98,38.34,74.35,56.48,9.11,19.73-16.77,17.23-28.21,19.41-29.42,5.61-51.14,30.83-51.29,60.97,20.95-6.6,55.41-5.19,66,17.69,7.88,17.02-9.86,13.05-20.43,15.04-21.96,4.12-53.53,28.48-67.27,45.86-3.01,3.8-15.7,23.08-15.45,26.83,5.78,1.37,10.51-2.13,16.15.43,9.57,4.34.99,18.61-2.33,24.82-7.74,14.43-19.22,30.31-28.77,43.79-13.91,19.65-28.47,38.02-45.87,54.7-1.58,1.52-8.92,7.26-9.43,8.26-.46.9.44.79.73.97,11.47,7.11,20.5,12.62,30.14,22.44,22.06,22.48,44.55,67.47,52.25,98,10.75,42.59-24.66,44.76-56.28,38.01-27.75-5.93-51-22.51-78.83-27.71,6.46,7.16,15.37,11.55,23.03,17.24,11.72,8.69,21.93,15.83,3.06,24.56-24.19,11.2-53.45,12.29-79.38,17.17-2.11.7-2.57,6.53-2.72,8.71-.45,6.41.73,12.78.6,19.16,12.29-3.16,25.82-7.28,38.53-8.02,3.95-.23,10.51.89,13.61.48.99-.13,7.42-3.81,9.68-4.61,15.01-5.34,34.58-5.43,50.45-5.58.94,0,2.13.59,2.77.47.32-.06,3.9-3.09,5.36-3.71,6.74-2.86,19.12-2.11,26.72-2.42,17.73-.71,39.67-4.01,55.79,4.14,26.31,13.3,28.69,44.27,35.58,69.54,4.56,16.7,10.54,33.03,15.55,49.59,6.36,21,16.64,43.09,7.69,64.51-13.74,32.89-50.87,32.06-80.78,26.31-2.89-.56-10.67-3.47-12.67-3.27-1.55.16-5.3,2.4-7.32,3.01-13.61,4.12-27.87,4.27-41.8,6.19-15.09,2.09-28.3,5.84-44.05,5.07-2.04-.1-4.93-1.3-6.81-1.13-1.47.14-6.64,3.08-8.77,3.85-10.28,3.73-19.55,3.6-29.96,5.46-20.66,3.69-47.86,11.82-68.71,10.11-2.87-.24-12.79-3.44-13.58-3.33-3.3.49-14.27,8.29-18.49,10.12-7.28,3.16-10.16.6-16.5,1.21-9.54.92-16.3,3.67-26.87,2.88-19.16-1.42-36.86-16.59-42.37-34.75-4.46-14.68-1.2-28.89-2.42-43.76-2.67-1.45-6.61-2.46-8.03,1.06l.03,54.31c-.5,8.08-8.4,14.52-14.29,19.41-12.59,10.46-25.97,15.43-42.59,14.59-10.39-.53-24.72-.62-34.41-3.29-3.01-.83-8.52-3.87-10.74-4.15-2.41-.31-8.73,2.01-11.95,2.27-12.92,1.02-42.38-3.92-53.79-10.18-13.6-7.46-23.47-21-25.83-36.45l-.09-132.52c.77-8.61,16.2-22.09,23.63-26.07,17.36-9.29,37.99-4.54,56.47-1.44,3.72.62,8.22,2.31,11.6,2.68,13.19,1.43,29.58-.73,42.99-.44,17.25-13.73,41.81-16.6,61.56-6.43.43.14.31-.43.29-.86-.22-7.84-3.22-21.91-4.75-30.11-.87-4.66-6.72-32.79-9.84-34.16l-14.27,20.57c-25,30.26-71.87,50.14-106.97,24.16-34.41-25.46-26.16-76.25-5.18-107.77,5.72-8.6,13.29-15.66,20.19-23.27.31-.41.3-.8.18-1.27-.36-1.45-4.95-7.25-6.22-8.7-11.93-13.66-29.87-20.96-47.69-22.58-9.1-.82-30.32,1.4-30.6-12.28-.16-8.09,7.1-20,12.32-26.01,4.78-5.51,13.13-11.37,17.15-16.56.44-.57,1.1-.73.85-1.71-53.34-9.29-77.83-64.27-83.33-112.93-5.91-52.24,3.34-104.81,24.39-152.59,23.39-53.09,71.94-124.98,139.7-93.4,23.74-31.27,55.31-52.32,90.5-68.9,23.06-10.87,69.82-32.25,94.07-33.9,37.83-2.57,9.23,24.75,1.15,39.44-4.58,8.32-8.15,17.28-11.13,26.29ZM930.21,408.82l29.16-2.62c2.09,3.48,8.85,30.48,10.64,31.1,2.6.9,12.72-2.39,15.91-3.32,4.45-1.3,10.35-3.09,14.55-4.88,1.59-.67,6.06-2.52,6.32-4,.37-2.12-4.4-18.08-5.33-21.54-13.88-51.77-28.64-103.61-43.22-155.04l-4.33-3.12-47.7,3.43-19.99,191.42c13.82-4.41,27.36-10.91,42.27-10.28l1.71-21.15ZM1055.33,381.97c-.13-1.18.03-2.29.26-3.45,1.91-9.73,6.34-22.04,9.44-31.7,6.47-20.19,13.87-41.13,21.28-60.99,1.07-2.85,3.07-5.28,3.61-8.39,1.53-8.84-2.65-19.72-3.44-28.62-.58-.9-7.2-1.99-8.66-2.19-18.55-2.53-37.88-.92-56.46-.62-11.15.18-22.37-.56-33.45.55l3.49,41.65,51.92-6.22-.25,2.88-29.87,95.83-.17,11.3,1.99,30.01c.54.77,8.17.07,9.67-.11,15.75-1.83,25.74-6.76,42.91-5.06,13.4,1.32,24.77,7.98,38,9.14-.01-5.74-2.76-47.49-5.21-49.07l-45.06,5.07ZM1096.45,248.26c-1.13,1.14,4.44,20.04,5.31,22.98,6.93,23.29,16.79,45.67,24.41,68.73,4.66,14.1,7.57,21.91,6.84,37.14-.59,12.36-2.91,24.76-3.45,37.12-.14,3.29-.56,15.88.13,18.2.45,1.5,3.07,1.96,4.47,2.39,12.01,3.73,26.55,4.46,39.05,5.93,1.05-.36,1.43-4.59,1.53-5.9,1.78-24.5-1.34-49.68,2.4-74.17,12.22-28.11,26.65-55.34,38.81-83.46,1.47-3.41,3.54-5.29.09-7.72-4.87-3.41-19.88-8.67-26.03-10.54-5.6-1.7-9.48-3.29-12.86,2.88-7.53,13.75-10.64,31.96-17.25,45.6-.3.63-.53,1.61-1.46,1.39-2.8-.66-11.09-39.02-13.03-44.69-1-2.92-3.78-11.26-6.99-11.87-14.04-.89-27.95-3.49-41.98-4.01ZM803.32,422.04c2.75,6.77,24.5,59.03,27.77,59.32l39.06-32.33-31.34-49.66c1.13-3.9,5.83-6.13,8.87-9.39,20.71-22.26,30.59-57.35,18.83-86.28-16.71-41.12-73.38-31.85-105.02-15.36-1.78.93-5.67,2.7-6.06,4.79-1.08,75-2.19,149.95-1.61,225,.74,1.06,1.93,2.91,3.31,2.46l40.47-22.15.66-73.91c.03-1.51,4.08-3.12,5.07-2.49ZM707.43,386.54c.88.21,1.24-.35,1.88-.69,5.94-3.1,13.97-8.91,19.78-12.79,1.96-1.31,10.68-6.74,11.41-8.01,2.17-3.8-.2-20.97-.5-26.23-1.25-21.67.95-45.95-28.85-43.7-56.74,4.28-86.11,99.31-89.98,145.99-3.29,39.73,3.76,129.02,60.29,126.58,48.94-2.1,61.04-68.02,58.53-106.58-.1-1.54-.68-8.41-2.06-8.83-1.21-.37-10.36,5.48-12.16,6.59-6.24,3.81-12.23,8.1-18.36,12.06-2.64,11.23-2.02,30.69-13.86,36.85-5.67,2.95-10.17,1.59-14-3.34-11.23-14.47-9.97-60.49-8.66-78.75,1.17-16.31,8.76-61.71,21.72-71.97s16.36,5.5,15.99,15.99l-1.16,16.83ZM995.91,575.67h15.42c-3.09-14.2-3.15-29.38.86-43.43,3.8-13.31,17.25-36.54,31.37-18.24,10.18,13.19,7.18,38.01,2.9,53.09-1.36,4.81-3.32,9.75-5.43,14.28l23.29,5.59c11.06-14.79,16.08-35.16,18.34-53.37,2.91-23.47,3.14-80.05-27.78-85.77-35.53-6.58-52.02,46.05-56.99,72.41-3.36,17.83-5.53,37.57-1.99,55.44ZM945.42,461.06c-19.62-17.94-42.78-9.82-55.29,11.38-22.48,38.09-20.01,139.15,41.51,134.08,22.33-1.84,34.78-18.44,38.42-39.29,5.35-30.66-.35-83.98-24.63-106.18ZM756.33,653.04c-8.68-8.85-10.47-17.71-6.92-29.95,9.35-32.3,39.88-23.28,63.69-13.99,50.16,19.57,94.77,55.62,143.76,77.91,14.29,6.5,28.91,10.05,43.6,15.24,43.15,15.25,85.85,31.82,129.4,45.99,6.22,2.02,20.33,6.97,26.31,6.29,10.36-1.19,15.1-19.94,11.87-28.47-11.78-22.53-18.59-49.63-37.87-67.26-28.44-26.01-91.42-64.28-130.57-62.02-23.02,1.33-33.84,21.06-54.41,26.72-43.86,12.05-69.07-31.12-101.99-49.64-19.9-11.19-50.98-18.75-73.53-14.49-44.47,8.4-75.34,60.55-47.63,100.82,4.39,6.39,17.8,20.42,26.17,19.47,3.53-.4,15.7-8.58,19.38-10.95,1.48-.96,3.62-.67,2.37-2.76-4.74-4.04-9.27-8.46-13.63-12.9ZM796.92,636.05c1.2-1.15,1.8-3.02,1.93-4.64.15-1.75-.76-11.94-1.72-12.62-.57-.41-12.7-2.53-13.85-2.43-8.26.66-13.15,12.01-5.78,16.93,1.67,1.11,11.7,4.44,13.68,4.64,1.84.18,4.4-.6,5.74-1.88ZM831.92,631.73l-24.52-10.34c.07,5.71-2.35,17.01,3.03,20.68,1.25.85,13.41,6.73,14.67,7.06s2.53.42,3.63-.28c2.29-1.46,2.37-14.08,3.2-17.13ZM866.71,649.47l-27.9-13.81c-.31,5.17-1.8,10.36-1.01,15.58.52,3.43,2.22,3.86,4.99,5.3,3.4,1.77,14.14,6.34,17.57,6.99,2.19.42,4.58.19,5.75-1.98l.59-12.09ZM787.79,648.42c-.51-.6-7.15-5.13-7.99-5.46-5.67-2.3-5.8,7.25-6.14,10.62l14.01,7.24c1.6-2.92,2.38-9.73.12-12.39ZM819.21,659.85c-.98-1.08-14.5-6.75-16.51-7.23-3.25-.77-3.53.47-3.87,3.35-.12,1.07-.62,7.31-.32,7.74,3.66,2.16,8.71,2.74,11.74,5.68-37.31,9.2-79.24,35.62-97.21,70.48-25.17,48.84,9.55,92,58.32,60.05,21.85-14.32,30.12-38.39,44.95-58.46,18.08-24.46,45.91-40.41,75.63-46.35,1.91-2.26-9.21-7.13-10.86-7.7-22.15-7.62-58.02,9.31-76.72,21.53-12.39,8.1-27.76,20.65-36.62,32.51-2.68,3.58-13.11,23.28-15.02,23.85-5.02,1.5-3.37-6.88-2.87-9.74,6.31-36.27,52.39-71.85,85.81-82.16,2.07-.64,13.55-2.87,14.01-3.43.05-.07.05-1.63,0-1.7-.35-.42-9.31-2.18-10.58-2.28-6.06-.49-12.6.09-18.55,1.13.02-2.28.32-5.43-1.32-7.25ZM898.66,678.39c.53-.56,3.63-9.06,3.31-9.57l-28.31-15.44c-.95,4.47-.79,14.72,2.48,18.09,3.38,3.5,15.77,4.62,20.37,7.37.66.23,1.69.03,2.15-.45ZM909.08,673.38v11.71c0,1.14,1.71,2.93,2.67,3.62,1.02.73,11.06,5.29,11.91,5.28,1.36,0,1.86-.45,2.41-1.62.66-1.4,1.64-8.57.73-9.57-2.26-.87-16.78-10.39-17.71-9.42ZM960.42,698.59l-24.47-12.39c-1.86-.94-2.22,3.3-2.3,4.62-.79,13.14,13.52,10.44,22,15.12,1.54-.02,5.63-5.98,4.77-7.35ZM913.65,707.67c.47-3.12,1.69-9.08-.84-11.44-1.72-1.61-8.14-3.98-10.61-4.82-9.88-3.36-6.63-.92-7.72,8.26l19.17,8ZM966.51,700.81c-1.47.28-1.16,7.11-.05,8.61.96,1.3,11.89,6.69,13.29,6.71,1.26.02,5.94-7.26,5.07-8.49s-15.9-5.2-18.31-6.83ZM950.07,708.95c-1.15-1.2-17.08-7.1-18.92-6.98-6.58.44-6.19,6.95-7.65,11.72l25.82,8.79c1.92-2.65,3.03-11.14.75-13.54ZM958.3,727.58l24.74,10.37c1.77-3.73,4.27-10.65.85-13.97-1.67-1.62-15.3-8.05-17.49-8.11-1.72-.05-4.33.93-5.35,2.36-.78,1.09-3.35,8.4-2.75,9.36ZM1042.18,768.81c-42.54-10.22-82.21-28.84-122.57-45.11-20.29.34-46.67,6.14-62.21,19.98-5.24,4.66-4.84,5.37,1.85,7.83,32.47,11.93,76.63,18.92,111.22,20.18,19.12.7,43.39,1.16,62.32,0,.94-.06,10.92-.86,9.4-2.88ZM1186.27,974.38c.69.69,6.27,1.58,7.66,1.77,4.56.61,10.74,1.09,15.33,1.24,3.02.1,10.61,1.19,10.62-2.57-6.8-26.34-16.35-51.87-23.73-78.02-3.15-11.16-5.27-22.72-8.57-33.71-.93-3.1-2.62-10.17-5.13-12.01-2.81-2.06-6.02-.1-9.13.03-7.75.32-15.59-.27-23.35-.05l-32.86,127.61c.25.68.76,1.23,1.46,1.44,2.74.81,14.51-1.11,18.07-1.69,2.64-.43,8.9-1.07,10.88-2.26,5.13-3.07,1.77-18.44,9.77-19.37,7.74-.9,16.45.9,24.23.64.83.72,3.59,15.8,4.75,16.96ZM1046.18,989.08v-59.14l4.67,7.62,25.87,47.26c1.39.93,2.92,1.19,4.56,1.14,6.58-.19,18.55-1.99,24.98-3.62,3.25-.83,4.68-.66,5.08-4.64l-.13-118.8c-.28-.81-2.37-1.8-3.18-1.96-4.62-.92-23.15,1.13-28.27,2.31-1.71.39-3.23.44-4.01,2.27-.4.95-1.02,7.29-1.03,8.69-.06,7.69,1.5,16.25,1.77,23.99.34,9.6-.74,19.37.54,28.88l-1.82-1.31c-9.88-16.75-17.63-35.08-27.78-51.63-3.08-5.02-3.81-3.68-9.44-2.96-3.15.4-26.31,5.06-26.67,6.58l.28,115.64c1.02,2.12,1.12,6.13,4.05,6.21,8.08-2.3,17.45-1.65,25.42-3.65,1.42-.36,4.69-1.33,5.12-2.88ZM996.92,998.94c.45-1.13.63-2.33.73-3.55,1.7-22.15-1.71-46.01-1.19-68.61.27-11.62,1.79-23.14,1.19-34.86-.12-2.33-.56-10.34-2.33-11.38-3.07-1.8-6.37.35-9.47.77-4.86.65-19.45.95-22.54,3.74-3.01,2.71-.52,6.07-.48,9.19.42,29.78-1.29,59.9,1.12,89.68.97,5-1.42,12.99-.34,17.49.19.81.69,2.16,1.46,2.54,4.31,2.13,26-4.44,31.86-5.01ZM951.36,889.37l-99.94,16.03.54,32.54,30.02-5.16c6.85-.12,3.41,4.96,3.33,9.35-.13,7.35.4,15.07.95,22.35,1.22,14.6-1.7,32.06-.04,46.32.19,1.63.85,3.15,2.44,3.84,3.21,1.39,15.54-2.07,19.73-2.83,2.61-.47,9.09-.16,10.1-2.46l.85-81.31c4.59-4.41,29.94-4.57,32.29-8.39,3.04-4.96-.77-23.89-.27-30.28ZM815.72,937.69c7.23-8.14,10.15-20.75,7.5-31.3-2.24-8.91-11.43-15.36-20.13-10.19-12.23,7.27-.85,18.46-2.04,29.39-.56,5.15-4.59,10.19.04,14.94,1.12,1.15,4.5,3.05,6.08,3.1,2.2.07,7.01-4.19,8.55-5.94ZM684,900.8v112.85c0,.12,1.39,1.43,1.74,1.69,2.3,1.65,14.59,3.61,18.13,4.15,6.82,1.03,13.48,3.93,14.39-5.27,1.44-14.42-1.17-29.11-1.7-43.43-.05-1.28-.7-8.8,1.42-8.28l33.7,60.58c4.75,2.98,10.38.98,15.46,1.1,2.63.07,5.84,1.05,8.52,1.19,3.82.21,11.63.92,11.77-4.28v-109.21c.24-1.52-1.85-4.57-3.17-4.83l-30.31-.03-1.69.6-.27,58.57-1.44.31c-9.85-20.83-21.33-40.8-33.16-60.55-3.48-2.12-32.19-6.37-33.39-5.17Z"/>
  <path class="st0" d="M1032.23,59.37c23.97,22.22,11.86,45.25-12.89,58.91-43.31,23.92-129.29,19.91-177.89,14.49-41.99-4.68-109.94-15.93-144.26-40.84-28.75-20.87-24.47-49.42,6.21-65.12,49.01-25.07,143.32-18.86,197.32-11.61,37.46,5.03,103.48,18.16,131.52,44.16ZM1010.56,90.35c8.71-8.85-5.01-17.01-11.98-21.04-41.94-24.19-114.24-31.75-162.33-33.62-29.23-1.14-99.47-3.25-122.27,15.99-5.91,4.99-6.77,9.91-1.21,15.81,15.51,16.46,73.36,28.17,96.22,32.03,40.17,6.78,84.79,10.88,125.54,9.33,17.78-.67,63.46-5.72,76.04-18.51Z"/>
  <path class="st0" d="M1024.24,635.35c2.75,2.53,10.45,10.81,10.54,14.31.13,4.96-6.64,2.37-9.6,1.58-11.12-2.97-20.58-8.56-32.42-9.86-3.17-.35-12.4,1.11-12.89-3.13-.6-5.26,6.21-10.51,10.59-12.32,12.5-5.17,24.58.97,33.77,9.41Z"/>
  <path class="st0" d="M796.54,384.26v-65.71c10.57-4.11,25.79-.4,29.73,11.12,6.12,17.94-3.7,37.08-17.79,47.96-3.47,2.68-7.63,5.79-11.94,6.63Z"/>
  <polygon class="st0" points="939.23 313.54 951.21 368.12 951.36 371.12 934.57 372.67 932.06 370.77 935.94 312.26 939.23 313.54"/>
  <path class="st0" d="M934.07,509.53c15.77-2.48,23.39,20.49,24.17,32.69.9,14.1-2.3,49.55-17.91,55.27-17.93,6.56-25.28-18.7-26.12-31.79-.9-14,1.81-53.32,19.87-56.17Z"/>
  <path class="st0" d="M1174.72,931.65h-15.42c1.57-13.31,3.1-26.8,7.71-39.43l7.71,39.43Z"/>
</svg>