<svg width="100" height="152" viewBox="0 0 465 432" fill="none" xmlns="http://www.w3.org/2000/svg">
<path d="M3.5 284C3.93341 294.76 11.6113 317.648 15.0001 317" stroke="white" stroke-width="4"/>
<path d="M464 353.5C464 393.547 431.758 426 392 426C352.242 426 320 393.547 320 353.5C320 313.453 352.242 281 392 281C431.758 281 464 313.453 464 353.5Z" stroke="white" stroke-width="4"/>
<circle cx="73" cy="359" r="72" stroke="white" stroke-width="4"/>
<path d="M61.9999 287L60.3534 262.3C60.3534 262.3 65.3532 334.4 58.8534 240C52.3535 145.6 133.387 56 233.26 56C333.133 56 414.127 142.543 404.17 245.729C402.874 260.027 396.5 282.5 396.5 282.5" stroke="white" stroke-width="4"/>
<path d="M451 253C464.253 113.814 360.273 1 232.184 1C104.095 1 -12.9953 77.2209 3.57042 286" stroke="white" stroke-width="4"/>
<path d="M451.15 251.359C451.226 258.437 447 282.5 438 297" stroke="white" stroke-width="4"/>
<path d="M362.239 370C341.594 353.438 355.247 326.99 376 317" stroke="white" stroke-width="4"/>
<path d="M43.8122 375C24.0277 358.438 37.1112 331.99 57 322" stroke="white" stroke-width="4"/>
</svg>
