<svg width="131" height="156" viewBox="0 0 541 486" fill="none" xmlns="http://www.w3.org/2000/svg">
<path d="M327.152 129.62L310.773 152.756L302.583 164.324" stroke="white"/>
<path d="M418.917 200.578L391.191 243.65" stroke="white"/>
<path d="M330.553 45.6479L345.361 58.6586M345.361 58.6586L361.149 37.6455L537.368 179.388L513.687 210.908L338.457 78.7552L333.521 74.4183L345.361 58.6586Z" stroke="white" stroke-width="4"/>
<path d="M430.289 174.468L474.574 209.957L471.981 234.528L430.637 291.4L402.826 288.723L368.469 262.196L370.272 227.941L407.443 176.272L430.289 174.468Z" stroke="white" stroke-width="4"/>
<path d="M298.73 204.934L288.435 222.081" stroke="white" stroke-width="4"/>
<path d="M366.94 125.515L377.235 108.368" stroke="white" stroke-width="4"/>
<path d="M388.827 278.813L377.952 293.563" stroke="white" stroke-width="4"/>
<path d="M449.186 191.693L462.143 173.958" stroke="white" stroke-width="4"/>
<path d="M344.337 108.361L388.059 142.702L385.081 166.129L342.852 219.982L315.088 217.134L281.154 191.453L283.493 158.773L321.467 109.843L344.337 108.361Z" stroke="white" stroke-width="4"/>
<path d="M286.081 57.9558L235.055 135.534L217.201 132.55L201.059 154.691" stroke="white" stroke-width="4"/>
<path d="M235.827 136.025L242.699 153.914L226.503 177.199" stroke="white" stroke-width="4"/>
<path d="M428.42 331.679L174.505 137.324L162.606 155.333L150.707 173.341L404.133 362.952L428.42 331.679Z" stroke="white" stroke-width="4"/>
<path d="M203.424 216.605L182.983 243.339C171.244 234.933 164.662 230.22 152.923 221.814M152.923 221.814L174.662 193.605M152.923 221.814C152.923 221.814 138.428 220.974 129.968 224.182C122.408 227.049 112.609 235.823 112.609 235.823L88.5824 272.779L40.5284 346.689C37.7893 356.066 38.4511 371.529 38.4511 371.529L40.462 391.023L75.1128 412.074C83.5019 414.612 93.9796 415.053 98.5706 414.58C103.162 414.106 107.644 412.526 111.841 408.286C111.841 408.286 188.857 294.657 192.099 286.726C195.34 278.796 195.292 274.582 194.745 269.277C194.198 263.972 193.015 260.884 191.177 256.241L188.43 251.163L183.592 243.62" stroke="white" stroke-width="4"/>
<path d="M117.469 279.93L72.3969 349.766L73.8227 363.587L87.7047 371.467" stroke="white"/>
<path d="M126.987 157.808C113.013 159.25 100.362 148.213 98.8002 133.07C97.2381 117.927 107.369 104.54 121.344 103.099C135.319 101.657 147.969 112.694 149.531 127.837C151.093 142.98 140.962 156.367 126.987 157.808Z"  fill-opacity="0.01" stroke="white"/>
<path d="M309.765 58.5286C293.525 60.2038 279.154 49.2768 277.599 34.2009C276.043 19.125 287.882 5.49414 304.121 3.81891C320.36 2.14367 334.732 13.0707 336.287 28.1466C337.842 43.2225 326.004 56.8533 309.765 58.5286Z" stroke="white"/>
<path d="M82.9172 412.765L40.6152 470.469L9.84644 484.051L5.86258 445.432L39.9931 392.474" stroke="white" stroke-width="2"/>
<path d="M147.691 144.111L164.838 154.406" stroke="white" stroke-width="2"/>
<path d="M29.6267 461.402C24.4888 461.932 19.6577 457.344 18.9968 450.937C18.3359 444.531 22.1286 439.053 27.2666 438.523C32.4045 437.993 37.2356 442.581 37.8965 448.987C38.5574 455.394 34.7647 460.871 29.6267 461.402Z" stroke="white"/>
<path d="M327.152 129.62L310.773 152.756L302.583 164.324" stroke="white"/>
<path d="M418.917 200.578L391.191 243.65" stroke="white"/>
<path d="M330.553 45.6479L345.361 58.6586M345.361 58.6586L361.149 37.6455L537.368 179.388L513.687 210.908L338.457 78.7552L333.521 74.4183L345.361 58.6586Z" stroke="white" stroke-width="2"/>
<path d="M430.289 174.468L474.574 209.957L471.981 234.528L430.637 291.4L402.826 288.723L368.469 262.196L370.272 227.941L407.443 176.272L430.289 174.468Z" stroke="white" stroke-width="2"/>
<path d="M298.73 204.934L288.435 222.081" stroke="white" stroke-width="2"/>
<path d="M366.94 125.515L377.235 108.368" stroke="white" stroke-width="2"/>
<path d="M388.827 278.813L377.952 293.563" stroke="white" stroke-width="2"/>
<path d="M449.186 191.693L462.143 173.958" stroke="white" stroke-width="2"/>
<path d="M344.337 108.361L388.059 142.702L385.081 166.129L342.852 219.982L315.088 217.134L281.154 191.453L283.493 158.773L321.467 109.843L344.337 108.361Z" stroke="white" stroke-width="2"/>
<path d="M289.152 53.6178L235.055 135.534L217.201 132.55L200.218 156.286" stroke="white" stroke-width="2"/>
<path d="M428.42 331.679L174.505 137.324L162.606 155.333L150.707 173.341L404.133 362.952L428.42 331.679Z" stroke="white" stroke-width="2"/>
<path d="M203.424 216.605L182.983 243.339C171.244 234.933 164.662 230.22 152.923 221.814M152.923 221.814L174.662 193.605M152.923 221.814C152.923 221.814 138.428 220.974 129.968 224.182C122.408 227.049 112.609 235.823 112.609 235.823L88.5824 272.779L40.5284 346.689C37.7893 356.066 38.4511 371.529 38.4511 371.529L40.462 391.023L75.1128 412.074C83.5019 414.612 93.9796 415.053 98.5706 414.58C103.162 414.106 107.644 412.526 111.841 408.286C111.841 408.286 188.857 294.657 192.099 286.726C195.34 278.796 195.292 274.582 194.745 269.277C194.198 263.972 193.015 260.884 191.177 256.241L188.43 251.163L183.592 243.62" stroke="white" stroke-width="2"/>
<path d="M117.469 279.93L72.3969 349.766L73.8227 363.587L87.7047 371.467" stroke="white"/>
<path d="M126.987 157.808C113.013 159.25 100.362 148.213 98.8002 133.07C97.2381 117.927 107.369 104.54 121.344 103.099C135.319 101.657 147.969 112.694 149.531 127.837C151.093 142.98 140.962 156.367 126.987 157.808Z" stroke="white"/>
<path d="M309.765 58.5286C293.525 60.2038 279.154 49.2768 277.599 34.2009C276.043 19.125 287.882 5.49414 304.121 3.81891C320.36 2.14367 334.732 13.0707 336.287 28.1466C337.842 43.2225 326.004 56.8533 309.765 58.5286Z" stroke="white"/>
<path d="M82.9172 412.765L40.6152 470.469L9.84644 484.051L5.86258 445.432L39.9931 392.474" stroke="white" stroke-width="2"/>
<path d="M147.691 144.111L164.838 154.406" stroke="white" stroke-width="2"/>
<path d="M29.6267 461.402C24.4888 461.932 19.6577 457.344 18.9968 450.937C18.3359 444.531 22.1286 439.053 27.2666 438.523C32.4045 437.993 37.2356 442.581 37.8965 448.987C38.5574 455.394 34.7647 460.871 29.6267 461.402Z" stroke="white"/>
<path d="M236.154 137.094L235.499 134.956" stroke="white" stroke-width="2"/>
</svg>
