<?xml version="1.0" standalone="no"?>
<!DOCTYPE svg PUBLIC "-//W3C//DTD SVG 20010904//EN"
 "http://www.w3.org/TR/2001/REC-SVG-20010904/DTD/svg10.dtd">
<svg version="1.0" xmlns="http://www.w3.org/2000/svg"
 width="1620.000000pt" height="2160.000000pt" viewBox="0 0 1620.000000 2160.000000"
 preserveAspectRatio="xMidYMid meet">

<g transform="translate(0.000000,2160.000000) scale(0.100000,-0.100000)"
fill="#000000" stroke="none">
<path d="M8303 19314 c-33 -43 -210 -277 -393 -519 -431 -569 -2208 -2912
-3049 -4020 -233 -308 -442 -588 -463 -622 -59 -93 -52 -99 109 -105 258 -10
1739 -100 1756 -107 15 -5 -90 -153 -634 -896 -359 -490 -1190 -1623 -1847
-2520 -657 -896 -1268 -1729 -1357 -1850 -89 -121 -165 -230 -169 -242 -9 -30
18 -81 47 -88 12 -2 78 -9 147 -15 509 -42 2868 -251 2882 -256 14 -4 6 -21
-49 -97 -37 -51 -292 -402 -568 -782 -275 -379 -770 -1061 -1100 -1515 -329
-454 -872 -1201 -1205 -1660 -334 -459 -864 -1190 -1180 -1625 -315 -434 -590
-812 -611 -839 -46 -58 -50 -96 -14 -131 38 -39 74 -33 137 23 29 27 411 334
848 682 437 349 1074 857 1415 1129 1042 831 1642 1310 2050 1636 215 171 694
553 1065 850 371 296 941 750 1265 1009 325 259 838 669 1141 911 303 242 969
773 1480 1180 511 407 955 765 988 796 51 48 58 59 52 82 -3 15 -19 33 -34 41
-21 11 -349 33 -1347 91 -726 43 -1322 80 -1325 82 -3 3 20 28 50 56 30 28
251 243 490 477 1046 1024 1881 1840 2950 2884 630 614 1182 1157 1227 1204
69 74 81 91 76 112 -3 14 -7 27 -9 28 -1 2 -44 6 -96 8 -163 6 -2618 199
-2618 205 0 3 266 219 591 480 325 261 799 641 1053 844 253 204 859 689 1346
1079 487 391 941 755 1010 811 69 56 351 282 626 503 276 221 504 409 508 418
10 25 7 59 -6 77 -11 14 -41 17 -188 22 -213 7 -6444 228 -6811 241 l-176 7
-60 -79z m2287 -154 c1070 -38 2548 -90 3285 -115 737 -26 1346 -49 1353 -51
8 -2 -116 -109 -276 -237 -159 -127 -714 -573 -1233 -989 -519 -416 -1531
-1228 -2249 -1803 -718 -576 -1315 -1056 -1327 -1068 -24 -22 -30 -65 -13 -97
13 -23 61 -40 119 -40 50 0 2478 -187 2551 -196 l44 -6 -64 -61 c-60 -56 -651
-633 -1175 -1147 -228 -223 -785 -768 -1580 -1545 -1195 -1167 -1380 -1349
-1669 -1634 l-309 -306 19 -35 19 -34 1324 -78 c729 -43 1327 -80 1330 -83 2
-3 -4 -12 -15 -19 -10 -8 -303 -241 -649 -517 -347 -277 -853 -682 -1125 -899
-272 -217 -830 -662 -1240 -989 -410 -327 -898 -717 -1085 -866 -187 -149
-621 -496 -965 -770 -344 -274 -812 -648 -1040 -830 -228 -182 -707 -564
-1065 -850 -357 -285 -915 -730 -1240 -989 -324 -259 -732 -584 -905 -723
-173 -138 -316 -250 -318 -248 -2 2 171 243 384 536 213 294 570 786 794 1094
858 1182 2626 3617 2892 3983 153 211 278 385 278 387 0 3 43 62 95 131 52 70
95 130 95 134 0 12 -49 19 -217 30 -192 13 -2927 251 -2931 255 -2 2 900 1234
2005 2740 1104 1505 2014 2747 2022 2759 21 33 7 74 -32 91 -23 10 -270 28
-932 65 -495 29 -906 54 -913 56 -8 2 50 88 155 226 173 228 650 857 1709
2253 329 435 900 1187 1268 1673 l669 882 106 0 c58 0 981 -31 2051 -70z"/>
</g>
</svg>
