<?xml version="1.0" encoding="UTF-8"?>
<svg id="Livello_1" xmlns="http://www.w3.org/2000/svg" version="1.1" viewBox="0 0 200 200">
 
  <defs>
    <style>
      .st0 {
        fill: #e0e0e0;
      }

      .st1 {
        fill: #f25b07;
      }

      .st2 {
        fill: #f29209;
      }

      .st3 {
        fill: #0a0606;
      }

      .st4 {
        fill: #a6c2b7;
      }

      .st5 {
        fill: #191715;
      }

      .st6 {
        fill: #fac40f;
      }

      .st7 {
        fill: #92191e;
      }

      .st8 {
        fill: #d2d3d3;
      }

      .st9 {
        fill: #738b84;
      }

      .st10 {
        fill: #eee;
      }

      .st11 {
        fill: #e8e8e8;
      }

      .st12 {
        fill: #fdfdfd;
      }
    </style>
  </defs>
  <path class="st6" d="M830.1,152.4l12.8-4.1c51.1-9.9,104.6.3,151.7,19,4.1,1.6,12.1,3,15.1,5,.4.3,6.4,6.1,6.6,6.5,2.9,6.9-4.7,14-10.6,16.1l3.3-3.8c-8.7.4-19.1.5-27.3,4.9-1.8-.2-3.9.4-5.7,0s-4.8-4-2.3-4.3c4.1-.4,3.5-2,7-2.2-.5-3.4-7.1-1.7-7.6-2.2-.9-4.5,1.4-2.8,3.6-4.3,5.8-4,5.5-.9,10.9-2.2s.7-1.9,1.5-2.1c2.4-.6,6.6,1.6,5.8-2.2l-29-8.7c-31.9-8.5-84.5-19.7-118.1-2.3-1.8.9-5.3,1.1-6.7,4.5,4.6-1,7-2.2,12-2.2,1.5,0,2.9,0,4.4,0l-1.1,2.2c-5.5,1.1-9.7,2.6-14.2,6,5.2,10.8,14.3,12.9,25.6,13.7,19.1,1.3,37.8-3.8,55.7-2.3s9.5,1.3,5.3,4.3c-19.4,1.3-38.7,3.2-58.2,2.3-.9,3.8,3.4,1.6,5.8,2.2s9.5,3.9,13.2,4.4c3.8.5,8.6-.5,12.6,0l-3.2,2.7,4.3,3.8h-21.8c-.1,0,.5,1.9-.7,2.2-5.9,1.6-21.5-9.2-25.5-6.6l1.1,2.2c-2.2-.2-4.8.4-6.9,0s-.7-1.7-1.7-2c-12.6-4.6-19.3-14.4-27.5-24.1l1.6-8.7c1-.3.2,2.4,1.1,2.2,8.8-2.4,18-11.3,27.8-10.9l-12-1.6,13.1-2.7c.3-1.9-2.5-1-3.8-1.1-2.7-.1-5.5,0-8.2,0l6.5-4.3c-5.2.8-11.3.5-16.4,1.1ZM920.6,151.3c-14.1-3-28.5-5.1-42.5-.6,8.9,2.1,17.8-1.1,26.8-.6s8,1.9,12,2.2c1.2,0,4.1.8,3.8-1.1ZM960.9,161.1c-6.5-5.2-20.6-11.3-28.3-7.1l28.3,7.1ZM1000.2,187.3c3.7,0,7.5-1.7,7.4-5.7-.3-9.7-16.2-11.1-23.8-11.8l18.6,9.2c2.5,3.4.4,5.1-3.3,5l3.3,1.1-2.2,2.2ZM859.5,191.7c-14.3.9-26.3-8.1-36-17.5-2.1,2.4,14.3,15.8,16.4,16.9s12.7,4.8,13.6,5c2.7.4,1.1-1,.5-2.2l5.5-2.2ZM996.4,178.6v1.1c.7-.4.7-.7,0-1.1Z"/>
  <path class="st2" d="M830.1,152.4c5-.6,11.1-.3,16.4-1.1l-6.5,4.3c2.7.1,5.5-.1,8.2,0s4.1-.8,3.8,1.1l-13.1,2.7,12,1.6c-9.9-.4-19,8.5-27.8,10.9s0-2.5-1.1-2.2l-1.6,8.7c-.1-.1-1.4.1-1.8-.4-6.9-8.6-10.1-13.5.3-21.3s7-4,11.3-4.5ZM837.7,155.7c-1.5-.8-2.9.7-2.2,1.1,1.5.8,2.9-.7,2.2-1.1Z"/>
  <path class="st2" d="M931.5,208c3.2,4.4-17.3,4.4-19.1,4.3-4-.3-8.5-1.9-12.6-2.2.4-2.1,2.2-1.9,3.8-2.2,4.2-.7,26.1-2.3,27.8,0Z"/>
  <path class="st2" d="M981.7,196c8.1-4.4,18.5-4.5,27.3-4.9l-3.3,3.8c-8.9,3.2-15,2.2-24,1.1Z"/>
  <path class="st2" d="M952.2,197.1c-8,4.6-18.3,3.3-27.3,3.3h-4.4c0,0-1.3.1-1.1-1.1,3.4.7,6.9-3,9.3-3.3s4.8,1.3,7.6,1.2,12.6-3,15.8,0Z"/>
  <path class="st6" d="M909.7,215.6c.7,1.7-2.8,4.3-3.8,4.4-3.4.5-12.9.3-16.3-.1s-9.8-3.8-4.4-4.3c4-.4,8.4,2.1,11.8,1.9,3.5-.2,8.2-3.3,12.7-1.8Z"/>
  <path class="st4" d="M1082,964.8c.7.4-.6,1.9-2.2,1.1-.7-.4.6-1.9,2.2-1.1Z"/>
  <path class="st4" d="M860.6,964.8c.7.4-.6,1.9-2.2,1.1s.6-1.9,2.2-1.1Z"/>
  <path class="st6" d="M903.2,513.4c4.9-6.6,3.3-1.3,5.9-1,9,1.1,22.8-1,32.8,0,3.1.3,9,3.5,11.2,1.9s.1-3.4,2.4-1.8-1,3.2,5,2.2c2.6-.4.6-2.8,3.2-2.3s.2,1.9,1.3,2.2c2.7.7,5.4-1.1,7.6-1,3.2,0,6.7,1.7,10.2,1,.4.3.7.8,1.1,1.1,3,2.7,6.7,4.4,9.3,7.6l-2.7-6.5,7.6,2.2-1.1-3.3c5.2.8,10.4,0,15.8,0,1.8,0,3.8,1.3,5.3,1.1s.6-3.1,2.9-2.2c3.7,2.9,7.4,5.6,10.9,8.7.1.1-.3,1.4.2,1.9.9,1,4.8,1.4,5.8,3.5-.2-2.6-2.5-4.9-4.9-5.4-.4-.6-.6-1.7-1.1-2.2,2.1-8.1,11.6-2.9,17.4-3.3,14.3,14.5,28.3,29.9,39.7,47,8,11.9,28.7,47-2.9,38.8-13.6-3.5-26.1-16-37.6-23.5-27.5-17.7-58.7-23.2-88.3-36-19.9-8.6-37.9-20.8-57.1-30.7ZM979.5,530.8c-1.9-2.4-16.9-12.3-18.5-10.9-1.4,1.2,1.7,2.9,2.5,3.5,4.1,2.8,11.2,5.8,16,7.4ZM1041.6,530.8l-2.2-2.2c-.3,2.3-.1,2.5,2.2,2.2Z"/>
  <path class="st1" d="M972.9,630c1.5,8-2,13.4-4.1,20.4-1.2,3.9-3.7,9.7-4.4,13.1-.4,1.9-.4,3.8-.3,5.7,2.7.6,1.9-.6,2.8-2,1.9-3.1,3.9-7.8,8.1-8.9-.1,9-2.1,21.5,4.4,28.4-.3-9.6.5-19.3,0-28.9s-1.7-11.4-2.2-16.9c8.8,1,6.8-9.4,6.5-15.3l2.2,50.2c-4,6.1-2.3,18.6,0,25.3s2,.5,2.2,2.4c.5,5.7-4.8,12.5-1.2,18-1.3,1.1-6,9-6.9,11-6.3,13.5-8.5,30.8-8.3,45.7-6.7.8-6.3,7-5.5,12.6.6,4.2,2.4,5.2,6.6,4.9,2.2,18.7,8,36.3,9.8,55.6,1,3.3-4.1,15.2-6.9,15.1-8.3-.4-4.8-6-5-10.2-.3-3.9-.8-9-1.3-13-.1-1.1-.5-4.1-2.1-3.9.8,5.5-.7,10.6-1.2,15.8-.2,2.4.8,4.7.6,6.6s-3.1,6.6-1.6,10.4c-1.1-.9-1.9-2.2-3.3-3.3-1.8-11.4-2.5-23.3,2.5-34,1.3-2.7,5.6-7.8,6-9.3,1-3.6-.1-9.6.3-13.9s2.1-4.9,2.1-6.7c0-3-4.8-3.5-6.2-5.1s-3.3-10-6.4-10.5-4.6,2.1-4.8,2.9c-1,3.8,1.1,9.5.8,12.7-.3,2.8-2.7,6.6-3,11-.6,9.6,4.4,16.4,5.5,25.7-5-1.7-6.4-3.2-6.5-8.7-3.1-.5-3.2,2.9-4.4,4.6s-1.6.8-1.8,1.1c-3.9,8.6,1.8,20.1-2.5,29.1-.3.4-.8.7-1.1,1.1l-4.9-12c-4.9,6.7-6.5,15.2-9.3,22.9-.4-.2-.9-1.1-1-1.1.7-10.7,4.9-21.1,6.5-31.6,6.2-5.3,5.6-14.1,7.5-21.4.7-2.7,2.4-4.9,2.9-6.9,2.5-9.9,3.7-20.7-4.4-28.3-1.8,4-1.4,8.3-1.6,12.6-.1,2.1,1.2,4.4-2.2,3.8-.2-7-.3-12.6-1.1-19.6.7-2.5,3.9-2.3,5.2-3.6,3.7-3.6,2.9-8.9,3.8-13.1.7-3,3.6-5.3,4.1-7.9s-.5-13.1,0-13.6,3.3.2,4.4,0c-.8-3.6-.6-7.9-1.2-11.4s-2.4-3.3-2.2-6.6c.3-4.6,7.3-16,6.7-22.4,1.8-.3,1.2,2.7,1.1,3.8-.5,7.8-2,15.7-1.1,23.7l9.8,9.5c1-3.8.5-8.8,1.3-12.3,1.3-5.3,6.7-11.1,6.3-17.6-.4-6-8.1-17.7-12-22.5,3,2.5,5.4,5.4,9.8,4.4-1.6-6.9-7.8-12.1-6.5-19.6-4.8-.8-2.5,1.2-3.8,4.4-.9,2.2-2.6,4-2.8,6.6-5.5-2-7.7-12.8-14.2-13.1-.4-4.3-.8-8.7-1.1-13.1,3.5,3.1,2-3.8,2.4-5.8s1.7-2.6,1.7-3.7-5.3-8.3.2-8c2.2,5.6,3.9,13.4,6.3,19.3l1.3,9,1.1-13.1,2.2.5c-.9-6-2.9-11.8-4.1-17.7-.4-2,0-4.2-.3-5.7,1.7-2.3,3.8-13.6,6.5-14.2s1.9,1.5,2.2,1.1-6.4-12.8-1.6-13.1c2.8-.2,11.2,15.4,12.5,18.5Z"/>
  <path class="st6" d="M951.1,238.5c2.6,1.3,7.5-.2,6.5,3.3-3.4,2.7-6.8,6.4-7.6,10.9l8.7-7.6c2,1.6,4.8.6,6.8,1.2,3.7,1,17,12.5,19,13,3.2.7,7.8-.4,11.2,0-3,1.3-6,5.2-9.8,5.5-.3,1.9,2.6,1.2,3.7,1,8.5-1.4,18.1-8,26.8-9.7,3.9,3.9-3.7,4.1-4.3,7.2s2.7,2.7,2.1,4.8c-3.8-1.7-5-2.2-9.3-2.2s-4.4-1-3.8,2.2c-3.9,0-5.6.6-8.7,1.1s-6.5.5-8.7,1.1c-4.3,1.1-7-1.7-10.9-2.2,1.3-1,7.3-6.2,7.6-7.1,1.1-2.8-4.6-1.5-5.7-1.3-10.6,1.4-30.5,9.5-39,16.1-.8-.4-1-2.1-1.1-2.2-1.3-.7-1.9,1-2.2,1.1-4.1,2-7.5,4.2-10.9,7.1-7.3,6.1-13.8,13.9-20.7,20.2-3.5.7-7.1,2.4-10.4,3.2-1.9.5-4.3-.3-6.3,0s-6.8,6.3-7,6.8c-1.7,3.5,3.2,7.6,4.1,10.7-3.4,3.1-6.6,8.9-9.8,12.6l12-8.2c1.8,2.4,1.8,5.3,5.5,4.4-10.2,3.8-21.2,10.4-31.1,15.3l2.7-10.3c-.3-1.2-1.5-.7-2.2,0-2.8,2.6-3.8,13.6-6.6,17.5.5,4.3.9,9,5.5,10.4-.7.2-2.3-.3-3.6.2-5.1,1.9-3.4,10.6-7.3,14,.4-8.1,1.4-17.4,2.2-25.6s4.1-5.3-.6-9.3c-.4-.2-1.4,2.6-1.6,3.3-3.5.1-3.6-5.6-7.6-4.4,5.5-20,14-37.1,22.9-55.6,2.1-1.6,5.3,18,7.1,19.6,3.1-6.3,4.7-13.2,7.6-19.7,8.1-18.2,20-32.4,35.5-44.7v1.4c3.4.9,1.6,4.3,2.2,5.1s1.7-.3,2.2,0,0,.7,0,1.1c-.5.2-.7.9-1.1,1.1-7,4.1-14.4,5.5-19.6,13.6,3.5,2,15.3-10.5,16.3-9.3-.3,4.7-4.7,8.3-6.5,12.6.3,1,2.1.3,2.2.5s.2,5.9,0,6.5c-.9,3.5-27.5,18.8-27.2,27.8,1.8,0,4.1-2.1,5.4-3.3,5.9-4.9,15.5-14.5,20.7-20.2,1.6,4.2,8,1.8,9.8-.9s4.3-15.9,0-18.7c1.5-1.9,1.9-6.5,2.2-8.7,2.4-1.8,6.4-1.6,8.4-2.5s.5-1.6,1.1-1.8c3.2-1.4,7.2-1.3,9-4.4-.4,1.1-.6,6.1-.6,7.6,4.3-4.5,9.4-7.8,14.7-10.9Z"/>
  <path class="st6" d="M809.4,516.6c2.1-26.1,23.4-36.7,47.5-34.9,31.1,2.3,46.8,25.2,80.3,15,9.5-2.9,22.6-13.4,31-13.8,10.8-.5,17.9,10.9,31.5,10.9,5.3,0,13.3-3,18.5-2.2,7.1,1,25.4,20.3,31.2,26.1-5.9.4-15.4-4.8-17.4,3.3-2.1-2.1-17.4-16.4-18.6-16.9s-6.2-.3-6.5,1.7c6.1-.3,9.8,5.3,14.2,8.7-2.2-.8-2.1,2.2-2.9,2.2-1.5.1-3.5-1.1-5.3-1.1-5.4,0-10.6.8-15.8,0l1.1,3.3-7.6-2.2,2.7,6.5c-2.6-3.2-6.3-4.9-9.3-7.6,3.6.2,2-.6.5-2.2s-10.4-10.4-12-10.9c-.8,4,7,7.3,10.1,10.1.5.5.2,1.7.3,1.8-3.5.7-7-.9-10.2-1s-4.9,1.7-7.6,1-.3-2-1.3-2.2c-2.6-.5-.6,1.9-3.2,2.3-6,1-4.7-2-5-2.2-2.2-1.6-2.1,1.7-2.4,1.8-2.3,1.6-8.1-1.6-11.2-1.9-10-.9-23.8,1.2-32.8,0-2.6-.3-1-5.6-5.9,1-18.3-9.5-38.5-21.2-59.4-12-6.9,3.1-11.4,8.7-12.5,16.4l-5.5-1.1c1-4.1,1.7-8,4.2-11.7l9.5-11.3c-11.2,4.2-17.1,10.8-18,22.9h-12ZM965,505.4c8.5-9.2-18.8-12.6-23.7-5.7,3.8.6,10.9,2.5,6,7.1s-4.6,1.3-4.9,3.2c4.5.6,19.7-1.5,22.6-4.6Z"/>
  <path class="st7" d="M911.9,658.4c5.5-.2,6.2-8,9.2-9.9,9.2-5.9,8.5,11.4,11.1,16.5s5.4,3.8,5.7,7.2l1.2-.7c1.1,5.8,1.9,11.7,3.3,17.4,3.9-2.7,1.5-9.1,1.1-13.1,6.5.2,8.6,11.1,14.2,13.1,0,.3,0,.8,0,1.1.2,1.3,1.2,2.4,2.2,3.3s.9-.2,1.1,0c3.9,4.8,11.5,16.5,12,22.5.4,6.5-5,12.3-6.3,17.6-.8,3.5-.4,8.5-1.3,12.3l-9.8-9.5c-.9-8,.6-15.9,1.1-23.7,0-1.2.7-4.1-1.1-3.8.6,6.4-6.4,17.7-6.7,22.4s1.9,4.3,2.2,6.6c.6,3.4.4,7.8,1.2,11.4-1,.2-4-.3-4.4,0-.5.5.4,11.1,0,13.6s-3.4,4.9-4.1,7.9c-.9,4.2-.1,9.5-3.8,13.1-1.3,1.2-4.5,1-5.2,3.6-2.7-22.2-12.9-38.9-16.6-60.3-3.4-19.6-.4-33.5,2.4-52.6.4-2.8-.1-5.7.1-8.5-.2-.8-3.8-1.4-5.2-2.5-2.1-1.6-2.6-3.6-3.5-4.7Z"/>
  <path class="st2" d="M983.8,233.1c11-3.3,22.5-6.1,34.3-6.6s.4,3.5-2.6,5.1c-.8.4-1,1.4-1.2,1.5-.8.5-3.1.1-3.3,2.2,7.8-1.4,12.1,6.5,17.4-2.2,1.8,0,3.7,0,5.5,0-1.5,2.5-.4,8.1-1.6,9.9s-12.9-1.2-9.3,11.9c3.2.2,1.8-3.6,6.5-2.2,0,3.8-1.4,7.8,3.7,7.3s1.4-6.6,8.6-5.1c.9.2,2.7,3.8,3.3,4,2.3,1,7.8-.3,1.9,3.6-4.9-.3-12-.7-16.4,1.1-.7,0-1.5,0-2.2,0-4.3.5-9.7,2.8-12,6.5,5.8-2.3,8.9-3.8,15.3-4.4-1,6.1,6.6,5,6.5,8.7-1,.9-4.6,2.4-2.7,4.4,3.2-2.8,8.5-5.2,12.5-6.5,4.6-1.5,9.3-2.6,14.2-4.4,2.6-.9,6.3,2.1,4.4-5.8s-5.1-2.5-6.6-2.9c0-1,.2-4.1,0-4.4,1.1,0,2.2,0,3.3,0,2.2,0,4.9-.3,7,0s10.5,5.5,11.3,6.8,0,2.6.6,3.7c1.6,2.5,13.3,4.9,15.7,3.9s4.1-2.5,1.4-3.6c.2,0,1.3-.8,2.2-1.1h1.1c-.8,6,5.3,4,8.6,2.6,3.3-1.4,6-6.9,7.7-10.2,12,2.4,25.9,4.4,36,11.5,0,2.7-17.6,3.6-20.7,4.3-4.9,1.1-7.8,3.1-11.9,5-4.3,2-7-.6-5.4,6.9.1.6,6.3,4.8,2.2,9.5-2.2,0-4.4-.1-6.5,0-5.8-3.3-.1-6.9,0-7.3.6-2.6-.3-6.3,0-9.1-2.9-.3-5,0-7.6,1.1.6-5.3-2.7-4.6-4.4,0-.1.3-1.2.4,0,1.1v1.1c-1.1,0-2.2,0-3.3,0s-1.6-1.1-2.8-1.1c-3,0-5.9,1.8-8.1,3.8,0,1.1,1.9.3,2.2.5s-.1,1.6,0,2.2c-.7,0-1.5,0-2.2,0-3.1-1.9-10.2-1.8-13.1,0-.3.1-1.5,2.9-1.1,3.3,2.5,0,5.1,0,7.6,0v2.2c-.4,0-1,0-1.1,0l-1.1,4.4h-1.1c-10.5-3.8-25.9-6.1-37.1-6.5-2.6-2.7-17.5,0-18.5-1.1s.4-6-.2-8-10.6-12.6-11.5-12.7c-2.1-.4-5.6,0-8,0-.6-3.2,1.7-2.2,3.8-2.2,4.3,0,5.5.5,9.3,2.2.6-2.1-2.4-3.1-2.1-4.8.5-3.2,8.2-3.4,4.3-7.2-3.2-3.2-16.6,1.5-20.7,3.3-3.5-.4-8,.7-11.2,0s-15.4-12-19-13-4.8.5-6.8-1.2c4.2-3.7,9.1-6.5,14.2-8.7,2.3,3.6,3.4,8.8,8.7,7.6-5.8,2.6-.2,4.2,4.4,3.3.9,2.5,8.1,5.7,7.6,1.7-.8-6.9-6.4-10.5-9.8-15.8ZM1009.5,235.3v1.1c.7-.4.7-.7,0-1.1ZM1005.7,241.8c-3.3-.5-6.2.7-8.7,2.7,3.7,3,10.3,3.9,8.7-2.7ZM1136.5,264.7c-4.4-1.9-8.2-2.8-13.1-2.2-.7,2.9,1.9,2.5,3.9,3.2l9.2-1ZM1059.6,281.1c6.9,0,13.8,0,20.7,0s12.5-5,16.9-5.5c.3-1.7-1.5-1.2-2.7-1.1-3.9.1-7.2,1.9-10.9,2.2-5.6.4-12-.7-17.4,0s-11.5,3.1-8.2,4.9c1.3.7,1.2-.6,1.6-.6ZM1026.9,286.5v1.1c.7-.4.7-.7,0-1.1Z"/>
  <path class="st9" d="M914.1,418.5c-2.8,2.2-8.3,10.6-9.5,14-6.6,18.9-1.8,36.7.2,55.8-14.4-7.6-29.9-14.1-46.3-15.4-3.9-23.6-5.9-45.1,6.4-66.4,4.2,3.6,10.9,2.8,16.2,4,8.1,1.9,17.8,5.8,26.1,7.7,2.3.5,4.5.4,6.8.3ZM878.1,418.5h-7.6v1.1h7.6v-1.1ZM869.3,419.6c-2.9.2-7.4-1.2-8.7,2.2,2.2-.4,7.5,0,8.7-2.2ZM872.6,435.9l-10.9-1.1c.5,1.6,5.7,2.1,7.1,2.2s4.1.8,3.8-1.1ZM877.2,440c-.8-.5-.7-3.9-3.5-3l5.1,5.3c1.2.3,6.5-1.4,6.9-3.1-2.4.3-6.3,2.1-8.5.8ZM886.8,439.2l4.3.6c-1.1-1.7-2.3-1.9-4.3-1.6v1.1ZM882.4,465.4c-1.5-.8-2.9.7-2.2,1.1,1.5.8,2.9-.7,2.2-1.1ZM878.6,466.5l-4.9,3.8c1.4,0,5.5-2.3,4.9-3.8ZM873.2,471.9v1.1c.7-.4.7-.7,0-1.1Z"/>
  <path class="st6" d="M1031.8,422.8c6.6-1.4,2.5,3.6,7.6,6.5-.2,1.2-1,2.6-1.1,3.3-.4,3.5,5.8,9.8,6.5,14.2-2.2,5.2-4.5,10.5-6.6,15.8,0,1.4,5.3.3,6.5-.5l-3.3,7.1c3.3,2,6.8-7.8,5.4-9.3l-5.4.5c3.7-7,7.9-13.9,10.9-21.3,1.6,3.9,2.9,1,4.8,1s.3,3.2,2.2,2.2c2.8-1,6.2-12.9,8.2-2.2-1.4,2.7-3.4,5.5-3.3,8.7,2.2-1.1,4-3.5,5.4-5.5,4.7,3.2,6-4.4,7.6-7.6,1.7-1.1,2.8-2.3,4.4-2.2.3.3-.8,7.4-1.1,8.7s0,2.1-.5,3.3-1.3,1.5-1.7,2.1c-1.7-1.7-.3-3-2.7-1.1-6.6,5-12.3,14.1-18,20.2,3.2-.9,7.4-4.3,9.8-6.5s7.9-7.9,9.8-10.4l1,.5c-1.9,4.3-3.7,8.8-3.1,13.7l-16.4,9.8c6.8.2,12.2-4.7,18.5-6.5.4,4.2-1.2,8.1-3,11.7l-8.9,9c8-.7,11.1-5.7,14.2-12,2.1.8,2.3,2.8,3.3,4.4,2.6,4.3,6.5,6.5,7.6,12-1.3,2.7-3.2,7.9-4.4,10.9-4.6,1.1,0-6.3-3.8-5.4-2.5.6-4.8,5.2-5.7,5.4-1.6.3-3.4-.3-5,0s-.6,1.6-1.6,2-2.8.1-4.1,1.1c-2.4,1.7-1.9,6.5-.4,8.8-.4.4-.7,1.6-1.1,2.2-.7,0-1.5,0-2.2,0-3.5-3.7-7.2-7.4-10.9-10.9,2.9-2.6,5.3-3,8.7-4.4,6.4-2.7,16.3-4.6,18.5-12-7.2,5.2-16,5.9-24,8.7-4.7.3-7.2-3.7-8.7,2.2-5.6-5-12-11.6-18.5-15.3.6-2.9-2.3-9-2.2-10.3s2-.4,2.2-1.3c1.7-6.4,1.5-12.6,2.2-18.9,1.3-11.2,3-21.3,2.2-32.7Z"/>
  <path class="st4" d="M865,406.5c15.5-26.8,46.4-36.3,73.8-19.8,8.9,5.4,15.3,17.3,19,26.8,1.5,3.9,6.4,15.5,2.1,18-1.2-.3-3.2.3-4.8,0-3.1-.7-4.2-4.3-6.1,0-2.6-7.5-9.8-15.1-17.4-17.4l4.4-5.5c0-2.2-3.4-.4-4.3-2.8-.8-2.3,1.3-5.9,2.1-8l-3.3-1.1c1.1,5,.3,11.3-1.1,16.4-2.1,0-13.3,3.9-15.3,5.5-2.3,0-4.5.2-6.8-.3-8.3-1.9-18-5.7-26.1-7.7-5.2-1.3-11.9-.4-16.2-4ZM904.2,384.7l-6.5-2.2,2.2,12c3.1-.7-.5-8.3,0-8.7.7-.6,4.6,1.2,4.4-1.1ZM907.5,385.8c-1.5-.8-2.9.7-2.2,1.1,1.5.8,2.9-.7,2.2-1.1ZM918.4,394.5c-.3-.3.2-3.3,0-4.4l-1.1,7.6,5.4-2.2c.2-2.3-3.8-.5-4.4-1.1ZM896.6,396.7c-3.7.5-6-.3-8.2-3.3l1.6,4.3-4.4,1.1c1.9-.5,4.5,1.2,5.9,1.1s.4-1.9,1.4-2.2c1.4-.5,3.8,1,3.6-1.1ZM914.6,393.4v1.1c.7-.4.7-.7,0-1.1ZM902.1,397.8c.8-1.5-.7-2.9-1.1-2.2-.8,1.5.7,2.9,1.1,2.2ZM903.1,401c.8-1.5-.7-2.9-1.1-2.2-.8,1.5.7,2.9,1.1,2.2ZM951.7,406.5v1.1c.7-.4.7-.7,0-1.1ZM950,407.6c-1.5-.8-2.9.7-2.2,1.1,1.5.8,2.9-.7,2.2-1.1ZM946.8,408.7l-9.8,1.1c2.6.4,8,1.6,9.8-1.1ZM956.6,418.5c-2.1,1.7-9.4-.7-8.7,3.3,2.6.1,7.3-.8,8.7-3.3ZM946.2,421.7v1.1c.7-.4.7-.7,0-1.1Z"/>
  <path class="st6" d="M1042.7,584.3c1.8,1.9-.3,1.8-1.6,2.1-48.8,11-95.9,16.6-145.8,7.3-4.1-.8-9.4-1.2-12.9-3.5,0-1.2,18.4-12.2,21.2-12.6,5.1-.7,9.6,1.1,14.2,1.2,9.3.2,19.1.3,28.4,0,24.2-.7,55.1-7.7,77.9-1.7,2.6.7,17.5,6,18.5,7.1Z"/>
  <path class="st1" d="M879.2,553.7c6.8-1.8,19.7-4.1,26.7-4.4s5.1-.7,4.9,1.1l-14.2,2.2c.3,2.1,4.9,1,6.5,1.1l-28.7,12.1-24.7,14c3.8,1.4,4.1-1.6,5.2-2.1,17.2-7.7,35.4-17.2,53.7-21.9s4.5-.2,6.5-1.1l-1.6,3.3,11.4-3.3-3.3,3.3,13.1-1.1-1.1,2.2,9.8-1.1-1.1,2.2,7.6-2.2-2.2,3.3,7.6-1.1-2.2,2.2h4.4s-1.1,2.2-1.1,2.2l4.4,2.2c-.4,0-.7,0-1.1,0-2.2,0-4.4,0-6.5,0-7.1.1-6.6.5-13.1-1.1-1.5-.4-2.8-.8-4.4-1.1-3.9-.8-7.9-1.9-12-2.2-1.1,0-2.2,0-3.3,0-6.2.4-9,2.4-14.2,4.4-.6.2-2.1-.5-3,.3s-.1,1.7-.3,1.9c-.2.3-6.2-2-3.3,2.2-1.1.7-8.4-1.1-7.6,3.3-5.2.5-13.8,7.4-18,10.9-13.4,11.4-25.5,28.4-32.2,44.7-3.8.4-1.8-1.1-1.3-2.9,1.6-6,1.4-15.2,1.3-21.7,0-5.9-2.3-11.5,0-17.9l-3.3-.6,4.4-3.4c-1.9-2.2-.5-9.3-1.2-10.2s-1.6,0-2.1,0v-1.1c6-3.8,12-8,18.5-10.9,5.2-2.3,15.3-6.2,20.7-7.6Z"/>
  <path class="st1" d="M839.9,573.3c.5,3-1,2.7-3.3,1.1.4-.3,1-1.4,2.2-2.2.2.5.6.9,1.1,1.1Z"/>
  <path class="st2" d="M994.8,662.8c-.2-5.8.6-12.3,0-17.9-.9-7.3-9.3-24.5-5.2-30.5s4.7,2.4,7.5,3.7l3.3-5.4c.7,4,1.9,7.9,3,11.8.5,1.9-.7,4.1,2.5,3.5,0,1.5,0,2.9,0,4.4,0,4.4-.4,9.2.1,13.5.1,1.1.5,4.1,2.1,3.9.2-1.8-.2-3.7,0-5.4,1.5,3.4,2.8,2.3,3.3-1.1,1.5,1.2.4,3.7,2.2,3.3-.3-2.3.8-4.4,1.1-6.5,4.8.2-.7,5.3,6.5,2.2-.9,4.5,1.8,2.9,2.2,3.3.6.5,4.5,12.8,5.5,15.3s.7.8,1.1,1.1c0,.3,0,.8,0,1.1s-1.2.9-1,2.5c.4,5.3,1.5,10.8,7.6,11.7.4,1.1.4,3.4,1.1,5.5-8.2-1.3-4.1,2-6.5,5.8-4,6.4-1.8,2.8-3.4,10-.7,3.1-3.3,7.9-4.3,11-1.3,4,8-1.5,9.3-1.6l3.7-9.9c0,1.4,0,2.9,0,4.4,4.2,1.4.5-5.7,3.8-4.3,3.6,1.4,2.1,6.1,2.9,7.5s3.2.8,4.2,1.3c0,1.1,0,2.2,0,3.3-4.3,1.9-6.7-3.3-7.1-3.3-5.7.4-9.1,8.6-10,8.8-2.6.5-6.1-1.8-9,0-.5-1.8-.8-3.6-1.1-5.5.8-3.5,3.4-10.5,3.3-13.7-.1-3.5-3-4-3.4-6.5-.4-3.2,2.3-8.6,1.1-12.5-3.8-.2-4.7,4.8-6.5,6.8s-5.6,5.4-7.9,7.5c-.9.8-1,3.8-3,1.5l-2.2-7.1c0-.4,0-.7,0-1.1,0-2.3-.2-4.8,0-7,.3-2.6,2.9-4.6,2-7.5s-6.8-7.1-8.6-7.3Z"/>
  <path class="st4" d="M1020.9,413v7.6c-2.9,1.1-1.7-2-2.9-2.2-2.3-.5-5.5.3-8,0-1.2-2.8-5.8-7-8.7-7.6l.5-6.6-1.6,6.6c-4,.4-9.7,4.2-12,7.6-4,1.3-7-1.6-9.8-2.2l-4.4-6.5c-2-.2-.8,2.3-1.1,3.7s-4.1.4-5.5.7c-.7-1.7-5.4-6.3-6-9.7-1-6,11-18.2,15.9-21.3,25.1-15.7,39.1,8.1,43.5,29.9ZM1004.8,399.7c-.6-.4.5-2.4-1.3-1.9-2,5.3,8.6,4.2,9.8,1.1-2.5,0-6.2,2.3-8.5.8ZM989.3,403.2c.8-1.5-.7-2.9-1.1-2.2-.8,1.5.7,2.9,1.1,2.2ZM1002.9,402.1v1.1c.7-.4.7-.7,0-1.1ZM987.1,411.9l1.1-7.6c-2.4.3-3.5,7-1.1,7.6ZM987.7,413v1.1c.7-.4.7-.7,0-1.1Z"/>
  <path class="st10" d="M849.7,515.5c-.2.2.4,1.5-.7,2.2-4.1,2.9-13.4-2-10.3-7.2,10.9-18.2,39.2-7,53.5,0,26.1,12.9,49.8,32.1,78.5,39.8.2,4.6-6.2,5.5-9.1,3.4-1.7-1.3-.4-6.3-7.2-4.4l1.1,3.3c-9.9,2.1-6.1-7.2-6.5-7.6-2.6-2.3-3.6,2.5-4.4,3.3-2-.9-4.2-2.1-5.6-3.8-2.1-2.6,2.9-4.4-4.2-2.7,0-.7,1.5-1.9,1.1-2.2-2.4-.5-3.1,1.7-4.4,3.3-1-.4-.8-1.6-1.1-2.2-1.4-2.5-8.2-7.5-10.9-8.7s-.8-1.3-2.2-1.1c-5,.8-4,11.4-4.4,11.9-1.2,1.3-9.7,1.1-11.9-.6-7.2-5.5-.9-14.4,4.3-18.5-10.3-6.2-9.5,14.7-11.9,16.5-1.3.9-16.2-1.4-18.3-2.5-8.8-4.8,2.2-19.5.8-27-.8-4.6-3-1.7-3.3-1.7-8.6-.4-4.8-2.8-10.4-6.5-1.1,1.2-.4,3.8-.5,5.4-3.1-3.7-3.3,6.5-3.2,7,.2,1,4.3,1.9,5.4,2.8.7-2.5-1.5-3.8-2.2-5.5,3.2-3,4.4,4.2,8.7,2.2-1.2,5.1-1,11.8-5,16.3-2.4.5-11.8-7.2-12.3-9.4-1-4.4,5-10.8,4.2-15.6-3.9,2.2-5,6.1-7.6,9.8-2-2.5-2.6-9.2-4.9-3.3l-1.6-2.2c-1.5,1.6,0,6.8,1.1,7.6s3.9-2.6,5.4-2.2ZM895.5,526.4c.2-.3-2-3.9-2.7-4.4-1.4-1.1-3-.1-3.9-.5-1.5-.7-6.1-7.3-7.6-5.9,2.2,6.8.2,3.2-.8,3.6s-2.5,2.3-2.5,2.5c0,2.7,4.7,5.9,4.4,9.2l-6-4.3c-.3,3.2,3.5,5.1-.5,6l7.6,6v-5.5c1.8,0,1.7,3.2,2.8,3.3s5.6-1,5.8-1.2c.5-.5-.4-5.1.2-6.9.6-1.7,3-1.6,3.1-1.8ZM905.3,533c-1.7-1.4-1.7-3-3.3-3.3-3,7.4,2.5,6.7,7.6,9.8.3-1.3-.3-3.3,0-4.4,1.1-3.6,4.3-3-1.6-7.6l-1.1,2.2-2.7-2.2,1.1,5.4ZM888.4,537.3v1.1c.7-.4.7-.7,0-1.1Z"/>
  <path class="st1" d="M1091.8,297.4c-1.3.5-3,.2-3.3,2.2h8.7c-.2,1.6-3.4,2.1-3.2,3.8s4.8,2.5,5.1,6.7c.6,7.8-11.5,21,5.8,16.8,0,.7.1,1.6,0,2.2s-1.6.7-1.1,2.2c2.8.4,10.5-1.3,12,1.7,1.3,2.6-5.5,1.7-5.8,4.5-1.8-.1-12.1,5.2-6.8,5.8s8.1-1,9.3,1.6c-6.8,2.1-14.4,12.5-2.2,11.4-12.4,2.9-5,1.9-1.7,5.5,1.6,1.7,4.4,10,6,13-7.4-.2-13.3,4.8-17.4,10.4,4.4,0,8.5.5,10.9,4.9-5.4,8.1-4.8,8.7-12,16.4-5.7-5.6-3.7-14.1-2.5-21.6.6-3.5-.1-2.4-3-2.4,1.1-1.7-1.8-1,2.2-3.3,5.5-3.2,9.5-7.8,15.3-10.3,4.6-10.8-10.1-3.7-15.3-4.9-1.9-5.7.7-9.3,0-15.3l-3.3,2.2h-1.1c.3-.9,2.1-6,2.2-6.5h4.4c.2-2.9-.4-6.3-3.3-7.6,0-.6.1-1.8,0-2.2-.5-1.2-3.3-2.2-4.4-3.8-7.2-10.4-8.5-18.9-20.7-4.9-.5-2.7.2-8.9-3.8-7.7-.9.3-10.3,12.6-9.3,15.3-.5.2-1.6-.2-2.2,0-.7-3.7,2.5-5.7,2.3-9.3,0-2-2.1-1.5-2.3-2.3-1.1-4.4,2-6.3,2.2-10.2-1.1,0-2.2,0-3.3,0,1.4-.8,2.2-2.2,3.3-3.3,3.1-3.1,4-7.4,4.4-7.6s6,.5,6.5-3.3c5.5,1.3,11,2.7,16.3,4.4l-8,4.6c-1.1.9-3.2.5-4,.8-4.8,2.2-9.8,5.1-14.2,8.2,4.4-1.1,9.2-2.5,13.4-4.1,1.3-.5,1.8-1.8,1.9-1.9,7.4-3.3,8.7-1.2,14.2-8.7.9-1.2,3.1-1.4,2.2-4.4,2.4.3,4,.9,5.5,1.1Z"/>
  <path class="st1" d="M1122.3,277.8c-.6,2.8,1.4,2.2,3,3,7.7,3.4,14.4,5.3,22.1,9-2,2.5-3.9,13.5-.5,14.1,3.5.7,3.6-3.8,5.5-5.3s4.2-1.9,5.9-2.3c1.3.7,4.3.9,5.7,2.2,3.8,4.4,18.3,9.5,4.1,10.9-3.6-6.5-20.4-7.2-19.6,2.2-7.9,1.4-19.7,4.8-27.3,7.6-4,.8-16.8-3.5-17.5-7.1-.9-4.8.3-5.5,4.4-6,1.6-.2,8.2.3,8.7-1.6,1-3.4-7.4-.9-8.7-.5v-5.5c6.9-.5,14.3-3.5,21.8-2.2,1.8-1.3,0-2-1.6-2.2-2.8-.4-6.3,0-9.3,0,4.1-4.7-2-8.9-2.2-9.5-1.6-7.4,1.1-4.9,5.4-6.9ZM1127.8,298.5l-14.2.5c3.7,3.7,13,6.8,14.2-.5Z"/>
  <path class="st1" d="M971.9,359.6c5.5-.6,9.3-4.3,15-5.2,17.8-2.6,31.4,5,45,15-10.4,12.1-5,.3-6.5-1.1-.7-.6-14-.4-15.9,0s-.4,2.3-5.9,2.3c-4,0-7.5-1.2-11.5-1.2-10.7.2-20.2,6.1-27.8,13.2-1.4-2-.1-3.3,0-4.4-.3,3.4.8,2.3,2.2.5,2.2-2.7,3.6-5.8,5.5-8.7l-6.5,2.7c.2-.6-.2-1.6,0-2.2.6-1.9,2.5-3.3,2.2-5.4l-9.8,3.3c-.9,3,1.5,1.8,2,2.3s-1.5,3.9-.9,5.3c-1,.8-2.9.5-3.7,2.5s1.3,6.5-.7,9.5c-6.9-5.8-14.1-12-22.9-15.3l7.6-8.7c.4,4,2.9,2.5,4.9,4.4s2.7,6.4,4.3,8.8c.9,1.4.1,2.6,2.8,2l-2.2-9.8,6.5,6.5c.8-4.3-4.3-13.8-7.1-7.6-2.3-2.8-2.2-4.5-6-5.4,4.5-6.5,13.1-2.2,20-4.3,2.6.9,1.4,4.9,1.8,5.3s3.4-.5,4.2.2,0,2.3.7,3.1c1,1.2,2.9.7,3.6,1.4s-.9,3.7,1.8,3c1.9-1.8,8.8-9.7,7.1-12-1.7-2.2-1.9,2.3-3.7,2.3s-5.3-.7-6.1-2.3Z"/>
  <path class="st1" d="M822.5,585.3c.8,10.4,2.4,21.3,0,31.6.7,0,1.5.1,2.2,0-9.3,17.4-17.8,35.7-19.6,55.6-1.6.3-1.5-1.9-1.8-3-9.8-30.1-4.5-59.2,17.1-82l1.1-1.1c.4-.4.7-.7,1.1-1.1Z"/>
  <path class="st1" d="M839.9,573.3c.5.1,1.8-.3,2.1,0,.7.9-.6,8,1.2,10.2l-4.4,3.4,3.3.6c-2.2,6.5,0,12.1,0,17.9.1,6.5.3,15.7-1.3,21.7s-2.5,3.3,1.3,2.9c-2.9,7-4.4,14.8-7.1,21.8-6.2-10.8-8.6-23.6-8.2-36-.3-.4-1.6,1-2.2,1.1s-1.5,0-2.2,0c2.4-10.3.8-21.2,0-31.6,5.2-4.9,8.5-7,14.2-10.9,2.3,1.6,3.8,1.9,3.3-1.1Z"/>
  <path class="st2" d="M839.9,573.3c-.5-.1-.9-.6-1.1-1.1.3-.2.8.2,1.1,0v1.1Z"/>
  <path class="st7" d="M943.5,867.8c4.4-9.1-1.4-20.5,2.5-29.1.2-.4,1.4-.5,1.8-1.1,1.2-1.7,1.3-5.1,4.4-4.6.1,5.5,1.5,7,6.5,8.7-1.1-9.3-6-16.1-5.5-25.7s2.7-8.2,3-11c.3-3.2-1.8-8.9-.8-12.7s4-3,4.8-2.9c3.1.5,5,8.8,6.4,10.5s6.1,2.1,6.2,5.1-1.8,4.4-2.1,6.7c-.4,4.2.7,10.3-.3,13.9s-4.7,6.6-6,9.3c-5,10.7-4.3,22.6-2.5,34-1.8-1.4-11-7.9-12.5-7.7-2.4.2-4.7,4.9-6,6.6Z"/>
  <path class="st6" d="M821.4,516.6c-.4,5.5.2,11.1,1.6,16.4.8-5.5,1.4-10.9,2.7-16.4l5.5,1.1c-1.1,8,2.5,19.7,6.7,26.5,1.4,2.3,10.4,11.6,9.6,12.7l-18,9.6c-14.3-12.7-21.7-30.8-20.2-50h12Z"/>
  <path class="st2" d="M1090.7,382.5c2.9,0,3.6-1.1,3,2.4-1.2,7.4-3.3,15.9,2.5,21.6-.3.3-.3,2.2-1.5,3.3-2.1,2.1-5.5,3.9-7.2,6.5,8.6-.9,16.7-5.8,23.5-10.9.7-.2.7.9.5,1.6-1.1,3.6-8.1,11.4-10.3,16.9-3.5,8.9-3.5,17.7-8.2,26.2l-2.5-7.3c-5.4-2.8,1.6-4.4.2-8.3-2.6-7.2-5.1,2-6.2,5.4-.8,2.4.9,3.1-3.4,2.6.3-1.3,1.4-8.4,1.1-8.7-1.6-.1-2.7,1.1-4.4,2.2-1.7,3.3-2.9,10.9-7.6,7.6.6-.8,1.6-2.3,2.2-3.3,3.3.5,2.6-3,3.6-4s1.6-.2,1.8-.3c1.1-2.1,6.8-12.9,5.4-14.2-2.1.2-5.3-1-6.5,1.1-.2.3.2.8,0,1.1-4.6-5.4,4.5-7,5.2-7.9s.1-2.8.8-4c1.5-2.5,4.8-4.3,3.7-8.1-2.3-7.5-15.3,11.4-17.3,9.1-.4-3.7,0-6.3,1.1-9.8,6.8-4.8,16.4-13.7,20.7-20.7Z"/>
  <path class="st2" d="M817,393.4c3.3.4,3.9,4.5,7.4,5.2,3,.6,5.1-.6,7.9-.9-.3,4,.3,8.4,1.4,12.2.3,1.1.3,3.3,1.8,3v-17.4c.9,0,2.4.1,3.3,0,1,3.8,3.1,6.3,6,8.7.6,0,.4-1,.5-1.1.8-.9,4.4-5.5,5.4-4.4s.9,7.2,2.2,8.7c-1.1,2.3-2.6,8.2-3.3,10.9h-7.6c-1.8,4,2.1,8.3,2.2,10.3s-3.3,2-3.3,3.9c-.3-.5-3.3-4.7-3.6-5.1-1.5-1.4-7.3-4.8-7.3-.9,0,7.1,4.8,15,4.4,22.3,1.4,1.8,2-.1,2.2-1.6.7-5.4,0-11.9-2.2-16.9l6.5,3.3c1.7,4,3,7.4,3.3,12-.1-.2-4-2.7-4.4-2.2-.3,1.5.4,7.3,0,7.6-.5.5-5.6-1.1-6.5,1.1-.8-2.7-4.4-9-4.4-12.5v-16.4c0-.4,1.4-1.1.6-2.7-1.5-3.1-2.3-1.4-2.8-1.1-.7.3-1.7,1.4-2.2,1.1-.9-3.9-5.4-5.4-8.7-6.5,0-7,.2-13.8,1.1-20.7Z"/>
  <path class="st1" d="M988.2,673.7c-.7-5.7-.7-21,0-26.8.2-1.6.2-3.4,2.2-3.8,6.4,11.8-2,29.6,2.2,40.9,1.9,5.2,9.6,8,7.6,15.8,1.7,0,2.2-5,2.2-6,0-3.1-1.1-5.5-1.1-8.1l2.2,7.1c2,2.2,2.1-.7,3-1.5,2.4-2.1,5.9-5.2,7.9-7.5s2.7-7,6.5-6.8c1.2,3.9-1.6,9.3-1.1,12.5.3,2.5,3.3,3,3.4,6.5,0,3.1-2.6,10.2-3.3,13.7-.2-1.2.9-3.5-1.1-3.3-1.9,20.3-13.9,10.1-26.2,13.1.5-3.1.7-5,4.4-4.4.9-.8-3.3-5.3-3-8,.3-2.1,7.3-10.5,5.2-11.6s-2.4.3-3.6,0,0-3.6-5.2-1.1c-.6-.6.4-14,0-16.9-.4-2.3-2.1-3.6-2.1-3.8Z"/>
  <path class="st2" d="M1003.5,370.5c5.5,0,3.7-1.9,5.9-2.3s15.2-.6,15.9,0c1.5,1.4-3.9,13.2,6.5,1.1,1.5,1.1,3.2,1.8,4.4,3.3-.3.3-1,1.8-1.1,2.2-.3,1.6-1.4,11.4-1.1,12.3s2.6,2.3,3.3,3c-1.3,7.5-1.4,9.5,5.4,4.4,1.2,12.1-.8,23.3-3.3,34.9-5.1-3-1-7.9-7.6-6.5-1-15.3-7-35.7-19.1-45.8-3.2-2.7-6.5-3.8-9.3-6.5Z"/>
  <path class="st6" d="M886.8,347.6c7.4,1.6-.1,7.7,1,12.6l4.5,12.5c-16.1,5.1-32,19.7-39.3,34.9-1.3-1.6-1.9-8.4-2.2-8.7-1.1-1.2-4.6,3.5-5.4,4.4-.3-3.6-2.2-6.1-4.4-8.7,4.4-3,.9-8,.1-12.7-1.2-6.9,1.5-10.7-7.7-13.5.2-2.5.8-4.3,1.1-6.5,4.8-.9,4.4,6.1,9.8,4.4-.2,4.4-.2,9.3,0,13.6.1,2.7-.8,3.6,2.2,1.6,0,1.8-.4,10.5,0,10.9s3.3-.2,4.4,0c-1.1-7.2,2.2-3,6.3-4.7,2.6-1.1,4.8-7.1,6-8.8,5.7-8.3,8,.2,11.6-2s2.2-13.6,4.5-16.7c-.6-1.9,1.8-7.9-2.2-7.1,3.6-2,6-3.5,9.8-5.5Z"/>
  <path class="st1" d="M1038.4,685.7c.1.4,1.6,1.3,2,2.9s-.1,6.3.2,6.9,1.3-1,2.7-.1c2.2,1.4,2.6,4.2,3.8,5.6,0,1.8,0,3.6,0,5.5,14.2,6.8-1.3,24.7,13.1,28.4-5.6,10.5-17.3,9.3-26.2,3.3l2.2-10.9c-3.8-.5-5.9,2.5-8.7,4.4-3.2-5.1-5-10.6-6.5-16.4,2.9-1.8,6.5.6,9,0s4.4-8.5,10-8.8,2.8,5.2,7.1,3.3c0-1.1,0-2.2,0-3.3-1-.5-3.8-.6-4.2-1.3-.8-1.4.7-6-2.9-7.5-3.3-1.3.4,5.7-3.8,4.3,0-1.4,0-2.9,0-4.4.1-4.3,1.8-7.8,2.2-12Z"/>
  <path class="st9" d="M1020.9,413c4.1,20.1,1.2,44.4-7.1,63.2-3.3,7.6-4.2,9.3-13.6,7.1,4.6-12.6,9.6-25,11.9-38.3.7-4.2,2.2-13.6,2.2-17.4,0-.5-1.7-.5-2-1.3-.8-2.5-1.3-5.7-2.3-7.9,2.5.3,5.7-.5,8,0s0,3.2,2.9,2.2v-7.6Z"/>
  <path class="st0" d="M920.6,562.4c.3,1.9-.7,11.8.6,12,6.8.9,1.8-8.3,2.7-12,4,.2,8.1,1.3,12,2.2l1.1,8.7c4.1.9,1-5.5,3.3-7.6,6.4,1.6,6,1.2,13.1,1.1-.5,2.5.8,6.6,3.8,6.6s.7-5.5,2.7-6.6c.4,0,.7,0,1.1,0,8.4,0,15.4-.3,22.9,4.4-.2.3.1,1.6,0,2.2-16.7,1.7-37.4,3.2-53.9,3.3-11.6,0-27.2-3.2-37.7-2.2-.7-4.4,6.5-2.6,7.6-3.3-2.9-4.1,3-1.9,3.3-2.2-.5,6.3,4.9,4,3.3-2.2,5.1-2,7.9-3.9,14.2-4.4ZM917.3,571.1c-1.9-3.8-5.9-4.8-9.8-4.3l3.3,1.1-1.1,3.3h7.6Z"/>
  <path class="st6" d="M1034,233.1c6.4.3,11.2,1.3,17.4,2.2l-11.4,6.5-2.7,4.4h23.4c4.1,0,4.6-.9,8.2,2.7-3.1,2.5-7,4.6-10.9,4.9-.5,1.9,1.9.7,2.2,1.1s0,3.3,0,4.4c.1,2.2,0,4.4,0,6.5-1.6-.7-4.3-.3-5.5-2.2-.8-1.3-.1-5.2-4.4,0h-1.1c-.3-1-1.3-1-2.2-1.1,5.9-3.9.4-2.6-1.9-3.6s-2.4-3.8-3.3-4c-7.2-1.5-4,4.7-8.6,5.1s-3.6-3.5-3.7-7.3c-4.7-1.4-3.3,2.4-6.5,2.2-3.6-13.1,7.9-9.7,9.3-11.9s0-7.4,1.6-9.9Z"/>
  <path class="st9" d="M978.4,416.3c2.8.6,5.8,3.5,9.8,2.2-9.4,13.6-9.9,40.5-10.9,56.7-10.7,1.2-5.8-8.9-5.4-15.8s-.5-13.2,0-13.7,4.6,1.2,4.4-1.1c-7.9.9-4.9-5.1-5.5-10.4-.5-4.8-1.8-14.8-3.3-19.1,3.9-.4,7.2.3,10.9,1.1Z"/>
  <path class="st2" d="M907.5,338.9c2.3,1.6,4.1,9.3,4.5,9.7s5.4.1,6.2,1.5,0,2.5.4,3.4c1.1,2,3.6,1.5,3,4.1-6.1-1-4-3.1-5.7-4.1-1-.6-2.7,0-3.7-.6s-1.9-3.8-4.1-4.1c-6.6-.8-2.8,3.3-3.8,4.4s-8.7-1.9-7.7,3.8,3.4,1,4.2,3.5c1.5,4.9-2.9,10.6,4.6,9.1-.2-3.1-.6-9.7,3.8-9.8s.5,1.8,1.9,2.6c4,2.3,10.4,2.9,11.8,8.3-9.1-.9-21.9-.6-30.5,2.2l-4.5-12.5c-1.1-4.8,6.4-11-1-12.6,8-4.1,11.7-6.3,20.7-8.7Z"/>
  <path class="st2" d="M1065.6,515.5c-1.5-2.4-1.9-7.1.4-8.8s3.1-.6,4.1-1.1.9-1.9,1.6-2c1.6-.4,3.4.3,5,0s3.3-4.8,5.7-5.4c3.7-.9-.8,6.5,3.8,5.4-.8,2-4.3,10.7-3.2,11.9,5,1.8,9.2,0,14.1-1,.6.6-3.8,13.1-4.4,15.3-1.6-.6-4.9-4.4-6-4.5-3.5-.2-2.5,2-3.5,2.3-3.3.8-8.3-1.4-11.2,1.1-3.2-3.7-6.5-7.3-9.8-10.9.7,0,1.5,0,2.2,0,5,0,8.8-.6,12-4.9.2-2.8-.4-1.1-1.9-.8-2.4.5-7.2,2-9,3.6Z"/>
  <path class="st9" d="M959.9,431.6c.4.1,3.2,1.4,3.3,1.8,1.5,13.7.9,27.4,0,41.2-2,.2-11.3,6.6-11,2.3.2-2.5,1.1-4.7,1.2-7.6.2-9.8-1.3-28.6-4.4-37.7,1.9-4.4,3-.7,6.1,0s3.6-.3,4.8,0Z"/>
  <path class="st6" d="M942.4,346.5c-.2,2.2-1.8,3.9-2.1,6.1-.4,3-.9,7.2-1.1,10.3s0,.7,0,1.1l-7.6,8.7c-.8-.3-3.1-.8-4.4-1.1l-3.3-1.1c-.4,0-.7,0-1.1,0-1.4-5.5-7.7-6-11.8-8.3-1.3-.8-1.2-2.6-1.9-2.6-4.4.1-4.1,6.7-3.8,9.8-7.5,1.5-3.1-4.2-4.6-9.1s-4-2.6-4.2-3.5c-1.1-5.7,7.1-3.2,7.7-3.8,1.1-1.1-2.8-5.3,3.8-4.4,2.2.3,2.9,3.3,4.1,4.1s2.8,0,3.7.6c1.7,1-.3,3.1,5.7,4.1s.7,0,1.1,0c-.1,2.8,7.1,7.8,8.7,6.5.2-.7-.2-1.8,0-2.2,3-5.5,5-10.8,7.6-16.4.9.4,2.1.6,3.3,1.1Z"/>
  <path class="st2" d="M841,394.5c-.2.1-2.1,1.1-2.2,1.1-.9.1-2.3,0-3.3,0s-2-1.5-3.3-1.1c0,1.1,0,2.2,0,3.3-2.8.2-4.9,1.5-7.9.9-3.5-.7-4.1-4.9-7.4-5.2.6-4.9,2.4-9.4,3.2-13.7.7-3.7-1.9-8.2,2.8-9.2,3-.6,1.2,3.8,1.6,5.8s1.6.6,2.1,1.7-.2,2.3.4,3.1,5.4,5.7,6.2,4.7c.3-5.7-.4-11.7,0-17.4,9.2,2.9,6.5,6.6,7.7,13.5.8,4.7,4.3,9.6-.1,12.7Z"/>
  <path class="st2" d="M946.8,224.4c-1,1.1-9.3,15.9-9.8,17.4-1.8,3.1-5.8,3-9,4.4s-.7,1.7-1.1,1.8c-2.1.9-6,.7-8.4,2.5.3-2,1.9-4.2-2.2-2.2-.5-.2-2,.2-2.2,0-.5-.8,1.2-4.2-2.2-5.1v-1.4c9.3-7.4,17.9-12.8,28.3-18.5l6.5,1.1Z"/>
  <path class="st11" d="M858.4,561.3c-5.8-6-24.2-16.1-12.4-24.9,5.4-4,15-2.1,15.7,4.7.3,2.6-.3,10.4-4.4,10.4,0-.3-2.6-2-2.1-4.9h-7.7s5.5.6,5.5.6l-2.2,5.4h6.5c.5,1.3-1.3,4.6,2.7,3.3s7.4-10,8.2-10.4c2.6-1.4,3.5-.5,5.5.6l-4.4,1.7c2.9,4.1-1.2,3.9-1.1,4.3,1.4,4.1,6.3-1.1,8.7-1.6.5.7,2.6,1.2,2.2,3.3-5.4,1.5-15.5,5.3-20.7,7.6ZM860.6,539.5c-.2-.2-4.5-.4-5.6-.4s-7.1,0-7.5,1.5c2.3-.9,12.6,2.7,13.1,2.2s.1-3.1,0-3.3Z"/>
  <path class="st1" d="M911.9,638.8c-4.3-.6-1.4,6.7-2.2,8.7,5.6,1.4,9.5-2.6,13.9-4.1,3.2-1,10.1,1.1,9-4.7,2.9,10.7,4.4,21.9,6.5,32.7l-1.2.7c-.4-3.4-4.4-4.7-5.7-7.2-2.7-5-2-22.4-11.1-16.5-3,1.9-3.7,9.6-9.2,9.9,0,0-1.5.2-2.2-.8-4.6-6-8-11-6-18.9,1.9-8,4.4-2.6,8.2,0Z"/>
  <path class="st7" d="M982.8,851.4c.9,9.8,1.2,19.3,1.1,29.4-3.1-1.4-5.1-1.2-6.5,2.2-.9-1.1-10-9.2-12-10.9-1.5-3.8,1.4-8.2,1.6-10.4s-.8-4.2-.6-6.6c.4-5.2,2-10.3,1.2-15.8,1.6-.2,2,2.8,2.1,3.9.5,4,1,9.1,1.3,13,.3,4.2-3.3,9.8,5,10.2,2.8.1,7.9-11.8,6.9-15.1Z"/>
  <path class="st2" d="M988.2,673.7c0,.2,1.8,1.6,2.1,3.8.5,2.9-.5,16.2,0,16.9,5.1-2.5,3.9.7,5.2,1.1s3-.3,3.6,0c2.1,1.1-4.9,9.5-5.2,11.6-.3,2.7,3.9,7.2,3,8-3.6-.7-3.8,1.3-4.4,4.4-1,.2-4.9,1.8-5.5,2.2-3.6-5.5,1.7-12.3,1.2-18-.2-1.9-1.9-1.6-2.2-2.4-2.4-6.7-4.1-19.2,0-25.3s3,.5,2.2-2.2Z"/>
  <path class="st7" d="M1091.8,297.4c5.5.8,10.5,1.6,16.4,1.1v7.6c-4.1.5-5.3,1.2-4.4,6,.7,3.6,13.5,7.9,17.5,7.1-6,2.2-12.3,4.8-16.4,9.8.1-.6,0-1.5,0-2.2-17.3,4.2-5.1-8.9-5.8-16.8-.3-4.2-5.1-6.3-5.1-6.7-.2-1.8,3-2.3,3.2-3.8h-8.7c.3-2,2-1.7,3.3-2.2Z"/>
  <path class="st1" d="M1116.9,355.2c5.7-2.2,13.1-2.7,19.1-2.2,2.1.2,15,3.6,15.8,4.4,2,1.8-.7,1.8-1.5,2.3-10.5,5.4-18.9,10.2-29,16.3-.7-8-.6-13.2,8.7-10.9,1.8-5.2-6.2-5.1-6.5-5.5s.4-4,0-4.4-5.4,0-6.5,0Z"/>
  <path class="st7" d="M933.7,847.1c2.1-13.2,2.5-26.8,2.2-40.3,3.3.6,2.1-1.7,2.2-3.8.3-4.2-.2-8.6,1.6-12.6,8,7.6,6.9,18.4,4.4,28.3-.5,2.1-2.2,4.2-2.9,6.9-1.9,7.3-1.3,16.2-7.5,21.4Z"/>
  <path class="st1" d="M1088.5,464.3c1.7.4,5.6,0,7.6,0,0,4.4,5.1,5.3,5.5,9.8-3.2,5.2-8.5,13.6-10.9,18.5-1.1-5.5-5-7.7-7.6-12,3.1-2.2,2.5-8.7,3.1-12.7.3-2-.9-4.2,2.3-3.6Z"/>
  <path class="st2" d="M832.3,459.9c-3.9-.2-3-.6-3.3,2.7-.4,4.1-.5,9.8,1.1,13.7-2.1-1-4.8,3.2-6,1.1-2.5-4.2-5.6-24.9-6-30.6,5.2-.8,3.4-6.4,7.6-8.7.4,7.3,3.6,15.1,6.5,21.8Z"/>
  <path class="st1" d="M1102.7,254.9c-2.8,1.3-.5,2.2,1.1,2.9v1.5c-5.9-1-11.4-3.2-17.4-3.3l4.4,2.2-2.2,3.3,9.8,1.1-5.4,3.2c2-.2,4.7.4,6.5,0,2.7,1.1-.2,3-1.4,3.6-2.3,1-14.1-1.4-15.7-3.9-.7-1.1,0-2.8-.6-3.7s-9.4-6.4-11.3-6.8-4.8,0-7,0c9.3-2.9,21.3-2.8,31.1-2.2,3,.2,6.2,1.9,8.2,2.2Z"/>
  <path class="st7" d="M942.4,868.9c-7.8,10.1-13.3,22.3-18.5,33.8,0-2.2-1-4.3-1.1-6.5s2.4-17.2,4.4-17.4.6.9,1,1.1c2.8-7.7,4.4-16.2,9.3-22.9l4.9,12Z"/>
  <path class="st2" d="M1116.9,355.2c1.1,0,6.3-.2,6.5,0,.4.4-.4,4,0,4.4s8.3.3,6.5,5.5c-9.3-2.2-9.5,2.9-8.7,10.9-1.3.8-2.2,2.4-4.4,2.2-.3-1.5-1.7-2.3-2.2-3.3-1.6-3-4.5-11.3-6-13-3.4-3.6-10.7-2.6,1.7-5.5s3.5-1,6.5-1.1Z"/>
  <path class="st6" d="M833.4,452.3c.9-2.2,6-.6,6.5-1.1s-.3-6.2,0-7.6c.4-.5,4.2,2,4.4,2.2s2.1,4.1,2.2,4.4c.6,1.6,3.2,20.3,3,21.3-.5,2.5-5.5,1.2-7.3,1.6-1-2.7-2.5-8.3-4.3-10.2s-1.9-.5-2.3-.7c-1.9-2.9-1.4-7.1-2.2-9.8Z"/>
  <path class="st1" d="M1080.9,442.5c4.3.5,2.6-.1,3.4-2.6,1.1-3.4,3.6-12.6,6.2-5.4s-5.6,5.5-.2,8.3l2.5,7.3c-2.2,3.9-2.2,3.7-5.5,7.6-.2-5.9-9.4.3-7.6,5.5-.9,0-2.9,1.5-4.4,1.1-.6-4.8,1.3-9.3,3.1-13.7l-1-.5c.4-.6.7-1.5,1.1-2.2s1.4-1,1.7-2.1.3-2.3.5-3.3Z"/>
  <path class="st1" d="M815.9,414.1c3.4,1.2,7.8,2.6,8.7,6.5.4.3,1.5-.8,2.2-1.1-.4,6.3-1.4,12.1-1.1,18.5-4.2,2.3-2.4,7.9-7.6,8.7,0-.3-1.3-1-.9-3.5.6-3.6,3-2.8,3.1-3,1.5-2.3-1.6-2-2.2-2.9-3.4-5.4-2.3-16.6-2.2-23.2Z"/>
  <path class="st6" d="M1072.2,528.6c3-2.5,7.9-.3,11.2-1.1,1-.2,0-2.5,3.5-2.3s4.4,3.8,6,4.5c-1.2,4.6-2.3,12.6-4.4,16.8-1.5,3-2.6-1.2-3.3-2-4.5-5.2-8.6-10.7-13.1-15.9Z"/>
  <path class="st6" d="M1037.3,682.4c.3,1.1.7,2.2,1.1,3.3-.4,4.2-2.1,7.7-2.2,12l-3.7,9.9c-1.3,0-10.6,5.6-9.3,1.6,1-3.1,3.6-7.9,4.3-11,1.6-7.1-.7-3.5,3.4-10,2.4-3.7-1.7-7.1,6.5-5.8Z"/>
  <path class="st2" d="M983.8,625.7c.2,5.8,2.2,16.3-6.5,15.3-.4-4,.5-8.5,0-12.5-.8-5.3-6.5-12,.6-17,5.9-4.2,5.9,11.4,6,14.2Z"/>
  <path class="st2" d="M914.1,636.6c.6-6.3,9.6-.2,12.6.1s1.9-2.5,4.9-2.3c.5,1.3.7,2.9,1.1,4.4,1.2,5.8-5.8,3.6-9,4.7-4.5,1.4-8.3,5.4-13.9,4.1.8-2-2.1-9.4,2.2-8.7,1.5,1,2.6,2.5,4.4,2.2.7-.7-1.5-3.5-2.2-4.4Z"/>
  <path class="st2" d="M838.8,342.1c4.1-1.2,4.2,4.5,7.6,4.4-1.9,6.6-1.9,12.9-2.2,19.6-5.4,1.7-5-5.2-9.8-4.4.9-7.2,2.5-12.8,4.4-19.6Z"/>
  <path class="st2" d="M975.1,658.4c-4.2,1-6.1,5.8-8.1,8.9s-.1,2.6-2.8,2c-.1-1.9-.1-3.8.3-5.7.7-3.4,3.2-9.2,4.4-13.1,2.1-7,5.6-12.5,4.1-20.4,5.4,12.2,2.4,16.6,2.2,28.4Z"/>
  <path class="st7" d="M1047.1,700.9c5.7,6.5,13.1,16.1,15,24.8,1.1,5.1,0,5.3-1.9,9-14.4-3.7,1.1-21.6-13.1-28.4,0-1.8,0-3.6,0-5.5Z"/>
  <path class="st6" d="M1014.4,639.9c.3-2-.2-4.4,0-6.5l4.3,6.5c1.5-7.9-3.8-13.6-4.4-21.2,0-1.2-.1-14.8,3.3-11.5,3,2.9,2.9,32.2,5.5,38.2-.4-.4-3.1,1.2-2.2-3.3-7.2,3.1-1.8-1.9-6.5-2.2Z"/>
  <path class="st7" d="M1114.7,374.9c.5.9,1.9,1.8,2.2,3.3.7,3.8-2.8,4-4.3,6.3-1.4,2-4,5.2-4.4,5.7-2.4-4.4-6.5-5-10.9-4.9,4.2-5.5,10.1-10.6,17.4-10.4Z"/>
  <path class="st5" d="M905.3,553.7c.4.5-.9,3.2,3.3,2.2-18.3,4.8-36.5,14.2-53.7,21.9-1.1.5-1.4,3.5-5.2,2.1l24.7-14,28.7-12.1c.4,0,.8,0,1.1,0s1-.1,1.1,0Z"/>
  <path class="st1" d="M832.3,459.9c1.1,2.4,2.4,1.7,3.3,2.2s1.2-.5,2.3.7c1.8,1.9,3.3,7.6,4.3,10.2-4.1.7-8.1,1.8-12,3.3-1.6-3.9-1.5-9.5-1.1-13.7.3-3.3-.6-2.9,3.3-2.7Z"/>
  <path class="st1" d="M922.8,620.2c3.6,4.7,6.7,8.5,8.7,14.2-3-.2-1.3,2.7-4.9,2.3s-12-6.4-12.6-.1c-1.4-1.7-5.2-3.1-5.5-6,1.8-1.9,2.8,1.7,4.9,1.7s.4-2.1.5-2.2c1.3-1,8,4.1,8.7-3.9.2-1.9-2.2-4.7,0-6Z"/>
  <path class="st1" d="M849.7,418.5c-2.6,10.3-3.7,21-3.3,31.6,0-.2-2-4.2-2.2-4.4-.3-4.5-1.5-8-3.3-12-.1-.3.1-.8,0-1.1,0-1.8,3.3-3.6,3.3-3.9-.1-2-4.1-6.3-2.2-10.3h7.6Z"/>
  <path class="st10" d="M934.8,477.4c-1.9-1.4-.4-16,0-19,1.7-10.3,7.1-6.4,6.3,3-.1,1.7-2.8,18.6-6.4,15.9Z"/>
  <path class="st7" d="M914.1,630l-7.6-8.7c1.6-1.5,9.1,8.6,12,7.1l-10.9-15.8c.5-.4,5.2,2,6.1,2.6,3,2.1,4.1,8.5,5.3-.5,1.7,1.5,2.5,3.7,3.8,5.4-2.2,1.3.1,4.1,0,6-.7,8-7.4,2.8-8.7,3.9ZM920.6,621.3c.8-1.5-.7-2.9-1.1-2.2-.8,1.5.7,2.9,1.1,2.2Z"/>
  <path class="st1" d="M983.8,233.1c3.4,5.3,9,9,9.8,15.8.5,4-6.7.9-7.6-1.7.3,0,5.4-2.6,4.4-4.4-2.8,0-6.2,0-8.7,1.1-5.3,1.2-6.4-4-8.7-7.6,4.3-1.9,7-2.1,10.9-3.3Z"/>
  <path class="st0" d="M923.9,490.4c-.3.3-3.4.2-3.8-1.1-1.1-10.7-7.8-20.7-3.8-31.6l3.9,10.8c-1,3.6,5.2,20.4,3.7,21.9Z"/>
  <path class="st2" d="M965.3,372.7c-.6,2.3-.8,3-1.1,5.5-.1,1.1-1.4,2.3,0,4.4-1.4,1.3-5.2,7.2-5.6,7.4-2.6,1.6-3.1-1.1-4.2-2,1.9-3-.3-6.9.7-9.5s2.7-1.7,3.7-2.5c2.2-1.8,4.3-3.8,6.5-5.5-.2.6.2,1.5,0,2.2Z"/>
  <path class="st10" d="M997,458.8c-1.6-1.5,2.2-17.9,5.4-19.6-1.1,4.1,3.6,7.8,3.1,11.2-.1.9-2.7,8.8-3,9.1s-5.2-.5-5.4-.7Z"/>
  <path class="st1" d="M994.8,662.8c1.8.2,8.4,6.7,8.6,7.3.9,2.9-1.7,4.9-2,7.5-.3,2.2-.1,4.8,0,7-6.6-6.3-6.2-13.4-6.5-21.8Z"/>
  <path class="st1" d="M1079.8,463.2c-1.7-5.1,7.4-11.4,7.6-5.5-.5.5-1.1,3.3-3.3,4.3,1.7-.5,3.9,2.1,4.4,2.2-3.2-.6-2,1.6-2.3,3.6-.7,4.1,0,10.5-3.1,12.7-.9-1.5-1.2-3.6-3.3-4.4.2-.4,1.7-.7,2.1-1.9,1-3.3,2.5-11.3-2.1-11.1Z"/>
  <path class="st1" d="M957.7,241.8c.9-3.5-3.9-1.9-6.5-3.3,8.1-4.7,14.4-7.7,24-8.7.5,2.2-1.1,2.5-2.4,3.5-4.3,3.2-10.5,5-15,8.5Z"/>
  <path class="st7" d="M942.4,662.8c0-.6-2-2.6-1.1-4.4l2.2,1.1c.9-1.2-3.2-13.2-5.4-14.7l4.3.5-3.3-12c1.8-2.3,7.2,10.9,7.6,12-5.5-.3,0,6.7-.2,8s-1.5,2.4-1.7,3.7c-.4,2,1.1,8.9-2.4,5.8ZM943.5,649.7c.5-4.5-1.6-4.5-1.1,0h1.1Z"/>
  <path class="st7" d="M1147.4,289.8c4.6,2.2,8,4.8,10.9,6.5-1.8.4-4.6,1.2-5.9,2.3s-1.9,6-5.5,5.3c-3.5-.7-1.5-11.7.5-14.1Z"/>
  <path class="st7" d="M972.9,795.8c-4.2.3-6-.7-6.6-4.9-.8-5.6-1.2-11.8,5.5-12.6,0,5.4.5,12.1,1.1,17.4Z"/>
  <path class="st7" d="M952.2,634.4c-1.7-8-4.4-15.8-5.4-24,1.5-1.8,9.2,8.9,9.8,9.8-3.9,3.5-4.5,9.2-4.4,14.2Z"/>
  <path class="st7" d="M1168.1,309.4c-5.7.5-14.2,1.2-19.6,2.2-.7-9.4,16-8.7,19.6-2.2Z"/>
  <path class="st2" d="M1029.6,455.6c-.7,6.3-.5,12.5-2.2,18.9-.2.9-2.2.8-2.2,1.3,0,1.4,2.8,7.4,2.2,10.3-2.6-1.5-6.8-1.7-6.6-3.8l8.8-26.7Z"/>
  <path class="st10" d="M919.5,531.9c.2,6.7,4,16.8,10.9,8.7.3.6,0,1.7,1.1,2.2-1.5,1.9-.1,3.4-5.2,4.1-10.9,1.5-9.7-8.6-9-16.1,1.4-.2,1.7.9,2.2,1.1Z"/>
  <path class="st7" d="M1096.2,464.3c5.2-.2,8.1-1.5,13.1-2.2,1.2,1.2-6.9,10.8-7.6,12-.4-4.5-5.4-5.4-5.5-9.8Z"/>
  <path class="st1" d="M1114.7,256c1.5.3,2.9.8,4.4,1.1-1.7,3.3-4.4,8.8-7.7,10.2-3.4,1.4-9.5,3.4-8.6-2.6,3.4,2.1,7.7,0,9.3-3.3s-.8-6.1,2.7-5.4Z"/>
  <path class="st7" d="M1114.7,256c-3.6-.7-1.7,3-2.7,5.4s-5.9,5.4-9.3,3.3h-1.1c1.6-.5,7.6-2.3,7.6-3.8-1.4-2.3-3.5-1.3-5.4-1.6v-1.5c-1.5-.7-3.9-1.6-1.1-2.9,4.3.5,7.3.3,12,1.1Z"/>
  <path class="st10" d="M861.7,507.9c.1-1.6-.6-4.3.5-5.4,5.6,3.8,1.8,6.2,10.4,6.5-.2,1.8-1.9,4.1-2.2,5.5-4.3,2-5.5-5.2-8.7-2.2-1.2-2.7-.2-2.1,0-4.4Z"/>
  <path class="st1" d="M940.2,223.3c5.9-3.3,11.7-7.4,18.5-8.7-2.5,3.5-6.2,5.8-9.3,8.7-.8.8-2.6.9-2.7,1.1l-6.5-1.1Z"/>
  <path class="st2" d="M959.9,623.5c-2.7.6-4.8,11.9-6.5,14.2-.1-.7-.8-1.8-1.1-3.3-.2-5,.4-10.7,4.4-14.2,1,1.3,1.5,2.6,3.3,3.3Z"/>
  <path class="st7" d="M1027.5,731.5c2.8-1.9,4.9-4.9,8.7-4.4l-2.2,10.9c-3.8-2.6-3.8-2.1-6.5-6.5Z"/>
  <path class="st1" d="M983.8,880.9c0,4,0,8,0,12-3.5-1.3-5.2-8.2-6.5-9.8,1.5-3.3,3.4-3.6,6.5-2.2Z"/>
  <path class="st2" d="M1054.7,499.2c-1.1.4-5.1,2.1-5.4,3.3h10.9c-3.4,1.4-5.8,1.8-8.7,4.4-1.8-1.8-3.8-4-5.5-5.5,1.6-5.8,4-1.8,8.7-2.2Z"/>
  <path class="st1" d="M1036.2,676.9c-6.1-.9-7.1-6.4-7.6-11.7-.1-1.6,1-2.2,1-2.5,3.3,3.9,4.9,9.4,6.5,14.2Z"/>
  <path class="st1" d="M1014.4,233.1c-.2.9.8,1,1.5,1,4.3-.3,8-.9,12.6-1-5.4,8.7-9.7.8-17.4,2.2.1-2,2.5-1.7,3.3-2.2Z"/>
  <path class="st10" d="M944.6,548.2c-1.7,1.5-4.9,1.6-6.9,1.1s.2-3.4-4-1.1c-1.3-4.1,1.5-4.1,1.9-4.6s-.8-1.6-.8-1.9c7.1-1.6,2.1.1,4.2,2.7,1.4,1.7,3.6,2.9,5.6,3.8Z"/>
  <path class="st1" d="M923.9,902.7c-1.4,3.2-2.6,7.7-5.4,9.8.6-5,1.5-12.1,4.4-16.4,0,2.2,1,4.3,1.1,6.5Z"/>
  <path class="st10" d="M877,550.4c-2.4.5-7.3,5.7-8.7,1.6s4-.2,1.1-4.3l4.4-1.7c3.2,1.7,2.1,2.7,3.3,4.4Z"/>
  <path class="st6" d="M1011.1,630c.3,3.5.4,9.8,0,13.1-.5,3.4-1.8,4.4-3.3,1.1.8-5.5,1.7-10.8,2.2-16.4,1.1.3,1,1.3,1.1,2.2Z"/>
  <path class="st10" d="M857.4,551.5c.1.3-.1.8,0,1.1h-6.5s2.2-5.4,2.2-5.4l-5.5-.6h7.7c-.5,2.9,2,4.6,2.1,4.9Z"/>
  <path class="st7" d="M1011.1,630c0-.9,0-1.9-1.1-2.2.3-3-.2-6,.1-9.1s.5-6,2-6.1c-.6,5.5,1.4,12.4-1.1,17.4Z"/>
  <path class="st4" d="M929.3,413c1.4-5,2.2-11.4,1.1-16.4l3.3,1.1c-.8,2.2-2.9,5.7-2.1,8,.9,2.5,4.3.7,4.3,2.8l-4.4,5.5c-1-.3-2.1-1.1-2.2-1.1Z"/>
  <path class="st6" d="M1005.7,632.2c0-1.5,0-2.9,0-4.4,0-4.3,0-8.7,0-13.1,1.9-.3,1,2.5,1.1,3.8.2,4.1.8,10.1-1.1,13.6Z"/>
  <path class="st8" d="M983.8,571.1c.1-.2,3.6-2.2,3.8-2.2.7.3,3.1,2.9,2.8,3.2-2.2.2-4.3.9-6.5,1.1.1-.6-.2-1.9,0-2.2Z"/>
  <path class="st4" d="M967.5,414.1c1.3-.3,5.2.8,5.5-.7s-1-3.9,1.1-3.7l4.4,6.5c-3.7-.8-7-1.5-10.9-1.1-.1-.3.1-.8,0-1.1Z"/>
  <path class="st4" d="M1001.3,410.8c-.3,0-.8,0-1.1,0l1.6-6.6-.5,6.6Z"/>
  <path class="st2" d="M927.1,371.6c-1.2-.3-3.1-1.1-3.3-1.1l3.3,1.1Z"/>
  <path class="st3" d="M904.2,553.7c2.3-2.9,5.6.4,1.1,0-.1-.1-.7,0-1.1,0Z"/>
  <path class="st1" d="M1029.6,661.7c-.4-.3-.9-.6-1.1-1.1.8-.1,1,.4,1.1,1.1Z"/>
  <path class="st2" d="M820.3,587.5c.4-.4.7-.7,1.1-1.1l-1.1,1.1Z"/>
  <path class="st2" d="M859.5,191.7l-5.5,2.2c.6,1.1,2.1,2.6-.5,2.2s-12.6-4.5-13.6-5c-2.1-1.1-18.5-14.4-16.4-16.9,9.7,9.4,21.7,18.4,36,17.5Z"/>
  <path class="st2" d="M1000.2,187.3l2.2-2.2-3.3-1.1c3.7,0,5.9-1.6,3.3-5l-18.6-9.2c7.6.7,23.5,2.1,23.8,11.8.1,4-3.7,5.7-7.4,5.7Z"/>
  <path class="st2" d="M920.6,151.3c.3,1.9-2.6,1.2-3.8,1.1-4-.3-7.9-1.9-12-2.2-8.9-.6-17.9,2.7-26.8.6,14.1-4.6,28.5-2.5,42.5.6Z"/>
  <path class="st2" d="M960.9,161.1l-28.3-7.1c7.8-4.2,21.9,1.9,28.3,7.1Z"/>
  <path class="st12" d="M996.4,178.6c.7.4.7.7,0,1.1v-1.1Z"/>
  <path class="st6" d="M837.7,155.7c.7.4-.6,1.9-2.2,1.1s.6-1.9,2.2-1.1Z"/>
  <path class="st5" d="M1031.8,521c.4.4.7,1.6,1.1,2.2h-1.1c-3.5-3.1-7.2-5.8-10.9-8.7s-8.1-9.1-14.2-8.7c.3-2,5.3-2.2,6.5-1.7s16.5,14.8,18.6,16.9Z"/>
  <path class="st5" d="M979.5,530.8c-4.8-1.6-11.9-4.7-16-7.4-.8-.5-3.9-2.3-2.5-3.5,1.6-1.4,16.6,8.5,18.5,10.9Z"/>
  <path class="st6" d="M1032.9,523.2c2.5.6,4.7,2.8,4.9,5.4-1-2.1-4.9-2.5-5.8-3.5s0-1.8-.2-1.9h1.1Z"/>
  <path class="st6" d="M982.8,514.4c-.1-.1.2-1.4-.3-1.8-3.1-2.8-10.9-6.1-10.1-10.1,1.6.5,10.2,9,12,10.9s3.1,2.4-.5,2.2c-.4-.3-.7-.7-1.1-1.1Z"/>
  <path class="st6" d="M1041.6,530.8c-2.3.3-2.5.1-2.2-2.2l2.2,2.2Z"/>
  <path class="st2" d="M957.7,688.9c.2-2.5,1.9-4.3,2.8-6.6,1.2-3.1-1-5.2,3.8-4.4-1.3,7.5,5,12.8,6.5,19.6-4.5,1.1-6.8-1.8-9.8-4.4s-.9.2-1.1,0c0-1.6-.6-2.8-2.2-3.3,0-.3,0-.8,0-1.1Z"/>
  <path class="st2" d="M972.9,268c3.9.4,6.6,3.3,10.9,2.2-4.4,1.3-13.1,4.7-13.6,9.8,2.3-.8,4.9-1.3,7.1-2.2-2,1.9,1.6,7.2,3,7.6,4,1,6.7-2.5,5.7,4.4-1.4.9-3.6,2.8-4.4,4.4,1.4,0,3.2-.5,4.4-1.1,1.2.4,4.3,5,4.6,5.1,2.1.7,4.9-.5,6.3,1.4-3,.8-12.9,4.7-14.2,7.1s-.2,1.9.5,1.6c3.3-2.7,7.5-3.3,11.5-4.4,5,0,1.6,3.7,3.3,6.5-4.2,1.6-8.5,3.5-10.9,7.6,4.5-1.2,10.3-2.8,14.2-5.4,1.6,2.6,5.9,14.3,4.3,16.3s-2.6-.2-3.2,0l-13.1,2.2c3.7-4.1,10.2-5.9,13.1-10.9-3-.7-5.4,2.3-7.6,2.8-4.9,1.1-9.6.1-15.3,3.8-2.5-6.5-4.5-3.4-9.2-4.4s-2.8-2.2-6.4-2.1-7,1.3-7.3,1.5c-1.5,1.1-.5,3.8-1.3,4.7s-7.2,3.7-8.5,4.6c-1.2-1.2-6.8-3.6-8.7-4.4,0-1.9-3.1-5.5-4.4-6s-3.2.7-4.8.5c-5.6-.6-5.5-2.7-8.3-6.4,2.6-.2,4.5,3.2,5.9,3.4,3.5.4,8.8-1.7,10.8-1.1,3.9,1.2.8,7.9,5.8,8.3,2.8.2,5.9-4.2,8-6.2s3.3-1.1,5.5-4.4c.2,1,1.4,1.2,2.2,1.1,4.2-.8,12-16.3,12.1-20.2s-2-3.1-4.4-1.6c-2.3-3.2-2.7-10.5-7.6-8.2-.5,5.2,4.7,8.7-4.9,10.4l-1.6-4.4c8.7-12,8.4-14.4,20.7-24Z"/>
  <path class="st3" d="M938,326.9c2,.8,7.5,3.2,8.7,4.4s6.6,9.8,7.5,11.6,4,7.6,2.3,10.2c-2.6-.5-10.9-5.1-14.2-6.5s-2.3-.7-3.3-1.1c-9.3-4-15.2-10.2-26.6-8.6s-3.7,1.7-5,2.1c-9.1,2.5-12.7,4.7-20.7,8.7s-6.2,3.4-9.8,5.5c-6.6,3.7-12.5,8.6-19.6,10.9-4.6-1.4-5-6.1-5.5-10.4,2.9-3.9,3.9-14.8,6.6-17.5s1.9-1.1,2.2,0l-2.7,10.3c9.9-4.9,20.8-11.4,31.1-15.3,3.2-1.2,10-3.5,13.1-4.4,12.8-3.4,23.5-5,36,0Z"/>
  <path class="st1" d="M1001.3,268c2.4,0,5.9-.4,8,0s11.2,11.7,11.5,12.7c.6,2-.1,7.6.2,8,1,1,16-1.6,18.5,1.1-11.2-.5-22.6.4-33.8,0l4.4-6.5c-3.6-.2-7.6.3-10.9,1.7-1.7.7-2.7,0-2.2,2.7l.6,1.1c.3,0,.4-1.1.5-1.1,1-.1,3.8-.4,4.4.5-.6,1.2-9.6,5.3-7.6,7.1,16.6-2.3,33.6-5.8,50.2-1.1-5-.5-10.3,0-15.3-1.1l3.3,3.3c-11.5-.6-24.9.1-36,3.3-1.3-1.9-4.1-.7-6.3-1.4s-3.4-4.8-4.6-5.1c.9-.4,2-1.8,3.5-2.4s5-.6,5.2-1.4c.3-1.4.5-3.3-1.6-2.7s-6.7,3-7.1,3.3c.9-6.9-1.7-3.4-5.7-4.4-1.4-.4-5-5.7-3-7.6,5.6-2.1,11.4-5.5,17.5-7.1l-2.2-1.6c3.1-.5,4.9-1,8.7-1.1ZM1026.4,294.2c-3,0-6.2-3-5.4,1.1h5.4s0-1.1,0-1.1Z"/>
  <path class="st2" d="M877,353c4.1-.7,1.6,5.3,2.2,7.1-2.4,3.1-2.3,15.3-4.5,16.7-3.6,2.2-5.9-6.3-11.6,2-1.1,1.7-3.3,7.7-6,8.8-4,1.7-7.3-2.5-6.3,4.7-1.1-.2-4.1.3-4.4,0s0-9.1,0-10.9,0-2.2,0-3.3c3.9-3.4,2.2-12,7.3-14s2.8,0,3.6-.2c7.2-2.3,13.1-7.2,19.6-10.9Z"/>
  <path class="st5" d="M935.9,275.6c8.5-6.6,28.4-14.6,39-16.1,1.1-.2,6.8-1.4,5.7,1.3-.4.9-6.3,6.1-7.6,7.1-12.4,9.6-12,12-20.7,24s-5,6.4-8.2,7.6l4.9-7.6c6.2-7.3,9.1-17.2,16.4-24-8.9,2.1-18.2,3.5-26.2,8.2s-1.7,2.3-2.2,2.7c-5.5,4.2-14.4,10.1-19.1,15.3-1.5,1.6-2.6,3.6-3.8,5.5-1.9,1.5-3.1,1.4-1.7-1.1,2.1-3.4,19.5-19.9,23.5-22.9Z"/>
  <path class="st2" d="M901,301.8c-3.9,3.6-7.8,7.1-12,10.4.3,1.2,2.3.3,3.3.5s1.3,1.2,2.2,1.1c-2.5,1.3-11.1,7-13.1,8.7-.9-3.1-5.8-7.2-4.1-10.7s6.6-6.7,7-6.8c2-.4,4.4.4,6.3,0,3.3-.8,6.9-2.5,10.4-3.2Z"/>
  <path class="st2" d="M916.2,259.3c4.3,2.9,2.2,15.3,0,18.7s-8.2,5.1-9.8.9c2-2.3,5.7-7.2,1.1-4.4.2-.7.2-6.3,0-6.5,2.3-2.8,4.7-5.5,6.9-8.4s1.7-.2,1.8-.4Z"/>
  <path class="st5" d="M932.6,274.5c2.2.4-1.2,2.9-1.6,3.3-9.9,8.2-16.6,17-25.7,25.1-4.1,3.7-8.9,6.4-13.1,9.8-1-.2-3,.6-3.3-.5,4.2-3.2,8.1-6.8,12-10.4,6.9-6.3,13.4-14.1,20.7-20.2,3.5-2.9,6.8-5.1,10.9-7.1Z"/>
  <path class="st5" d="M918.4,250.5c-.3,2.2-.7,6.9-2.2,8.7s-1.4-.1-1.8.4c-2.3,2.8-4.6,5.6-6.9,8.4-.1-.2-1.9.5-2.2-.5,1.8-4.3,6.3-7.8,6.5-12.6-1.1-1.2-12.8,11.2-16.3,9.3,5.2-8.1,12.7-9.5,19.6-13.6l1.1-1.1c0-.4.1-1,0-1.1,4-2,2.5.2,2.2,2.2Z"/>
  <path class="st2" d="M932.6,274.5c.2-.1.9-1.8,2.2-1.1s.4,1.8,1.1,2.2c-3.9,3-21.4,19.5-23.5,22.9-1.5,2.5-.3,2.7,1.7,1.1-.4,3.3,0,3.7,3.3,3.3-1.4,1.4-2.5,3.6-4.3,4.9l1.1.5c-.1,0-.6,1.6-2.2,1.1.7-6.5-.8-3.4-3.5-4.4s-.8-2.8-3-2.1c9-8.1,15.8-16.8,25.7-25.1s3.8-2.9,1.6-3.3Z"/>
  <path class="st2" d="M893.3,319.2c5.3.6,3,8.8,8.7,7.6-3.1.8-9.9,3.2-13.1,4.4-3.7.9-3.7-2-5.5-4.4l9.8-7.6Z"/>
  <path class="st5" d="M846.5,378.1c0,1.1,0,2.2,0,3.3-3,1.9-2.1,1.1-2.2-1.6-.2-4.4-.2-9.3,0-13.6.3-6.7.3-13.1,2.2-19.6s1.2-3.5,1.6-3.3c4.7,4.1.9,6.5.6,9.3-.9,8.2-1.9,17.4-2.2,25.6Z"/>
  <path class="st5" d="M894.4,313.8c1.1-.5,9.3-4.1,6.5,0-.3.4-6.4,4.5-7.6,5.5l-9.8,7.6-12,8.2c3.1-3.6,6.4-9.5,9.8-12.6,1.9-1.8,10.6-7.4,13.1-8.7Z"/>
  <path class="st5" d="M1016.6,256c-8.7,1.7-18.3,8.3-26.8,9.7s-4,.9-3.7-1c3.8-.2,6.9-4.2,9.8-5.5,4.1-1.8,17.5-6.5,20.7-3.3Z"/>
  <path class="st5" d="M992.6,269.1l2.2,1.6c-6.1,1.5-11.9,4.9-17.5,7.1s-4.8,1.3-7.1,2.2c.6-5.1,9.2-8.6,13.6-9.8s6.2-.7,8.7-1.1Z"/>
  <path class="st3" d="M902.1,947.4c8.6-56.8,34.5-112.3,22.4-170.2-5.2-24.8-20.7-46.8-16.9-73.6l3.3-34.7c-7.3-5.6-16.3-15.6-16.4-25.3,0-7.6,4-9.3-3.2-15.3-9-7.5-23-5.1-33.7-9.2-9.7,18.5-14.5,38.7-19.7,58.8l-11.8-22.5-3.4-10.2c-.3-.3-1.3.6-1.6,1.1-6.2,9.8-10.4,45.9-12.9,59.1s-.1,5.3-1.8,5.3c-7.5-26.1-18.7-52.3-16.4-80.1,1.8-22.1,14.1-44.4,31.6-57.8-17.7-21-28.8-47.3-16.4-74.1,3.5-7.6,8.9-10.7,12.1-17.4-4.9-29.5-10.7-59.4-7.7-89.4,2.6-25.5,12.4-49.8,17.4-74.7l2,8.3c.3,2.8,0,5.6.3,8.5s.5,6,2,6.1c5.7-27.2,21.2-50.9,33.8-75.2,2.9-.3,1.7,0,2.2,1.6,1,3.4,1.6,7,2.7,10.4.4,1,.1,2.5,1.6,2.2,20.6-46.6,69.9-71.8,118.9-77.4l-25.1,21.8c32.1-5.8,65-5.3,97.6-5.4,1.3,1.1-3.5,3.1-4.2,3.4-3,1.6-6.1,3.4-9.4,4.2-.3,1.6,1.9,1.5,3,1.8,5.4,1.5,22.2,5.6,26.9,5.6s22.6-7.2,23.4-6.3c-1.5,4.8-7,8.2-10.4,12s-3.2,4.4-4.9,6.5c38.9-.2,73.2,15.7,107.9,30.6-.2,1.8-4.7,2-6,2.2-11.6,1-25.9.4-37,2.2-1.3.2-2.6.7-2.8,2.1,9.4,3.7,18.9,9.9,27.2,15.9,5,3.6,13.2,9.9,17.6,14.1,1.2,1.1,2.5,1.9,2.2,3.8l-67.6,9.8c1.6,4,13.6,3.7,15.3,5.5,2.7,2.7-9,3.4-8.7,5.4l18.5,1.1-15.3,7.6c4.4-2.4,32.8,13.6,31.6,15.3-18.7,7.3-39.1,15.5-52.3,31.1l16.3-5.5c-6.2,13.9-19,25.7-24.9,39.4-3,7-5.8,19.3-7.8,27.1-.6,2.2-.2,1.5,1.1,1.1,9.6-3,18.8-7.1,28.3-10.4l-36,60.5,13.1-2.7c-1.9,10.3-4.1,20.6-6.8,30.8-1.2,4.5-7.6,20.6-7.3,23.2s7.2,10.9,8.9,14c20.4,37.2,3.8,57.3-34.7,35.8-3.1-1.7-16.4-11.7-17.4-11.9s-16,3.6-17.1,4.3c-6.4,3.7-4.9,29.3-3.9,36.2,1.6,10.6,15.6,45.5,21.1,55.2,8.3,14.6,31.4,36.1,13.7,54-15.8,16-44.3,3-49.8-17-12.8,3-19.2-5.8-26.6,9.3-18.8,38.3,2.1,80.1,4.4,118.9,1.3,21.4-.2,44.6-1.1,66-8.8-10.6-14.1-23.8-22.9-34.3-2.4-2.9-14.6-15.5-17.8-14.7-4.4,4.7-7.9,11.5-11.1,17.3-10.7,19.6-19.5,40.3-30,60s-4.9,8.2-7.1,12c-.4.6-1,4.2-2.7,2.1s1.8-12.9,2.2-15.3ZM940.2,223.3c-10.5,5.8-19,11.1-28.4,18.5-15.4,12.3-27.3,26.5-35.5,44.7-2.9,6.5-4.5,13.3-7.6,19.7-1.8-1.6-4.9-21.2-7.1-19.6-8.9,18.5-17.4,35.7-22.9,55.6-1.9,6.9-3.4,12.5-4.4,19.6-.3,2.2-.9,4-1.1,6.5-.4,5.7.3,11.7,0,17.4-.8,1-5.8-4.1-6.2-4.7-.6-.9,0-2.4-.4-3.1-.5-1.1-1.9-.9-2.1-1.7-.5-1.9,1.3-6.4-1.6-5.8-4.7,1-2.1,5.5-2.8,9.2-.8,4.3-2.6,8.8-3.2,13.7-.9,6.9-1,13.7-1.1,20.7,0,6.7-1.3,17.8,2.2,23.2s3.7.7,2.2,2.9-2.5-.6-3.1,3c-.4,2.5.9,3.2.9,3.5.4,5.7,3.5,26.4,6,30.6s4-2.1,6-1.1c3.9-1.4,7.9-2.5,12-3.3s6.9,1,7.3-1.6-2.4-19.7-3-21.3c-.5-10.6.7-21.3,3.3-31.6.7-2.7,2.2-8.6,3.3-10.9,7.2-15.2,23.2-29.8,39.3-34.9,8.6-2.7,21.4-3,30.5-2.2s.7,0,1.1,0,2.1.8,3.3,1.1,3.5.8,4.4,1.1c8.7,3.3,16,9.5,22.9,15.3,1.1.9,1.6,3.6,4.2,2s4.2-6.1,5.6-7.4c7.6-7.1,17.1-12.9,27.8-13.2,4,0,7.4,1.1,11.5,1.2,2.8,2.7,6.1,3.8,9.3,6.5,12,10.2,18,30.5,19.1,45.8.8,11.4-.9,21.5-2.2,32.7l-8.8,26.7c-.2,2.1,4,2.3,6.6,3.8,6.5,3.7,12.9,10.2,18.5,15.3,1.6,1.5,3.6,3.7,5.5,5.5,3.7,3.5,7.4,7.2,10.9,10.9,3.3,3.6,6.6,7.2,9.8,10.9s8.6,10.7,13.1,15.9c.7.8,1.7,5,3.3,2,2.1-4.1,3.1-12.2,4.4-16.8.6-2.1,5-14.6,4.4-15.3-4.9,1-9.1,2.8-14.1,1-1.1-1.3,2.5-9.9,3.2-11.9,1.1-3,3.1-8.2,4.4-10.9,2.4-4.9,7.7-13.4,10.9-18.5.7-1.2,8.9-10.8,7.6-12-5,.7-7.9,2-13.1,2.2-2.1,0-5.9.4-7.6,0s-2.6-2.7-4.4-2.2c2.1-1,2.8-3.8,3.3-4.3,3.3-3.9,3.3-3.7,5.5-7.6,4.7-8.5,4.7-17.2,8.2-26.2,2.2-5.6,9.2-13.3,10.3-16.9.2-.7.2-1.8-.5-1.6-6.8,5.1-14.8,10-23.5,10.9,1.7-2.6,5.1-4.4,7.2-6.5,1.2-1.2,1.3-3.1,1.5-3.3,7.2-7.7,6.6-8.2,12-16.4.4-.6,3-3.7,4.4-5.7,1.6-2.3,5-2.5,4.3-6.3,2.2.2,3.1-1.4,4.4-2.2,10.1-6.1,18.5-10.8,29-16.3s3.5-.4,1.5-2.3-13.7-4.2-15.8-4.4c-6-.6-13.4,0-19.1,2.2-3.1,0-3.9.5-6.5,1.1-12.2,1-4.7-9.3,2.2-11.4-1.2-2.6-7-1.4-9.3-1.6-5.3-.6,4.9-5.9,6.8-5.8.3-2.8,7.1-2,5.8-4.5-1.5-3-9.1-1.2-12-1.7-.5-1.5,1.1-2.1,1.1-2.2,4-5,10.4-7.6,16.4-9.8,7.6-2.8,19.4-6.2,27.3-7.6s13.9-1.6,19.6-2.2c14.2-1.4-.2-6.4-4.1-10.9-1.4-1.3-4.5-1.5-5.7-2.2-2.9-1.7-6.3-4.3-10.9-6.5-7.6-3.7-14.4-5.7-22.1-9s-3.6-.2-3-3c4.2-1.9,7.1-3.9,11.9-5,3.2-.7,20.7-1.6,20.7-4.3-10.1-7.1-24-9.1-36-11.5-1.5-.3-2.9-.8-4.4-1.1-4.7-.8-7.7-.6-12-1.1s-5.2-2-8.2-2.2c-9.7-.7-21.8-.7-31.1,2.2-1.1,0-2.2,0-3.3,0-.2-.3-2.7.9-2.2-1.1,3.9-.3,7.8-2.5,10.9-4.9-3.5-3.6-4.1-2.7-8.2-2.7h-23.4l2.7-4.4,11.4-6.5c-6.3-.9-11.1-1.9-17.4-2.2-1.8,0-3.6,0-5.5,0-4.7,0-8.3.7-12.6,1s-1.7,0-1.5-1c.2-.1.4-1.1,1.2-1.5,3-1.6,15.2-5.5,2.6-5.1s-23.3,3.3-34.3,6.6-6.6,1.3-10.9,3.3c-5.1,2.3-10,5.1-14.2,8.7l-8.7,7.6c.8-4.5,4.2-8.2,7.6-10.9s10.7-5.3,15-8.5c1.4-1,2.9-1.4,2.4-3.5-9.6,1.1-15.9,4-24,8.7s-10.5,6.4-14.7,10.9c0-1.6.2-6.5.6-7.6s8.8-16.4,9.8-17.4,1.9-.2,2.7-1.1c3.1-3,6.8-5.3,9.3-8.7-6.8,1.3-12.6,5.5-18.5,8.7ZM865,406.5c-12.4,21.4-10.4,42.9-6.4,66.4,16.4,1.2,31.9,7.7,46.3,15.4-2.1-19.1-6.8-36.9-.2-55.8,1.2-3.4,6.7-11.8,9.5-14s13.1-5.5,15.3-5.5,1.2.8,2.2,1.1c7.7,2.3,14.8,9.9,17.4,17.4,3.2,9,4.6,27.9,4.4,37.7,0,2.9-1,5.1-1.2,7.6-.3,4.3,8.9-2.1,11-2.3.8-13.8,1.5-27.5,0-41.2,0-.4-2.9-1.7-3.3-1.8,4.3-2.6-.6-14.1-2.1-18-3.7-9.6-10.1-21.5-19-26.8-27.4-16.5-58.2-7-73.8,19.8ZM967.5,414.1c.1.3-.1.8,0,1.1,1.4,4.3,2.7,14.3,3.3,19.1.6,5.3-2.4,11.3,5.5,10.4.2,2.3-3.8.5-4.4,1.1s.2,11.3,0,13.7c-.4,6.9-5.3,16.9,5.4,15.8,1-16.2,1.5-43.1,10.9-56.7,2.3-3.4,8-7.2,12-7.6s.8,0,1.1,0c2.9.6,7.5,4.8,8.7,7.6,1,2.2,1.4,5.5,2.3,7.9.3.8,1.9.8,2,1.3,0,3.7-1.5,13.2-2.2,17.4-2.2,13.3-7.3,25.7-11.9,38.3,9.4,2.2,10.3.5,13.6-7.1,8.3-18.9,11.2-43.2,7.1-63.2-4.4-21.8-18.4-45.6-43.5-29.9-4.9,3.1-16.9,15.3-15.9,21.3.6,3.4,5.3,8,6,9.7ZM997,458.8c.2.2,5.2.9,5.4.7.4-.3,2.9-8.2,3-9.1.6-3.4-4.2-7.1-3.1-11.2-3.2,1.6-6.9,18-5.4,19.6ZM934.8,477.4c3.6,2.7,6.2-14.2,6.4-15.9.8-9.5-4.6-13.3-6.3-3-.5,3-2,17.6,0,19ZM923.9,490.4c1.4-1.4-4.8-18.3-3.7-21.9l-3.9-10.8c-4,10.9,2.7,20.9,3.8,31.6.5,1.3,3.5,1.4,3.8,1.1ZM809.4,516.6c-1.6,19.2,5.9,37.3,20.2,50l18-9.6c.8-1.1-8.2-10.4-9.6-12.7-4.2-6.8-7.9-18.5-6.7-26.5s5.6-13.3,12.5-16.4c20.9-9.2,41.1,2.5,59.4,12,19.2,9.9,37.1,22.1,57.1,30.7,29.6,12.8,60.8,18.3,88.3,36,11.5,7.4,24,19.9,37.6,23.5,31.5,8.2,10.8-27,2.9-38.8-11.4-17.1-25.4-32.5-39.7-47-5.7-5.8-24.1-25.1-31.2-26.1-5.2-.7-13.1,2.3-18.5,2.2-13.6,0-20.7-11.5-31.5-10.9-8.4.4-21.5,10.9-31,13.8-33.6,10.2-49.2-12.7-80.3-15-24.1-1.8-45.3,8.9-47.5,34.9ZM944.6,548.2c.8-.7,1.8-5.6,4.4-3.3s-3.4,9.7,6.5,7.6l-1.1-3.3c6.8-1.8,5.5,3.2,7.2,4.4,2.9,2.2,9.3,1.2,9.1-3.4-28.6-7.8-52.4-26.9-78.5-39.8s-42.6-18.2-53.5,0c-3.1,5.2,6.2,10.1,10.3,7.2s.5-2,.7-2.2c2.7-3.7,3.7-7.7,7.6-9.8.8,4.8-5.2,11.2-4.2,15.6s9.9,10,12.3,9.4c3.9-4.5,3.8-11.2,5-16.3.3-1.4,2-3.7,2.2-5.5.3,0,2.5-2.9,3.3,1.7,1.3,7.4-9.7,22.2-.8,27,2.1,1.1,17,3.5,18.3,2.5,2.4-1.8,1.6-22.6,11.9-16.5-5.2,4.1-11.5,13-4.3,18.5,2.2,1.7,10.7,1.8,11.9.6s-.5-11.2,4.4-11.9c-.7,7.6-1.9,17.7,9,16.1,5.1-.7,3.7-2.3,5.2-4.1,1.3-1.6,1.9-3.8,4.4-3.3.4.3-1,1.5-1.1,2.2s1.1,1.4.8,1.9-3.2.5-1.9,4.6c4.2-2.3,2.9.8,4,1.1,2,.5,5.2.5,6.9-1.1ZM858.4,561.3c-6.5,2.9-12.5,7.1-18.5,10.9s-.8-.2-1.1,0c-1.2.8-1.7,1.9-2.2,2.2-5.7,3.9-9,6-14.2,10.9-.4.4-.7.7-1.1,1.1s-.7.7-1.1,1.1c-21.6,22.8-26.9,52-17.1,82,.4,1.1.3,3.3,1.8,3,1.8-19.9,10.3-38.3,19.6-55.6.6-.1,1.9-1.5,2.2-1.1-.4,12.3,2,25.1,8.2,36,2.7-7,4.2-14.8,7.1-21.8,6.7-16.3,18.8-33.3,32.2-44.7s12.8-10.4,18-10.9c10.5-1,26.1,2.3,37.7,2.2,16.5,0,37.3-1.6,53.9-3.3,2.2-.2,4.3-.9,6.5-1.1.3-.3-2.1-2.9-2.8-3.2s-3.6,2-3.8,2.2c-7.5-4.6-14.5-4.3-22.9-4.4l-4.4-2.2,1.1-2.2h-4.4s2.2-2.2,2.2-2.2l-7.6,1.1,2.2-3.3-7.6,2.2,1.1-2.2-9.8,1.1,1.1-2.2-13.1,1.1,3.3-3.3-11.4,3.3,1.6-3.3c-2,.9-4.7.6-6.5,1.1-4.2,1-2.9-1.7-3.3-2.2,4.5.4,1.2-2.9-1.1,0-.3,0-.7,0-1.1,0-1.7-.1-6.3,1-6.5-1.1l14.2-2.2c.2-1.9-3.7-1.2-4.9-1.1-6.9.3-19.9,2.6-26.7,4.4.4-2.1-1.7-2.6-2.2-3.3-1.1-1.7-.1-2.7-3.3-4.4s-2.9-1.9-5.5-.6c-.8.4-6.4,9.9-8.2,10.4-4,1.3-2.2-2-2.7-3.3s.1-.8,0-1.1c4.1,0,4.7-7.8,4.4-10.4-.7-6.8-10.3-8.7-15.7-4.7-11.8,8.8,6.6,18.9,12.4,24.9ZM1042.7,584.3c-1.1-1.1-15.9-6.4-18.5-7.1-22.9-6-53.7,1-77.9,1.7-9.3.3-19.1.2-28.4,0-4.6-.1-9.1-1.9-14.2-1.2-2.8.4-21.1,11.4-21.2,12.6,3.5,2.3,8.8,2.7,12.9,3.5,49.9,9.3,96.9,3.7,145.8-7.3,1.3-.3,3.4-.3,1.6-2.1ZM1023.1,645.3c-2.6-5.9-2.5-35.3-5.5-38.2-3.4-3.3-3.4,10.3-3.3,11.5.6,7.6,5.9,13.3,4.4,21.2l-4.3-6.5c-.2,2.1.3,4.5,0,6.5s-1.4,4.3-1.1,6.5c-1.8.4-.7-2.1-2.2-3.3.4-3.3.3-9.6,0-13.1,2.5-5.1.5-11.9,1.1-17.4-1.5.1-1.9,4.9-2,6.1-.3,3.1.1,6.2-.1,9.1-.5,5.5-1.4,10.9-2.2,16.4-.2,1.7.2,3.7,0,5.4-1.6.2-2-2.9-2.1-3.9-.5-4.3,0-9.1-.1-13.5,1.9-3.6,1.3-9.6,1.1-13.6s.8-4.1-1.1-3.8c0,4.3,0,8.7,0,13.1-3.2.7-1.9-1.6-2.5-3.5-1.1-3.9-2.3-7.8-3-11.8l-3.3,5.4c-2.8-1.3-4.3-8.5-7.5-3.7s4.4,23.2,5.2,30.5c.7,5.6-.2,12.1,0,17.9.3,8.4,0,15.6,6.5,21.8,0,.4,0,.7,0,1.1,0,2.6,1.2,5.1,1.1,8.1,0,1.1-.6,6-2.2,6,2-7.9-5.7-10.7-7.6-15.8-4.2-11.3,4.1-29.1-2.2-40.9-2,.4-2,2.1-2.2,3.8-.6,5.8-.7,21.1,0,26.8.9,2.7-2.1,2-2.2,2.2l-2.2-50.2c-.1-2.9-.2-18.4-6-14.2-7.1,5-1.4,11.7-.6,17,.6,4-.3,8.5,0,12.5.6,5.5,2,11.4,2.2,16.9.4,9.6-.4,19.3,0,28.9-6.4-6.9-4.5-19.4-4.4-28.4.2-11.8,3.2-16.2-2.2-28.4-1.4-3.1-9.7-18.7-12.5-18.5-4.7.3,2,12.5,1.6,13.1s-1.9-1.2-2.2-1.1c-1.7-.6-2.3-1.9-3.3-3.3s-8.3-11.6-9.8-9.8c1,8.2,3.7,16,5.4,24,.3,1.5.9,2.6,1.1,3.3.3,1.5-.2,3.7.3,5.7,1.3,5.9,3.3,11.7,4.1,17.7l-2.2-.5-1.1,13.1-1.3-9c-2.4-5.9-4.1-13.8-6.3-19.3-.4-1.1-5.8-14.3-7.6-12l3.3,12-4.3-.5c2.2,1.5,6.3,13.5,5.4,14.7l-2.2-1.1c-.9,1.8,1,3.8,1.1,4.4.3,4.4.7,8.8,1.1,13.1s2.8,10.3-1.1,13.1c-1.3-5.8-2.1-11.6-3.3-17.4-2.1-10.9-3.6-22-6.5-32.7-.4-1.4-.6-3-1.1-4.4-2.1-5.7-5.1-9.5-8.7-14.2-1.3-1.7-2.2-3.9-3.8-5.4-1.3,9-2.3,2.6-5.3.5s-5.6-3.1-6.1-2.6l10.9,15.8c-2.9,1.5-10.4-8.6-12-7.1l7.6,8.7c-.2.1.4,2.2-.5,2.2-2.1,0-3.1-3.5-4.9-1.7.2,2.9,4.1,4.3,5.5,6,.7.9,2.9,3.6,2.2,4.4-1.8.3-2.9-1.1-4.4-2.2-3.8-2.7-6.3-8-8.2,0-1.9,7.9,1.4,12.9,6,18.9.7,1,2.1.7,2.2.8,1,1.1,1.4,3.1,3.5,4.7s5,1.7,5.2,2.5c-.2,2.8.3,5.7-.1,8.5-2.8,19.2-5.8,33-2.4,52.6,3.7,21.4,13.9,38.1,16.6,60.3.8,7,.9,12.7,1.1,19.6.4,13.5-.1,27.2-2.2,40.3-1.7,10.5-5.8,20.9-6.5,31.6-1.9.3-4.5,14.6-4.4,17.4-2.8,4.3-3.8,11.4-4.4,16.4,2.9-2.2,4-6.7,5.4-9.8,5.3-11.5,10.7-23.7,18.5-33.8.3-.4.8-.7,1.1-1.1,1.3-1.7,3.6-6.4,6-6.6s10.8,6.3,12.5,7.7,2.2,2.3,3.3,3.3c2,1.7,11.1,9.8,12,10.9,1.3,1.7,3,8.5,6.5,9.8,0-4,0-8,0-12,0-10.1-.2-19.7-1.1-29.4-1.8-19.3-7.6-36.9-9.8-55.6-.6-5.4-1-12-1.1-17.4-.1-14.9,2-32.1,8.3-45.7,1-2,5.6-9.9,6.9-11s4.5-1.9,5.5-2.2c12.3-3,24.3,7.2,26.2-13.1,1.9-.3.9,2,1.1,3.3.3,1.9.6,3.6,1.1,5.5,1.5,5.8,3.4,11.2,6.5,16.4,2.8,4.5,2.8,4,6.5,6.5,8.8,6,20.5,7.2,26.2-3.3,2-3.7,3-3.8,1.9-9-1.8-8.7-9.3-18.4-15-24.8-1.2-1.4-1.6-4.1-3.8-5.6s-2.7.2-2.7.1c-.4-.7.2-4.9-.2-6.9s-1.9-2.5-2-2.9c-.3-1.1-.7-2.2-1.1-3.3-.6-2-.7-4.4-1.1-5.5-1.7-4.8-3.2-10.3-6.5-14.2,0-.3,0-.8,0-1.1,0-.7-.3-1.2-1.1-1.1-1-2.5-4.9-14.7-5.5-15.3Z"/>
  <path class="st5" d="M906.4,278.9c-5.2,5.7-14.8,15.3-20.7,20.2-1.3,1.1-3.7,3.2-5.4,3.3-.2-9.1,26.3-24.3,27.2-27.8,4.6-2.8,1,2.1-1.1,4.4Z"/>
  <path class="st2" d="M915.1,250.5c.3-.2.6-.9,1.1-1.1l-1.1,1.1Z"/>
  <path class="st3" d="M965,505.4c-2.9,3.1-18.1,5.2-22.6,4.6.4-1.9,3.3-1.7,4.9-3.2,4.9-4.6-2.2-6.5-6-7.1,4.9-6.9,32.2-3.5,23.7,5.7Z"/>
  <path class="st5" d="M821.4,516.6c.9-12.1,6.8-18.7,18-22.9l-9.5,11.3c-2.4,3.6-3.2,7.5-4.2,11.7s-2,10.9-2.7,16.4c-1.4-5.3-2-10.9-1.6-16.4Z"/>
  <path class="st1" d="M959.9,693.3c-1-.8-2-2-2.2-3.3,1.6.5,2.2,1.7,2.2,3.3Z"/>
  <path class="st3" d="M996.9,287.6c-.5-2.7.5-2,2.2-2.7,3.3-1.3,7.3-1.8,10.9-1.7l-4.4,6.5c11.2.4,22.6-.5,33.8,0,11.1.5,26.6,2.7,37.1,6.5,2.2.8,5.2,3.8,7.6,4.4-5.5,7.5-6.7,5.5-14.2,8.7l-1.1-2.2c.8-.4,2.9.1,4-.8l8-4.6c-5.4-1.6-10.9-3.1-16.3-4.4-1.4-.3-3.1-.9-4.4-1.1-2.1-.4-4.4-.8-6.5-1.1-3.1-.5-5.5-.8-8.7-1.1-16.5-4.7-33.6-1.2-50.2,1.1-2-1.8,7-5.9,7.6-7.1-.5-1-3.3-.7-4.4-.5h-1.1Z"/>
  <path class="st1" d="M1104.9,278.9c2.7-1.2,4.8-1.3,7.6-1.1-.4,2.8.6,6.5,0,9.1-.1.4-5.8,4,0,7.3-4.6.2-8.5.5-13.1,1.1-3.1-1.3,3.3-.8,1.1-3.3-1.8-2-11.1-.3-14.2,0-2.1.2-4.5-.3-6.5,0v-2.2c9.1.2,18.2-.2,27.3,0-4.3-4-13-3.1-18.5-3.3-.1-.6.2-2,0-2.2,4.5-.5,9.1,3.5,8.7-3.3,1.1,0,2.2,0,3.3,0,4.4-.2,3.2-1.7,4.4-2.2Z"/>
  <path class="st3" d="M1030.7,263.6c5.9-.4,12.5,0,18.5,0h5.5c1.2,1.9,3.9,1.4,5.5,2.2s1.1,2.1,2.2,2.2c-4.9,1.7-9.6,2.8-14.2,4.4-2.6,0-3.8.7-3.3-2.2.9-.5,3.1,0,3.3-2.2-4.1,1.8-5.8-2.1-6.2-2.2-1.8-.4-4.8,0-6.9,0l-6.5-2.2c.7,0,1.5,0,2.2,0Z"/>
  <path class="st5" d="M1059.6,281.1c-.5,0-.3,1.3-1.6.6-3.2-1.8,6.8-4.7,8.2-4.9,5.4-.7,11.8.4,17.4,0s7-2.1,10.9-2.2,3-.6,2.7,1.1c-4.4.5-13,5.5-16.9,5.5-6.9,0-13.8,0-20.7,0Z"/>
  <path class="st5" d="M1103.8,259.3c1.9.3,4-.7,5.4,1.6,0,1.5-6,3.4-7.6,3.8s-1.9,1-2.2,1.1c-1.9.4-4.5-.3-6.5,0l5.4-3.2-9.8-1.1,2.2-3.3-4.4-2.2c6.1,0,11.6,2.2,17.4,3.3Z"/>
  <path class="st3" d="M1112.5,294.2c2.2-.1,4.4,0,6.5,0s6.5-.4,9.3,0,3.4.8,1.6,2.2c-7.5-1.4-14.9,1.6-21.8,2.2s-10.9-.3-16.4-1.1c.3-.1.7,0,1.1,0,.7-.2,1.4-.8,2.2-1.1,2.7.3,3.5-1,4.4-1.1,4.6-.6,8.5-.9,13.1-1.1Z"/>
  <path class="st5" d="M1086.3,286.5c.7,0,1.5,0,2.2,0,5.6.2,14.3-.8,18.5,3.3-9.1-.1-18.2.2-27.3,0s-5.1,0-7.6,0c-.5-.4.8-3.1,1.1-3.3,1.4-.5,10.4,0,13.1,0Z"/>
  <path class="st1" d="M1035.1,265.8c2.1,0,5.1-.4,6.9,0s2.1,4,6.2,2.2c-.2,2.1-2.3,1.7-3.3,2.2-2,1.1-4.5,2.6-6.5,4.4,0-3.7-7.6-2.6-6.5-8.7,1.1,0,2.2,0,3.3,0Z"/>
  <path class="st1" d="M1060.2,259.3c1.4.4,6.3,1.7,6.6,2.9,1.9,7.9-1.8,4.9-4.4,5.8-1.1-.1-1.9-2-2.2-2.2,0-2.2.1-4.4,0-6.5Z"/>
  <path class="st7" d="M1086.3,292c-4.9,3.5-7.7,3.5,0,4.4,1,3-1.3,3.1-2.2,4.4-2.4-.6-5.4-3.5-7.6-4.4h1.1c1.9-.5.7-3.5,1.1-4.4s.7,0,1.1,0c2-.3,4.4.2,6.5,0Z"/>
  <path class="st5" d="M1097.3,281.1c.4,6.8-4.3,2.8-8.7,3.3-.3-.3-2.3.6-2.2-.5,2.2-2,5.2-3.7,8.1-3.8s2.4,1.1,2.8,1.1Z"/>
  <path class="st5" d="M1028.6,263.6l6.5,2.2c-1.1,0-2.2,0-3.3,0-6.4.5-9.5,2-15.3,4.4,2.3-3.8,7.7-6,12-6.5Z"/>
  <path class="st5" d="M1136.5,264.7l-9.2,1c-2-.6-4.6-.2-3.9-3.2,4.9-.6,8.7.3,13.1,2.2Z"/>
  <path class="st5" d="M981.7,244c2.6-1.1,5.9-1.2,8.7-1.1,1.1,1.7-4.1,4.3-4.4,4.4-4.6,1-10.2-.7-4.4-3.3Z"/>
  <path class="st5" d="M1005.7,241.8c1.6,6.6-5,5.7-8.7,2.7,2.5-2,5.4-3.3,8.7-2.7Z"/>
  <path class="st5" d="M1044.9,270.2c-.5,2.9.7,2.2,3.3,2.2-4,1.4-9.3,3.7-12.5,6.5-1.9-1.9,1.7-3.5,2.7-4.4,2.1-1.7,4.5-3.2,6.5-4.4Z"/>
  <path class="st7" d="M1100.5,278.9c1.7-4.6,4.9-5.3,4.4,0-1.1.5,0,2-4.4,2.2v-2.2Z"/>
  <path class="st7" d="M1047.1,262.5c.9,0,1.9,0,2.2,1.1-6,0-12.6-.4-18.5,0,4.3-1.8,11.4-1.4,16.4-1.1Z"/>
  <path class="st1" d="M1086.3,286.5c-2.6,0-11.7-.5-13.1,0,2.9-1.8,10-1.9,13.1,0Z"/>
  <path class="st1" d="M1077.6,296.3l1.1-4.4c-.4.8.8,3.9-1.1,4.4Z"/>
  <path class="st1" d="M1026.9,286.5c.7.4.7.7,0,1.1v-1.1Z"/>
  <path class="st1" d="M1100.5,280c-1.2-.7-.1-.8,0-1.1v1.1Z"/>
  <path class="st1" d="M1009.5,235.3c.7.4.7.7,0,1.1v-1.1Z"/>
  <path class="st9" d="M872.6,435.9c.3,1.9-2.6,1.2-3.8,1.1s-6.6-.5-7.1-2.2l10.9,1.1Z"/>
  <path class="st9" d="M869.3,419.6c-1.2,2.2-6.5,1.7-8.7,2.2,1.3-3.4,5.8-2,8.7-2.2Z"/>
  <path class="st9" d="M877.2,440c2.2,1.3,6.2-.5,8.5-.8-.4,1.8-5.7,3.5-6.9,3.1l-5.1-5.3c2.7-.8,2.6,2.5,3.5,3Z"/>
  <rect class="st9" x="870.4" y="418.5" width="7.6" height="1.1"/>
  <path class="st9" d="M886.8,439.2v-1.1c2-.3,3.2,0,4.3,1.6l-4.3-.6Z"/>
  <path class="st9" d="M878.6,466.5c.6,1.5-3.5,3.8-4.9,3.8l4.9-3.8Z"/>
  <path class="st9" d="M882.4,465.4c.7.4-.6,1.9-2.2,1.1s.6-1.9,2.2-1.1Z"/>
  <path class="st9" d="M873.2,471.9c.7.4.7.7,0,1.1v-1.1Z"/>
  <path class="st5" d="M1047.1,385.8c1.5,13.3-2.2,28-2.2,41.4,3,.3,5.2-1.9,7.6-3.3.9-.5,2.6-2.2,2.7-2.2,4.4,0-1.8,15.2-2.7,17.4-3,7.4-7.2,14.2-10.9,21.3l5.4-.5c1.4,1.5-2.1,11.3-5.4,9.3l3.3-7.1c-1.2.8-6.6,2-6.5.5,2.1-5.3,4.3-10.6,6.6-15.8,1.1-2.6,8.3-15.5,6.5-17.4-4.7-.3-9.2,7.6-13.1,3.3,0-.7.9-2.1,1.1-3.3,2.4-11.6,4.5-22.8,3.3-34.9-6.9,5.1-6.7,3.1-5.4-4.4,1.2,1.1.6,2.9,3.3,2.2-.1-3.5,2.6-8.1,4.9-10.9.9.8,1.5,3.2,1.6,4.4Z"/>
  <path class="st2" d="M1052.5,423.9c-3.1-2.6,2.3-6.9,3.1-8.6.3-.6,4.3-13.1,6.7-10,2,2.7-5.9,17.7-4.3,19.6,3.3.8,1.1-2,3.7-2.3,1.7-.2,5.8-1,5,2.3-2.2.9-5.5,2.1-6.5,4.4h4.4s-.5,3.3-.5,3.3c1.5-.8,6.1-2.5,7.1-3.3l-2.1,5.9,1.1.6c-.7,1.5-1.4,2.9-2.2,4.4-1.9-10.8-5.4,1.2-8.2,2.2-1.9,1-1.5-2.2-2.2-2.2-1.9,0-3.2,2.9-4.8-1,.9-2.2,7.1-17.3,2.7-17.4s-1.8,1.6-2.7,2.2Z"/>
  <path class="st5" d="M1079.8,463.2c4.6-.2,3.1,7.9,2.1,11.1-.4,1.3-1.9,1.5-2.1,1.9-3,6.3-6.1,11.3-14.2,12l8.9-9c1.9-3.6,3.5-7.5,3-11.7-6.3,1.9-11.7,6.7-18.5,6.5l16.4-9.8c1.5.4,3.5-1.1,4.4-1.1Z"/>
  <path class="st2" d="M1038.4,432.7c3.8,4.4,8.4-3.6,13.1-3.3,1.7,1.9-5.4,14.9-6.5,17.4-.7-4.4-7-10.7-6.5-14.2Z"/>
  <path class="st5" d="M1060.2,502.4h-10.9c.3-1.2,4.4-2.9,5.4-3.3,8-2.8,16.8-3.5,24-8.7-2.2,7.4-12.1,9.3-18.5,12Z"/>
  <path class="st5" d="M1072.2,440.3c-.6.9-1.6,2.5-2.2,3.3-1.5,1.9-3.3,4.3-5.4,5.5-.1-3.2,1.9-6,3.3-8.7.7-1.5,1.4-2.9,2.2-4.4,1.7-3.5,4.5-8.7,6.5-12,.2-.3-.2-.8,0-1.1,3.6,5.9-1.3,12.6-4.4,17.4Z"/>
  <path class="st5" d="M1078.7,447.9c-.4.7-.6,1.6-1.1,2.2-1.9,2.5-7.3,8.1-9.8,10.4s-6.6,5.6-9.8,6.5c5.7-6.1,11.4-15.2,18-20.2s1-.6,2.7,1.1Z"/>
  <path class="st5" d="M1064.5,517.7c.4-.6.7-1.8,1.1-2.2,1.8-1.6,6.6-3.1,9-3.6s2.1-2,1.9.8c-3.2,4.3-7,4.9-12,4.9Z"/>
  <path class="st4" d="M904.2,384.7c.2,2.3-3.7.5-4.4,1.1s3.1,8,0,8.7l-2.2-12,6.5,2.2Z"/>
  <path class="st4" d="M896.6,396.7c.3,2.1-2.2.6-3.6,1.1s-.7,2.2-1.4,2.2c-1.4,0-4-1.7-5.9-1.1l4.4-1.1-1.6-4.3c2.2,3,4.5,3.7,8.2,3.3Z"/>
  <path class="st4" d="M918.4,394.5c.6.6,4.6-1.2,4.4,1.1l-5.4,2.2,1.1-7.6c.2,1-.3,4.1,0,4.4Z"/>
  <path class="st4" d="M946.8,408.7c-1.8,2.7-7.2,1.5-9.8,1.1l9.8-1.1Z"/>
  <path class="st4" d="M956.6,418.5c-1.4,2.5-6.1,3.4-8.7,3.3-.7-3.9,6.6-1.5,8.7-3.3Z"/>
  <path class="st4" d="M902.1,397.8c-.4.7-1.9-.6-1.1-2.2s1.9.6,1.1,2.2Z"/>
  <path class="st4" d="M903.1,401c-.4.7-1.9-.6-1.1-2.2s1.9.6,1.1,2.2Z"/>
  <path class="st4" d="M907.5,385.8c.7.4-.6,1.9-2.2,1.1s.6-1.9,2.2-1.1Z"/>
  <path class="st4" d="M950,407.6c.7.4-.6,1.9-2.2,1.1s.6-1.9,2.2-1.1Z"/>
  <path class="st4" d="M946.2,421.7c.7.4.7.7,0,1.1v-1.1Z"/>
  <path class="st4" d="M951.7,406.5c.7.4.7.7,0,1.1v-1.1Z"/>
  <path class="st4" d="M914.6,393.4c.7.4.7.7,0,1.1v-1.1Z"/>
  <path class="st5" d="M923.9,562.4c-1,3.7,4.1,12.9-2.7,12-1.2-.2-.2-10.1-.6-12,1.1,0,2.2,0,3.3,0Z"/>
  <path class="st5" d="M959.9,566.8c-2,1-2,6.6-2.7,6.6-3,0-4.3-4-3.8-6.6,2.2,0,4.4,0,6.5,0Z"/>
  <path class="st5" d="M940.2,565.7c-2.3,2.2.9,8.5-3.3,7.6l-1.1-8.7c1.6.3,2.9.7,4.4,1.1Z"/>
  <path class="st3" d="M906.4,566.8c1.6,6.2-3.7,8.5-3.3,2.2.1-.2-.3-1.4.3-1.9.9-.8,2.4,0,3-.3Z"/>
  <path class="st4" d="M1004.8,399.7c2.4,1.5,6-.7,8.5-.8-1.2,3.1-11.8,4.2-9.8-1.1,1.8-.5.7,1.5,1.3,1.9Z"/>
  <path class="st4" d="M987.1,411.9c-2.4-.6-1.3-7.3,1.1-7.6l-1.1,7.6Z"/>
  <path class="st4" d="M989.3,403.2c-.4.7-1.9-.6-1.1-2.2s1.9.6,1.1,2.2Z"/>
  <path class="st4" d="M987.7,413c.7.4.7.7,0,1.1v-1.1Z"/>
  <path class="st4" d="M1002.9,402.1c.7.4.7.7,0,1.1v-1.1Z"/>
  <path class="st10" d="M930.4,540.6c-7,8.1-10.7-2.1-10.9-8.7,2.8,1.3,9.6,6.2,10.9,8.7Z"/>
  <path class="st10" d="M905.3,533l-1.1-5.4,2.7,2.2,1.1-2.2c5.9,4.6,2.7,4,1.6,7.6-1.7-.2-3.1-1.1-4.4-2.2Z"/>
  <path class="st10" d="M905.3,533c1.3,1,2.7,2,4.4,2.2-.3,1.1.2,3.1,0,4.4-5.1-3.1-10.6-2.4-7.6-9.8,1.5.3,1.6,1.9,3.3,3.3Z"/>
  <path class="st10" d="M849.7,515.5c-1.5-.4-5.1,2.5-5.4,2.2-1-.8-2.6-6-1.1-7.6l1.6,2.2c2.3-5.9,2.9.8,4.9,3.3Z"/>
  <path class="st10" d="M861.7,507.9c-.2,2.3-1.2,1.6,0,4.4s2.8,3,2.2,5.5c-1.1-1-5.3-1.8-5.4-2.8s0-10.7,3.2-7Z"/>
  <path class="st10" d="M888.4,537.3c.7.4.7.7,0,1.1v-1.1Z"/>
  <path class="st10" d="M895.5,526.4c-.2.2-2.5,0-3.1,1.8-.6,1.8.3,6.4-.2,6.9s-5.6,1.2-5.8,1.2c-1.1,0-1.1-3.4-2.8-3.3v5.5s-7.6-6-7.6-6c4.1-.9.2-2.8.5-6l6,4.3c.3-3.2-4.4-6.5-4.4-9.2s2.3-2.5,2.5-2.5c1-.4,3.1,3.3.8-3.6,1.5-1.5,6.1,5.1,7.6,5.9.9.4,2.4-.6,3.9.5s2.9,4.2,2.7,4.4ZM890.1,531.9c1-9.9-9.2-5.5-4-1.4.8.6,2.9.6,4,1.4Z"/>
  <path class="st7" d="M1053.6,333.4c-1-2.7,8.4-15,9.3-15.3,4-1.3,3.4,5,3.8,7.7,12.2-13.9,13.5-5.5,20.7,4.9,1.1,1.6,3.9,2.6,4.4,3.8l-5.4,6.2c.5,2.5-2.2,10.9-1.1,12.3,1,1.3,3-1.4,3.3-2.2h1.1c-1.5,2.6-1.2,5.8-1.1,8.7-2.1-5.1-10,1-13.1-2.2-2.2-2.3,6.3-2.6,8-4.3,2.8-2.7-1.3-1.9-2.5-2.9s-1-2.6-1.8-2.7-5.1.9-5.9,1.1c-.2-6-4.2-.6-5.5,0-1.9-5-.8-9.1-7.6-7.6-.4,2.8-.1,2.8,2.2,3.8-.3.8-1.7,1.1-2.2,1.6-.4-1-1.8-.8-2.2-1.1-2.4-1.9-3.4-4.7-4.4-7.6,1.4-.5,8.5-6.4,8.7-7.1.7-2.4-2.3-2-3.6-1.6s-2.2,3-5.1,4.3ZM1062.9,326.9v1.1c.7-.4.7-.7,0-1.1Z"/>
  <path class="st2" d="M1050.4,311.6c1.1,0,2.2,0,3.3,0-.2,3.9-3.2,5.8-2.2,10.2.2.9,2.2.4,2.3,2.3.1,3.6-3,5.6-2.3,9.3-.5.1-1.1.8-2.2,1.1l-2.2-7c0-1.1-1.9-.8-2.8-.7s-9.5,7.3-12.6,8.1-4.8.9-7.6.7c-.4,0-.7,0-1.1,0-.4-3.4,0-5.6,2.7-7.7s4.6-.3,3.8-3.2c1.7-.5,4.1-1.5,6.5-2.2-.2,6.4,8.2-1.8,8.4-2.4.9-2.2,0-5,.3-7.4,1.8-.4,3.5-1,5.5-1.1Z"/>
  <path class="st7" d="M1092.9,379.2l-2.7-4.4c-2.5.1-.5,1.1-3.8,2.2.6-2.5-4-3.8-4.3-5.2-1.7-7.4,1.8-5.3,6.5-7.9.2.3,3.3,3.2,4,4.7.6,1.4.4,2.6.4,4,5.6-.2.7-6.6,0-8.7,5.2,1.2,19.9-5.9,15.3,4.9-5.8,2.6-9.8,7.2-15.3,10.3Z"/>
  <path class="st5" d="M1053.6,333.4c3-1.3,4.4-4.1,5.1-4.3,1.3-.4,4.2-.8,3.6,1.6-.2.7-7.3,6.6-8.7,7.1-8.8,3.3-21.1,2.3-30.5,2.2s-6-.3-10.9,0-4.4,0-6.5,0c-.9-2.1,3-3.8,4.1-4.1,3.8-.8,9.4-.4,13.4-.3s.7,0,1.1,0c10.4.3,14.1,1.4,25.1-1.1,1.1-.2,1.7-.9,2.2-1.1s1.7.2,2.2,0Z"/>
  <path class="st5" d="M1092.9,364c.7,2.1,5.6,8.6,0,8.7,0-1.4.2-2.7-.4-4-.7-1.5-3.8-4.4-4-4.7s0-3.3,0-4.4c-.1-2.9-.4-6.1,1.1-8.7l3.3-2.2c.7,5.9-1.9,9.5,0,15.3Z"/>
  <path class="st5" d="M1086.3,292c3.1-.3,12.3-2,14.2,0,2.2,2.4-4.2,2-1.1,3.3-.9.1-1.6,1.4-4.4,1.1s-2.6-3.3-2.2,1.1c-.4,0-.8-.1-1.1,0-1.4-.2-3.1-.8-5.5-1.1-7.7-.8-4.9-.9,0-4.4Z"/>
  <path class="st5" d="M1091.8,336.7c0,1.3-.8,6.5-1.1,7.6s-1.8,5.6-2.2,6.5c-.3.8-2.2,3.5-3.3,2.2-1.1-1.4,1.6-9.8,1.1-12.3l5.4-6.2c.1.4,0,1.6,0,2.2Z"/>
  <path class="st5" d="M1049.3,308.3c1.1,0,2.2,0,3.3,0h1.1c-1.1,1.1-1.9,2.4-3.3,3.3-1.9,0-3.6.7-5.5,1.1s-5,1.9-7.6,2.2c0,0-1-.3-.1-1.6,3-4.5,7.3-4.7,12.1-5Z"/>
  <path class="st7" d="M1068.9,307.2l1.1,2.2c-.1,0-.6,1.4-1.9,1.9-4.2,1.7-9,3-13.4,4.1,4.3-3.1,9.4-6,14.2-8.2Z"/>
  <path class="st7" d="M1091.8,336.7c2.9,1.4,3.5,4.8,3.3,7.6h-4.4c.3-1.1,1-6.4,1.1-7.6Z"/>
  <path class="st2" d="M1064.5,297.4c-.5,3.8-6.1,2.9-6.5,3.3s-1.3,4.5-4.4,7.6h-1.1c1-2.3,1.8-4.9,3.3-6.9s2.1-.7,2.2-.8c.3-.4,2.3-3.6,2.2-4.4,1.2.2,2.9.8,4.4,1.1Z"/>
  <path class="st5" d="M1127.8,298.5c-1.2,7.4-10.4,4.3-14.2.5l14.2-.5Z"/>
  <path class="st5" d="M1108.2,304c1.3-.4,9.7-2.9,8.7.5-.5,1.9-7.1,1.5-8.7,1.6v-2.2Z"/>
  <path class="st3" d="M1007.8,345.4c5.6.6,9.8,2.7,14.2,5.5,5.8,3.7,15,12.1,16.3,19.2.7,4-1.8,2.3-2.2,2.6-1.2-1.5-2.9-2.2-4.4-3.3-13.6-10-27.2-17.6-45-15-5.7.8-9.5,4.5-15,5.2,0-2.9,16.5-12.2,19.6-13.1s12.5-1.5,16.4-1.1Z"/>
  <path class="st2" d="M990.4,335.6c0,3.6-4.8,3.2-4.5,7.1s3.6,4.8,5.6,3.8c-3.1.8-19.7,10.2-19.6,13.1.8,1.5,4.6,2.2,6.1,2.3s2.1-4.4,3.7-2.3c1.7,2.2-5.2,10.2-7.1,12-2.8.7-.9-2.1-1.8-3s-2.6-.2-3.6-1.4-.3-2.7-.7-3.1c-.8-.7-3.6.3-4.2-.2s.8-4.5-1.8-5.3c-6.9,2.1-15.6-2.2-20,4.3-.2,0-2.2,1.1-3.3,0,.3-3.1.7-7.3,1.1-10.3.3-2.1,1.9-3.9,2.1-6.1,3.3,1.5,11.6,6,14.2,6.5,6.2,1.3,5.1-1.9,5.5-2.2,2.7-2,1.8,2.4,2.5,4s4.4,3.3,6.2,2.5c-1.7-8.3,3.4-14.7,12-13.1-2.1-5.4-.4-3.3.8-4.6s-.9-.8-.8-.9c.7-1.6,5.8-2.5,7.6-3.3Z"/>
  <path class="st5" d="M942.4,362.9c3.8,1,3.7,2.6,6,5.4,2.8-6.2,7.9,3.3,7.1,7.6l-6.5-6.5,2.2,9.8c-2.7.6-1.9-.6-2.8-2-1.5-2.4-2.7-7.4-4.3-8.8s-4.5-.4-4.9-4.4c0-.3,0-.7,0-1.1,1,1.1,3.1,0,3.3,0Z"/>
  <path class="st5" d="M958.8,375.9c-.6-1.4,1.1-5,.9-5.3-.5-.5-2.8.6-2-2.3l9.8-3.3c.3,2.2-1.6,3.6-2.2,5.4-2.3,1.7-4.4,3.6-6.5,5.5Z"/>
  <path class="st5" d="M965.3,372.7l6.5-2.7c-1.8,2.9-3.3,6-5.5,8.7-1.4,1.8-2.5,2.9-2.2-.5.3-2.5.5-3.1,1.1-5.5Z"/>
  <path class="st1" d="M1054.7,372.7c3.1,0,10.6-7.7,12-6.5-1.4,6.1-3.8,10.9-7.6,15.8,2,1.7,5.6-2.4,6.5-3.8,3.6,1.5,5.2.8,7.6,4.4-1,.6-2.9,2.1-3.3,3.3,1.1,0,2.2,0,3.3,0s1.5,0,2.2,0c1.6,5.8-3.4,6.8-2.2,12-1.5,2-2.4,2.9-3.3,5.5-1.1,3.5-1.4,6.1-1.1,9.8,2,2.3,15.1-16.6,17.3-9.1,1.1,3.8-2.2,5.6-3.7,8.1-.7,1.2-.2,3.3-.8,4s-9.8,2.5-5.2,7.9c-2,3.3-4.8,8.5-6.5,12l-1.1-.6,2.1-5.9c.8-.6,3.6-5.3,1.1-6-1-.6-4.2,1.1-5.5,1.7.8-3.2-3.3-2.5-5-2.3-2.6.3-.5,3.1-3.7,2.3-1.5-1.9,6.3-17,4.3-19.6-2.4-3.1-6.4,9.3-6.7,10-.8,1.6-6.2,6-3.1,8.6-2.4,1.3-4.6,3.5-7.6,3.3,0-13.4,3.7-28.2,2.2-41.4,5.3,1,8.1-.5,8.8-6.1.2-1.5-4.6-2.5-1.1-7Z"/>
  <path class="st5" d="M1092.9,379.2c-4,2.3-1.1,1.6-2.2,3.3-4.3,7-13.9,15.9-20.7,20.7.8-2.6,1.7-3.4,3.3-5.5s2.3-1.4,3.2-2.7c3.1-4.1,6.2-8.6,8.8-13.1-3.7-.2-8.8,1.9-12,3.8-1.1,0-2.2,0-3.3,0,.4-1.2,2.2-2.6,3.3-3.3,1.9-1.1,6.5-3.4,8.7-4.4,1.8-.8,3-.7,4.4-1.1,3.3-1,1.3-2.1,3.8-2.2l2.7,4.4Z"/>
  <path class="st1" d="M1076.5,422.8c1.2-2.1,4.4-.9,6.5-1.1,1.4,1.3-4.4,12-5.4,14.2-.2.1-1.3-.3-1.8.3-1,1.1-.3,4.6-3.6,4,3.1-4.9,8-11.5,4.4-17.4Z"/>
  <path class="st5" d="M833.4,452.3c.8,2.8.3,7,2.2,9.8-.9-.5-2.2.3-3.3-2.2-3-6.7-6.2-14.5-6.5-21.8s.7-12.2,1.1-18.5c.5-.2,1.3-2,2.8,1.1s-.6,2.3-.6,2.7v16.4c0,3.5,3.6,9.8,4.4,12.5Z"/>
  <path class="st5" d="M841,433.7l-6.5-3.3c2.1,5,2.9,11.5,2.2,16.9-.2,1.5-.8,3.4-2.2,1.6.4-7.4-4.4-15.3-4.4-22.3,0-3.9,5.8-.5,7.3.9s3.4,4.6,3.6,5.1-.1.8,0,1.1Z"/>
  <path class="st5" d="M835.5,395.6v17.4c-1.6.3-1.5-1.9-1.8-3-1.1-3.8-1.7-8.3-1.4-12.2s0-2.2,0-3.3c1.3-.4,2.6,1,3.3,1.1Z"/>
  <path class="st5" d="M841,394.5c2.2,2.7,4,5.1,4.4,8.7,0,0,0,1.2-.5,1.1-2.9-2.4-5-4.9-6-8.7.1,0,2-1,2.2-1.1Z"/>
  <path class="st1" d="M1053.6,337.8c1,2.9,1.9,5.8,4.4,7.6-5.1,4.2-14,7.4-15.8,14.2,6.9-3.8,12.8-6.9,18-13.1.4-.5,1.9-.9,2.2-1.6-2.3-1-2.5-1-2.2-3.8,6.8-1.5,5.7,2.6,7.6,7.6-.9.4-14.2,5.9-9.3,6.5,9.4,1.3,9.9-5.2,14.7-6.5s5.6-1.2,5.9-1.1c.8,0,.9,2,1.8,2.7s5.3.2,2.5,2.9c-1.7,1.7-10.2,2-8,4.3,3.1,3.2,11-2.9,13.1,2.2,0,1-.2,4.1,0,4.4-4.7,2.7-8.2.5-6.5,7.9.3,1.3,4.9,2.6,4.3,5.2-1.4.4-2.5.3-4.4,1.1-1.3-3-6.1-7.5-6.6-10.4-.3-2.1,6.5-4.3,4.4-5.9s-7.9.6-9.8,0-1.8-2.6-2.7-3.3h-1.6c-1.5,4.8-7.9,10.2-12,13.1-4.9,3.5-8.7,5.1-14.9,5.4-2.4.1-2.5-.1-3.6-2.1,0-.4.8-1.9,1.1-2.2s2.9,1.3,2.2-2.6c-1.3-7.1-10.6-15.5-16.3-19.2l1.1-10.9c9.5.1,21.8,1.1,30.5-2.2Z"/>
  <path class="st1" d="M1054.7,372.7c-3.5,4.5,1.3,5.5,1.1,7-.6,5.6-3.5,7.1-8.8,6.1-.1-1.2-.7-3.6-1.6-4.4-2.3,2.8-5,7.4-4.9,10.9-2.6.7-2-1.1-3.3-2.2s-3.3-2.7-3.3-3c-.2-.9.8-10.7,1.1-12.3,1.1,2,1.2,2.2,3.6,2.1,6.2-.3,10-1.9,14.9-5.4-.2.7.5,1.1,1.1,1.1Z"/>
  <path class="st0" d="M917.3,571.1h-7.6s1.1-3.3,1.1-3.3l-3.3-1.1c3.9-.5,7.9.6,9.8,4.3Z"/>
  <path class="st2" d="M1050.4,263.6c4.3-5.2,3.5-1.3,4.4,0h-4.4Z"/>
  <path class="st1" d="M939.1,345.4c-2.7,5.6-4.6,10.8-7.6,16.4-2.4.7-3.7-3.9-5.2-4.3s-2.5.1-3.5,0-.7,0-1.1,0c.5-2.6-2-2.1-3-4.1s0-2.6-.4-3.4c-.8-1.3-5.7-.9-6.2-1.5s-2.2-8-4.5-9.7c1.3-.4,2.4-1.7,5-2.1,11.5-1.5,17.3,4.6,26.6,8.6Z"/>
  <path class="st2" d="M922.8,357.4c1,.2,2.3-.3,3.5,0s2.8,5.1,5.2,4.3c-.2.4.2,1.5,0,2.2-1.6,1.2-8.8-3.7-8.7-6.5Z"/>
  <path class="st10" d="M860.6,539.5c.1.1,0,3.1,0,3.3-.4.5-10.8-3.1-13.1-2.2.4-1.6,6-1.5,7.5-1.5s5.4.2,5.6.4Z"/>
  <path class="st3" d="M920.6,621.3c-.4.7-1.9-.6-1.1-2.2s1.9.6,1.1,2.2Z"/>
  <path class="st3" d="M943.5,649.7h-1.1c-.5-4.5,1.6-4.5,1.1,0Z"/>
  <path class="st6" d="M937,278.9l1.2,10.8c2.3.5,4.7,0,7,.1s4.4-1.1,3.8,2.2l-4.9,7.6c3.2-1.3,6.2-4.9,8.2-7.6l1.6,4.4c9.6-1.6,4.4-5.1,4.9-10.4,4.9-2.4,5.4,4.9,7.6,8.2-8.3,5-13.9,11.5-20.7,18,1.2,1.8,2.4-.4,3.3-1.1,4.9-3.8,10.1-7,15.3-10.3,1,1.3-4.1,13.1-5.4,15.3-.8.2-2,0-2.2-1.1,1-1.5,3-4.9,1.6-6.5-2.8,3.4-8,5.6-7.1,10.9-2.1,2-5.2,6.4-8,6.2-5-.4-1.9-7.1-5.8-8.3s-7.3,1.5-10.8,1.1c-1.4-.2-3.3-3.6-5.9-3.4-1-1.3-2.3-5.7-4.4-6.5,2.3-2.9,8-3.8,8.7-8.2.9-5.1-6.8,1.8-7.7,2.7-3.3.4-3.7,0-3.3-3.3,1.2-1.8,2.3-3.8,3.8-5.5,4.7-5.2,13.6-11,19.1-15.3Z"/>
  <path class="st6" d="M946.8,331.2c1.3-.9,8.2-4.2,8.5-4.6.7-.9-.3-3.6,1.3-4.7s6.5-1.5,7.3-1.5c3.6,0,4,1.6,6.4,2.1,4.7,1,6.8-2.1,9.2,4.4-1.5.9-5.2,6-7.6,7.1l9.8-2.7c-8,10.1,1.2,2.6,2.2,3.3l-1.1,4.4c0,0,1.1.6.8.9-1.3,1.2-2.9-.9-.8,4.6-8.5-1.6-13.7,4.8-12,13.1-1.8.8-5.6-1-6.2-2.5s.2-6-2.5-4,.8,3.5-5.5,2.2c1.7-2.6-1.1-7.7-2.3-10.2s-6.5-10.6-7.5-11.6Z"/>
  <path class="st1" d="M1016.6,300.7c12.2.4,4.5,1.9,4.3,2.9-1.1,5.8,6.5,12.1,8.8,16.8-7.3.8-20.1,3.8-24,10.3l19.4-5.7c1.4-.6,3.5,0,4.6-.3.8,3-2.1,1.9-3.8,3.2-2.8,2.1-3.1,4.3-2.7,7.7-4-.1-9.6-.5-13.4.3s-5,1.9-4.1,4.1c2.2,0,4.4.2,6.5,0-1.8,3.3.5,6.5-4.4,5.5-3.8-.4-12.7,0-16.4,1.1-2,.9-5.4-2.2-5.6-3.8-.4-3.9,4.4-3.4,4.5-7.1,4.3-1.9,8.1-4.5,12-6.5.5-.3,2.7.4,3.2,0,1.7-1.9-2.7-13.7-4.3-16.3.7-.5,3.2-2.5,3.3-2.7.1-2.7-4.9,0-6.5.5-1.7-2.9,1.7-6.5-3.3-6.5,7.7-2,13.7-3.5,21.8-3.3ZM1022,311.6c-3.3-.6-6.7-1.5-9.8.5,2.2,2.5,8.4,2.8,9.8-.5Z"/>
  <path class="st1" d="M905.3,302.9c2.2-.7,1.8,1.7,3,2.1,2.8,1,4.2-2.1,3.5,4.4,1.6.5,2.1-1.1,2.2-1.1.6,0,1.9-.1,2.2,0,2.1.9,3.4,5.2,4.4,6.5,2.8,3.7,2.7,5.8,8.3,6.4s3.1-1.2,4.8-.5,4.4,4.1,4.4,6c-12.5-5-23.2-3.4-36,0-5.7,1.2-3.5-7-8.7-7.6,1.2-.9,7.3-5.1,7.6-5.5,2.8-4.1-5.5-.5-6.5,0-.8,0-1.8-1-2.2-1.1,4.2-3.5,9-6.2,13.1-9.8Z"/>
  <path class="st5" d="M1032.9,296.3c7.2.4,11.8,1.4,18.5,4.4-.2.6.2,1.7,0,2.2-9.2-4.2-19-3.4-28.9-3.3-1.8,0-4.8-.7-6,1.1-8.1-.2-14.1,1.2-21.8,3.3s-8.2,1.6-11.5,4.4c-.7.2-.8-1.1-.5-1.6,1.3-2.4,11.2-6.3,14.2-7.1,11.1-3.2,24.4-3.9,36-3.3Z"/>
  <path class="st5" d="M958.8,316c1.3-2.2,6.5-13.9,5.4-15.3-5.2,3.3-10.3,6.5-15.3,10.3-.9.7-2.1,2.9-3.3,1.1,6.9-6.5,12.4-13,20.7-18,2.4-1.5,4.5-3.8,4.4,1.6s-7.9,19.4-12.1,20.2Z"/>
  <path class="st5" d="M1001.3,312.7c-3.8,2.6-9.7,4.2-14.2,5.4,2.4-4.1,6.7-6,10.9-7.6s6.6-3.3,6.5-.5c0,.2-2.6,2.3-3.3,2.7Z"/>
  <path class="st5" d="M956.6,314.9c-2.1,3.2-4.5,3.4-5.5,4.4-.9-5.3,4.3-7.5,7.1-10.9,1.4,1.7-.7,5.1-1.6,6.5Z"/>
  <path class="st7" d="M986,289.8c.4-.3,6.7-3.1,7.1-3.3,2.1-.6,1.9,1.3,1.6,2.7s-3.7.7-5.2,1.4-2.6,2-3.5,2.4-3,1.1-4.4,1.1c.7-1.5,3-3.5,4.4-4.4Z"/>
  <path class="st2" d="M1044.9,294.2c3.2.3,5.6.6,8.7,1.1.9,2.6-1.8,4.3-2.2,5.5-6.7-2.9-11.3-4-18.5-4.4l-3.3-3.3c5,1.1,10.2.6,15.3,1.1Z"/>
  <path class="st2" d="M1026.4,294.2v1.1s-5.4,0-5.4,0c-.8-4,2.5-1,5.4-1.1Z"/>
  <path class="st7" d="M996.9,287.6h1.1c-.1,0-.2,1-.5,1.1l-.6-1.1Z"/>
  <path class="st2" d="M937,278.9c.5-.4.9-1.9,2.2-2.7,7.9-4.7,17.3-6.1,26.2-8.2-7.3,6.8-10.1,16.7-16.4,24,.6-3.3-1.7-2.1-3.8-2.2s-4.7.3-7-.1l-1.2-10.8ZM950,281.1c-4.4-.3-8.4,3.2-8.7,7.6,1.3,1.3,8-6.2,8.7-7.6Z"/>
  <path class="st5" d="M917.3,302.9c.9-.9,8.5-7.8,7.7-2.7-.7,4.3-6.4,5.2-8.7,8.2-.3-.1-1.6,0-2.2,0l-1.1-.5c1.8-1.3,3-3.5,4.3-4.9Z"/>
  <path class="st6" d="M1060.2,296.3c0,.8-1.9,4-2.2,4.4s-1.5-.2-2.2.8c-1.5,2-2.3,4.6-3.3,6.9-1.1,0-2.2,0-3.3,0-.4-2.8,1.1-2.9,2.2-5.5.2-.5-.2-1.6,0-2.2.4-1.1,3.1-2.9,2.2-5.5,2.1.3,4.5.7,6.5,1.1Z"/>
  <path class="st1" d="M1095.1,296.3c-.7.3-1.5.9-2.2,1.1-.4-4.4,1.8-1.1,2.2-1.1Z"/>
  <path class="st5" d="M1066.7,425c1.2-.5,4.5-2.3,5.5-1.7,2.5.7-.3,5.4-1.1,6s-5.6,2.5-7.1,3.3l.5-3.3h-4.4c1.1-2.3,4.4-3.5,6.5-4.4Z"/>
  <path class="st10" d="M890.1,531.9c-1.1-.8-3.3-.8-4-1.4-5.2-4.1,5-8.5,4,1.4Z"/>
  <path class="st5" d="M1060.2,346.5c-5.2,6.1-11.1,9.3-18,13.1,1.8-6.8,10.7-10,15.8-14.2.4.3,1.8,0,2.2,1.1Z"/>
  <path class="st5" d="M1067.8,348.7c1.2-.6,5.3-6,5.5,0-4.9,1.3-5.3,7.9-14.7,6.5s8.4-6.1,9.3-6.5Z"/>
  <path class="st5" d="M1062.9,326.9c.7.4.7.7,0,1.1v-1.1Z"/>
  <path class="st5" d="M1029.6,320.3c1.3-.1,3,0,4.4,0s2.9,0,4.4,0v1.1c-1-.3-1.7,1-2.2,1.1-2.4.7-4.9,1.7-6.5,2.2-1.1.3-3.2-.4-4.6.3l-19.4,5.7c3.9-6.5,16.7-9.6,24-10.3Z"/>
  <path class="st1" d="M1024.2,335.6c2.7.3,4.9,0,7.6-.7s11.6-8,12.6-8.1,2.8-.4,2.8.7l2.2,7c-11,2.5-14.7,1.4-25.1,1.1Z"/>
  <path class="st1" d="M1044.9,312.7c-.3,2.3.6,5.1-.3,7.4-.3.6-8.6,8.8-8.4,2.4.5-.1,1.2-1.4,2.2-1.1v-1.1c-1.4,0-2.9,0-4.4,0,2.4-1.1,2.2-3.4,3.3-5.5,2.6-.3,5.2-1.6,7.6-2.2Z"/>
  <path class="st1" d="M1023.1,340l-1.1,10.9c-4.4-2.8-8.6-4.9-14.2-5.5,4.9,1,2.5-2.2,4.4-5.5,4.9-.3,6.6,0,10.9,0Z"/>
  <path class="st2" d="M1051.5,302.9c-1.1,2.6-2.6,2.6-2.2,5.5-4.8.3-9.2.5-12.1,5-.9,1.3.2,1.5.1,1.6-1,2-.8,4.4-3.3,5.5-1.4,0-3.1-.1-4.4,0-2.3-4.7-9.9-10.9-8.8-16.8s7.9-2.5-4.3-2.9c1.1-1.8,4.1-1.1,6-1.1,10-.1,19.7-.9,28.9,3.3Z"/>
  <path class="st2" d="M1070,361.8c1.9.6,9-.6,9.8,0,2.1,1.6-4.7,3.9-4.4,5.9.5,3,5.3,7.4,6.6,10.4-2.2,1-6.9,3.2-8.7,4.4-2.4-3.6-4.1-2.8-7.6-4.4,3.1-4.4,4.6-11,4.4-16.4Z"/>
  <path class="st5" d="M1070,361.8c.3,5.4-1.3,11.9-4.4,16.4-1,1.4-4.5,5.5-6.5,3.8,3.8-4.9,6.2-9.7,7.6-15.8-1.4-1.2-8.9,6.6-12,6.5s-1.3-.4-1.1-1.1c4.1-2.9,10.5-8.3,12-13.1h1.6c1,.7,1.8,3,2.7,3.3Z"/>
  <path class="st2" d="M1073.3,385.8c3.2-1.9,8.3-4,12-3.8-2.6,4.5-5.7,8.9-8.8,13.1-1,1.3-2.7,2-3.2,2.7-1.2-5.2,3.8-6.2,2.2-12-.7,0-1.5,0-2.2,0Z"/>
  <path class="st5" d="M979.5,326.9c5.7-3.6,10.4-2.7,15.3-3.8,2.2-.5,4.6-3.5,7.6-2.8-2.9,5-9.4,6.8-13.1,10.9l13.1-2.2c-3.9,2-7.7,4.6-12,6.5s-7,1.6-7.6,3.3l1.1-4.4c-.9-.7-10.2,6.8-2.2-3.3l-9.8,2.7c2.5-1.1,6.1-6.2,7.6-7.1Z"/>
  <path class="st5" d="M1022,311.6c-1.4,3.3-7.6,3-9.8.5,3.1-2,6.5-1.2,9.8-.5Z"/>
  <path class="st5" d="M950,281.1c-.7,1.4-7.5,8.9-8.7,7.6.3-4.4,4.3-7.9,8.7-7.6Z"/>
</svg>