<svg xmlns="http://www.w3.org/2000/svg" xmlns:xlink="http://www.w3.org/1999/xlink" version="1.1" x="0px" y="0px" viewBox="0 0 100 125" enable-background="new 0 0 100 100" xml:space="preserve"><path d="M25.564,85.523c0,0.868,0.706,1.574,1.574,1.574s1.574-0.706,1.574-1.574s-0.706-1.574-1.574-1.574  S25.564,84.656,25.564,85.523z M27.138,84.949c0.316,0,0.574,0.257,0.574,0.574s-0.257,0.574-0.574,0.574s-0.574-0.257-0.574-0.574  S26.822,84.949,27.138,84.949z"/><path d="M41.966,11.954c0-1.872-1.522-3.394-3.394-3.394c-0.849,0-1.616,0.324-2.212,0.841c-0.018,0.012-0.039,0.018-0.056,0.033  c-0.012,0.01-0.016,0.024-0.027,0.036c-0.671,0.62-1.099,1.5-1.099,2.484c0,1.871,1.522,3.394,3.394,3.394  C40.444,15.348,41.966,13.825,41.966,11.954z M40.966,11.954c0,0.533-0.181,1.021-0.477,1.419L37.381,9.89  c0.352-0.204,0.756-0.33,1.191-0.33C39.893,9.56,40.966,10.634,40.966,11.954z M36.179,11.954c0-0.523,0.173-1.003,0.458-1.397  l3.101,3.475c-0.346,0.195-0.74,0.316-1.165,0.316C37.252,14.348,36.179,13.274,36.179,11.954z"/><path d="M88.761,27.053h-7.567c-0.253,0-0.477,0.102-0.653,0.256h-0.216v-1.071h2.244c0.552,0,1-0.448,1-1v-3.76  c0-0.552-0.448-1-1-1h-0.93v-2.24c0-0.552-0.448-1-1-1h-0.504c-0.39-0.91-1.295-1.55-2.346-1.55s-1.956,0.64-2.346,1.55h-0.504  c-0.552,0-1,0.448-1,1v2.24h-1.21v-1.22c0-0.552-0.448-1-1-1h-3.15c-0.552,0-1,0.448-1,1v30.81h-1.856V44.35  c0-0.469-0.329-0.844-0.765-0.952V30.675c0-2.292-3.797-3.335-7.326-3.335c-0.718,0-1.445,0.046-2.151,0.134l-0.994-1.234H65.42  c0.552,0,1-0.448,1-1v-3.76c0-0.552-0.448-1-1-1h-0.642v-1.475c1.174-0.355,1.877-1.575,1.568-2.774  c-0.317-1.231-1.576-1.975-2.806-1.661l-0.006,0.002c-0.849-0.822-2.044-1.302-3.327-1.302c-2.205,0-4.053,1.421-4.476,3.299  l-0.094,0.024v0l-7.397,1.894l-3.717-4.614c0.201-0.616,0.313-1.272,0.313-1.954c0-0.606-0.091-1.19-0.251-1.745l0.151-0.071  c0.413,0.338,0.924,0.552,1.475,0.552c0.346,0,0.682-0.075,0.999-0.224l1.901-0.894c1.171-0.552,1.676-1.954,1.125-3.125  c-0.268-0.569-0.741-1-1.333-1.212c-0.59-0.212-1.228-0.182-1.792,0.086l-1.9,0.893c-0.848,0.399-1.339,1.242-1.342,2.122  l-0.133,0.063c-1.139-1.665-3.052-2.761-5.217-2.761c-3.483,0-6.316,2.834-6.316,6.317c0,0.889,0.187,1.735,0.52,2.504l-0.872,0.409  c-0.5,0.235-0.715,0.831-0.48,1.331c0.17,0.362,0.53,0.575,0.906,0.575c0.143,0,0.287-0.03,0.425-0.095l1.113-0.523  c1.053,1.178,2.537,1.959,4.205,2.091l1.829,2.27h-7.951v-2.01c0-0.552-0.448-1-1-1h-3.15c-0.552,0-1,0.448-1,1v2.01h-1.735  c-0.552,0-1,0.448-1,1v3.76c0,0.552,0.448,1,1,1h1.735v17.639l-0.449,0.18c-0.379,0.152-0.627,0.52-0.627,0.928v5.083h-4.01  c-0.271-1.442-1.534-2.537-3.053-2.537h-1.307c-1.716,0-3.111,1.396-3.111,3.112v7.511c0,1.716,1.396,3.111,3.111,3.111h1.307  c1.516,0,2.778-1.09,3.052-2.527h1.25v3.026c0,0.032,0.015,0.059,0.018,0.09c-0.801,0.742-1.311,1.793-1.311,2.968v8.246  c0,1.049,0.513,1.973,1.293,2.56v3.548c0,0.552,0.448,1,1,1c0.526,0,0.938,0.408,0.938,0.929c0,0.526-0.412,0.938-0.938,0.938  c-0.552,0-1,0.448-1,1v3.193c0,0.511,0.153,1.003,0.443,1.422c0.539,0.78,0.93,1.64,1.164,2.557l0.456,1.782  c0.113,0.442,0.512,0.752,0.969,0.752h0.195v1.234c0,0.552,0.448,1,1,1s1-0.448,1-1V92.75h0.195c0.457,0,0.855-0.31,0.969-0.752  l0.456-1.782c0.235-0.917,0.626-1.778,1.164-2.557c0.29-0.42,0.443-0.912,0.443-1.423V75.629c0.781-0.586,1.293-1.511,1.293-2.56  v-8.246c0-1.175-0.51-2.226-1.312-2.968c0.003-0.031,0.018-0.058,0.018-0.09v-3.026h0.294c0.455,0,0.853-0.308,0.968-0.748  l0.675-2.592h38.427c0.552,0,1-0.448,1-1v-2.544c0.386,0.127,0.785,0.214,1.2,0.214c2,0,3.657-1.518,3.863-3.536  c0.002-0.008,0.007-0.014,0.008-0.022c0.004-0.023,0.003-0.046,0.006-0.07c0.002-0.028,0.011-0.054,0.013-0.083v-0.072  c0.002-0.039,0.01-0.079,0.01-0.118c0-0.04-0.008-0.079-0.01-0.118v-0.032v-2.67h0.237c0.152,0.093,0.32,0.161,0.511,0.161h6.978  c1.224,0,2.22-0.996,2.22-2.22V42.4c0-1.224-0.996-2.22-2.22-2.22h-6.978c-0.287,0-0.542,0.124-0.724,0.318h-2.444  c-1.34,0-2.43,1.086-2.43,2.42v1.493c-0.082,0.021-0.159,0.055-0.24,0.081V26.239h2.54v3.599c0,1.394,1.134,2.528,2.528,2.528h2.745  c0.176,0.154,0.4,0.256,0.652,0.256h7.567c1.224,0,2.22-0.996,2.22-2.22v-1.128C90.981,28.05,89.985,27.053,88.761,27.053z   M75.939,19.239h0.3c0.552,0,1-0.448,1-1c0-0.308,0.242-0.55,0.55-0.55c0.309,0,0.55,0.242,0.55,0.55c0,0.552,0.448,1,1,1h0.3v1.17  h-3.7V19.239z M50.302,30.671c-0.012,0.025-0.044,0.057-0.07,0.087c-0.023,0.026-0.036,0.049-0.069,0.077  c-0.04,0.034-0.103,0.073-0.158,0.111c-0.046,0.031-0.082,0.061-0.138,0.093c-0.068,0.04-0.159,0.081-0.242,0.122  c-0.068,0.034-0.126,0.066-0.205,0.1c-0.096,0.041-0.215,0.082-0.326,0.122c-0.091,0.033-0.171,0.067-0.271,0.1  c-0.125,0.04-0.274,0.077-0.414,0.115c-0.11,0.03-0.209,0.062-0.329,0.089c-0.162,0.037-0.348,0.068-0.527,0.1  c-0.122,0.022-0.232,0.048-0.361,0.068c-0.212,0.032-0.448,0.053-0.681,0.076c-0.119,0.012-0.226,0.029-0.351,0.038  c-0.367,0.027-0.758,0.042-1.172,0.042c-3.332,0-5.156-0.968-5.31-1.325c0.168-0.385,1.989-1.346,5.31-1.346  C48.263,29.339,50.088,30.275,50.302,30.671z M59.898,33.861c0.294-0.04,0.582-0.083,0.864-0.139  c0.305-0.059,0.601-0.128,0.886-0.205c0.088-0.024,0.175-0.049,0.26-0.075c0.348-0.104,0.674-0.224,0.978-0.358  c0.022-0.01,0.05-0.016,0.072-0.026l0.003,11.274c0,0.007-0.004,0.012-0.004,0.019l0.004,0.4c-0.134,0.376-1.977,1.366-5.33,1.366  c-3.351,0-5.189-0.989-5.318-1.335V33.059c0.021,0.01,0.048,0.016,0.07,0.026c0.304,0.134,0.632,0.254,0.98,0.358  c0.086,0.026,0.172,0.05,0.26,0.075c0.286,0.078,0.582,0.146,0.886,0.205c0.28,0.056,0.567,0.098,0.859,0.138  c0.11,0.015,0.219,0.03,0.331,0.043c1.269,0.145,2.603,0.145,3.872,0C59.681,33.891,59.789,33.875,59.898,33.861z M63.722,46.747  v2.704H38.557v-2.96c0.013,0.011,0.03,0.019,0.043,0.03c0.15,0.122,0.314,0.237,0.494,0.345c0.031,0.018,0.065,0.035,0.096,0.052  c0.158,0.09,0.325,0.174,0.501,0.253c0.056,0.025,0.112,0.05,0.169,0.074c0.199,0.084,0.406,0.162,0.623,0.233  c0.016,0.005,0.031,0.011,0.047,0.017c0.236,0.076,0.482,0.142,0.735,0.204c0.065,0.016,0.131,0.03,0.197,0.045  c0.206,0.047,0.416,0.089,0.63,0.127c0.059,0.01,0.117,0.022,0.177,0.032c0.265,0.043,0.535,0.08,0.808,0.11  c0.056,0.006,0.113,0.01,0.17,0.016c0.225,0.022,0.452,0.04,0.679,0.054c0.076,0.005,0.151,0.009,0.227,0.013  c0.279,0.013,0.557,0.022,0.835,0.022c0.271,0,0.543-0.008,0.815-0.021c0.077-0.003,0.154-0.008,0.232-0.013  c0.21-0.012,0.419-0.028,0.627-0.048c0.07-0.007,0.14-0.012,0.209-0.02c0.267-0.029,0.531-0.063,0.791-0.104  c0.046-0.007,0.091-0.017,0.137-0.025c0.216-0.036,0.427-0.078,0.635-0.123c0.075-0.016,0.148-0.033,0.222-0.051  c0.199-0.047,0.392-0.099,0.581-0.155c0.049-0.014,0.1-0.027,0.148-0.042c0.228-0.072,0.447-0.15,0.656-0.235  c0.052-0.021,0.1-0.044,0.151-0.066c0.16-0.069,0.312-0.142,0.457-0.219c0.055-0.029,0.111-0.058,0.164-0.089  c0.167-0.096,0.324-0.196,0.467-0.304c0.01-0.008,0.024-0.014,0.034-0.022c0.01,0.008,0.024,0.014,0.034,0.022  c0.143,0.108,0.3,0.208,0.467,0.304c0.053,0.031,0.108,0.06,0.164,0.089c0.145,0.077,0.298,0.15,0.457,0.219  c0.05,0.022,0.098,0.045,0.15,0.066c0.209,0.085,0.428,0.163,0.656,0.235c0.048,0.015,0.098,0.028,0.147,0.042  c0.189,0.056,0.383,0.108,0.581,0.155c0.073,0.017,0.146,0.034,0.221,0.051c0.208,0.046,0.42,0.087,0.635,0.123  c0.046,0.008,0.09,0.017,0.136,0.024c0.26,0.042,0.524,0.076,0.79,0.104c0.069,0.008,0.139,0.013,0.209,0.02  c0.208,0.02,0.417,0.036,0.626,0.048c0.077,0.005,0.154,0.009,0.231,0.013c0.272,0.012,0.544,0.021,0.814,0.021  c0.259,0,0.518-0.007,0.778-0.019c0.079-0.003,0.157-0.009,0.236-0.013c0.187-0.011,0.374-0.024,0.56-0.041  c0.083-0.007,0.165-0.015,0.248-0.023c0.206-0.021,0.41-0.047,0.613-0.076c0.052-0.007,0.104-0.013,0.156-0.021  c0.25-0.038,0.495-0.083,0.736-0.133c0.06-0.013,0.118-0.028,0.178-0.041c0.181-0.041,0.359-0.084,0.532-0.132  c0.074-0.02,0.146-0.041,0.218-0.063c0.166-0.049,0.326-0.102,0.483-0.158c0.058-0.021,0.118-0.04,0.174-0.062  c0.207-0.079,0.406-0.164,0.593-0.255c0.025-0.012,0.046-0.026,0.071-0.039c0.159-0.081,0.309-0.167,0.45-0.257  C63.678,46.771,63.702,46.76,63.722,46.747z M40.719,33.443c0.086,0.026,0.172,0.05,0.26,0.075c0.286,0.078,0.582,0.146,0.886,0.205  c0.28,0.056,0.567,0.098,0.859,0.138c0.11,0.015,0.219,0.03,0.331,0.043c1.269,0.145,2.603,0.145,3.872,0  c0.11-0.012,0.218-0.028,0.327-0.042c0.294-0.04,0.582-0.083,0.864-0.139c0.305-0.059,0.601-0.128,0.886-0.205  c0.088-0.024,0.175-0.049,0.26-0.075c0.348-0.104,0.674-0.224,0.978-0.358c0.022-0.01,0.049-0.016,0.071-0.026v11.698  c-0.009,0.024-0.043,0.056-0.066,0.085c-0.022,0.028-0.034,0.052-0.069,0.083c-0.035,0.031-0.093,0.067-0.14,0.1  c-0.049,0.035-0.088,0.068-0.151,0.105c-0.059,0.035-0.141,0.071-0.211,0.107c-0.077,0.039-0.143,0.077-0.234,0.117  c-0.083,0.036-0.189,0.072-0.284,0.108c-0.103,0.039-0.196,0.079-0.313,0.118c-0.114,0.037-0.252,0.07-0.378,0.106  c-0.122,0.034-0.233,0.07-0.367,0.102c-0.152,0.036-0.329,0.064-0.496,0.095c-0.134,0.025-0.255,0.054-0.398,0.076  c-0.197,0.03-0.419,0.049-0.634,0.071c-0.137,0.014-0.261,0.034-0.405,0.045c-0.37,0.028-0.764,0.043-1.181,0.043  c-3.351,0-5.189-0.989-5.318-1.335V44.35V33.059c0.021,0.01,0.048,0.016,0.07,0.026C40.044,33.219,40.371,33.339,40.719,33.443z   M62.946,30.671c-0.012,0.025-0.044,0.057-0.07,0.087c-0.023,0.026-0.036,0.049-0.069,0.077c-0.04,0.034-0.103,0.073-0.158,0.111  c-0.046,0.031-0.082,0.061-0.138,0.093c-0.068,0.04-0.159,0.081-0.242,0.122c-0.068,0.034-0.126,0.066-0.205,0.1  c-0.096,0.041-0.215,0.082-0.326,0.122c-0.091,0.033-0.171,0.067-0.271,0.1c-0.125,0.04-0.274,0.077-0.414,0.115  c-0.11,0.03-0.209,0.062-0.329,0.089c-0.162,0.037-0.348,0.068-0.527,0.1c-0.122,0.022-0.232,0.048-0.361,0.068  c-0.212,0.032-0.448,0.053-0.681,0.076c-0.119,0.012-0.226,0.029-0.351,0.038c-0.367,0.027-0.758,0.042-1.172,0.042  c-3.332,0-5.156-0.968-5.31-1.325c0.168-0.385,1.989-1.346,5.31-1.346C60.907,29.339,62.732,30.275,62.946,30.671z M53.281,27.93  c-0.776,0.24-1.456,0.554-1.968,0.947c-0.753-0.579-1.869-0.988-3.126-1.237l-1.128-1.401h4.86L53.281,27.93z M62.779,19.528v0.952  h-3.713L62.779,19.528z M58.398,15.886c0.465-0.381,1.105-0.617,1.811-0.617c0.156,0,0.31,0.012,0.462,0.035l-0.757,0.194  L58.398,15.886z M55.631,18.659L55.631,18.659l2.687-0.688l5.72-1.464c0.169-0.041,0.331,0.054,0.373,0.22  c0.043,0.167-0.054,0.33-0.221,0.373l-7.799,2v0l-5.239,1.34l0.01,0.039h-1.315l-0.227-0.281L55.631,18.659z M46.063,7.989  l1.902-0.894c0.052-0.025,0.102-0.034,0.146-0.034c0.046,0,0.086,0.01,0.118,0.021c0.051,0.019,0.145,0.066,0.199,0.181  c0.082,0.174,0.006,0.382-0.167,0.464l-1.9,0.893C46.216,8.689,46,8.674,45.896,8.453C45.814,8.279,45.89,8.071,46.063,7.989z   M34.204,11.918c0-2.38,1.937-4.317,4.316-4.317c2.38,0,4.317,1.937,4.317,4.317c0,2.38-1.937,4.316-4.317,4.316  C36.141,16.235,34.204,14.298,34.204,11.918z M40.384,17.953c1.25-0.387,2.331-1.155,3.117-2.164l3.778,4.69h-4.86L40.384,17.953z   M55.639,22.479h8.782v1.76H31.899v-1.76H55.639z M27.673,45.663l1.493-0.599l1.493,0.599v4.402h-2.985V45.663z M28.749,19.469h1.15  v2.01v3.76v17.75h-0.721c-0.009,0-0.017,0-0.025,0h-0.404v-17.75v-3.76V19.469z M26.014,24.239v-1.76h0.735v1.76H26.014z   M32.031,44.058l-0.135-0.054c0-0.005,0.003-0.01,0.003-0.015v-17.75H44.49l0.892,1.107c-0.132-0.003-0.263-0.007-0.395-0.007  c-3.525,0-7.318,1.044-7.318,3.335V43.35h-0.112c-0.552,0-1,0.448-1,1v5.719h-3.899v-5.083  C32.658,44.578,32.41,44.211,32.031,44.058z M19.721,58.155c0,0.613-0.499,1.111-1.111,1.111h-1.307  c-0.613,0-1.111-0.499-1.111-1.111v-7.511c0-0.613,0.499-1.112,1.111-1.112h1.307c0.613,0,1.111,0.499,1.111,1.112V58.155z   M23.619,64.823c0-1.134,0.922-2.057,2.056-2.057h2.927c1.134,0,2.057,0.922,2.057,2.057v8.246c0,0.667-0.543,1.211-1.211,1.211  H24.83c-0.667,0-1.211-0.543-1.211-1.211V64.823z M29.365,86.237c0,0.103-0.031,0.202-0.089,0.287  c-0.672,0.974-1.162,2.05-1.455,3.197l-0.263,1.03H26.72l-0.264-1.03c-0.292-1.146-0.782-2.222-1.456-3.198  c-0.058-0.084-0.089-0.183-0.089-0.286v-2.368c1.129-0.41,1.938-1.494,1.938-2.763c0-1.265-0.809-2.345-1.938-2.754v-1.837h4.453  V86.237z M29.365,60.765h-4.453v-2.026h4.453V60.765z M73.929,50.069c-0.551,0-1.076-0.244-1.435-0.665  c-0.293-0.348-0.455-0.787-0.455-1.235c0-0.448,0.157-0.871,0.453-1.223c0.364-0.424,0.887-0.667,1.464-0.667  c0.125,0.002,0.247,0.015,0.365,0.04c0.017,0.003,0.032,0.011,0.048,0.015c0.1,0.024,0.199,0.052,0.292,0.09  c0.029,0.012,0.054,0.03,0.082,0.043c0.078,0.037,0.156,0.074,0.228,0.121c0.033,0.022,0.062,0.05,0.093,0.074  c0.061,0.046,0.123,0.09,0.178,0.142c0.035,0.034,0.064,0.074,0.097,0.111c0.044,0.05,0.092,0.096,0.131,0.151  c0.031,0.043,0.054,0.092,0.082,0.138c0.032,0.054,0.068,0.105,0.095,0.162c0.023,0.05,0.037,0.104,0.056,0.156  c0.021,0.059,0.047,0.115,0.062,0.176c0.014,0.056,0.018,0.115,0.026,0.173c0.01,0.062,0.024,0.123,0.027,0.188v0.253  C75.753,49.298,74.926,50.069,73.929,50.069z M85.765,42.4v0.889c0,0.122-0.099,0.22-0.22,0.22h-5.976V42.18h5.976  C85.666,42.18,85.765,42.279,85.765,42.4z M74.969,42.919c0-0.232,0.193-0.42,0.43-0.42h2.168v0.85h-0.748c-0.552,0-1,0.448-1,1  v0.417c-0.073-0.04-0.157-0.059-0.232-0.095c-0.12-0.057-0.242-0.106-0.369-0.151c-0.085-0.03-0.161-0.077-0.249-0.102V42.919z   M71.729,24.239c-0.552,0-1,0.448-1,1v20.724c-0.033,0.048-0.056,0.1-0.087,0.149c-0.045,0.072-0.087,0.144-0.127,0.218  c-0.064,0.118-0.119,0.238-0.17,0.362c-0.031,0.075-0.063,0.148-0.09,0.225c-0.047,0.136-0.081,0.275-0.113,0.415  c-0.015,0.068-0.036,0.134-0.047,0.202c-0.035,0.21-0.057,0.422-0.057,0.636c0,0.215,0.022,0.429,0.057,0.639  c0.011,0.069,0.032,0.135,0.047,0.203c0.032,0.141,0.066,0.281,0.113,0.418c0.026,0.076,0.058,0.149,0.088,0.223  c0.052,0.126,0.109,0.249,0.173,0.369c0.039,0.072,0.08,0.142,0.123,0.212c0.031,0.05,0.055,0.103,0.088,0.152v3.015h-38.2  c-0.455,0-0.853,0.308-0.968,0.748l-0.675,2.592h-0.502c-0.007,0-0.013-0.004-0.019-0.004h-6.453c-0.007,0-0.013,0.004-0.019,0.004  h-1.303v-4.67h45.99c0.552,0,1-0.448,1-1v-30.81h1.15v1.22c0,0.552,0.448,1,1,1h9.84v1.76H71.729z M77.269,29.838v-3.153h1.056  v1.625c0,0.552,0.448,1,1,1h0.869v1.056h-2.397C77.506,30.366,77.269,30.129,77.269,29.838z M88.981,30.402  c0,0.122-0.099,0.22-0.22,0.22h-6.567v-1.568h6.567c0.121,0,0.22,0.099,0.22,0.22V30.402z"/><text x="0" y="115" fill="#000000" font-size="5px" font-weight="bold" font-family="'Helvetica Neue', Helvetica, Arial-Unicode, Arial, Sans-serif">Created by Juan Pablo Pérez Beltrán</text><text x="0" y="120" fill="#000000" font-size="5px" font-weight="bold" font-family="'Helvetica Neue', Helvetica, Arial-Unicode, Arial, Sans-serif">from the Noun Project</text></svg>