<svg xmlns="http://www.w3.org/2000/svg" xmlns:xlink="http://www.w3.org/1999/xlink" version="1.1" x="0px" y="0px" viewBox="0 0 100 125" enable-background="new 0 0 100 100" xml:space="preserve"><path d="M80.656,50c0-16.904-13.752-30.656-30.656-30.656S19.344,33.096,19.344,50c0,5.682,1.567,11.161,4.524,15.975  c-1.016,1.517-1.61,3.339-1.61,5.298c0,5.265,4.283,9.549,9.548,9.549s9.549-4.284,9.549-9.549s-4.284-9.549-9.549-9.549  c-0.024,0-0.047,0.003-0.071,0.004c-2.262-3.5-3.453-7.52-3.453-11.727c0-11.976,9.743-21.718,21.718-21.718  S71.718,38.024,71.718,50c0,4.207-1.191,8.227-3.453,11.727c-0.024,0-0.047-0.004-0.071-0.004c-5.265,0-9.549,4.284-9.549,9.549  s4.284,9.549,9.549,9.549s9.548-4.284,9.548-9.549c0-1.959-0.594-3.781-1.61-5.298C79.09,61.161,80.656,55.682,80.656,50z   M38.354,71.272c0,3.611-2.938,6.549-6.549,6.549s-6.548-2.938-6.548-6.549c0-3.091,2.155-5.683,5.04-6.367  c0.002,0.002,0.003,0.005,0.005,0.007L30.32,64.9c0.478-0.112,0.974-0.177,1.486-0.177C35.417,64.724,38.354,67.662,38.354,71.272z   M74.718,50c0-13.63-11.088-24.718-24.718-24.718S25.282,36.37,25.282,50c0,4.374,1.146,8.564,3.303,12.295  c-0.936,0.337-1.803,0.814-2.579,1.41c-2.396-4.169-3.662-8.855-3.662-13.704c0-15.25,12.407-27.656,27.656-27.656  S77.656,34.75,77.656,50c0,4.849-1.267,9.536-3.662,13.704c-0.775-0.595-1.643-1.073-2.579-1.41  C73.572,58.564,74.718,54.374,74.718,50z M68.194,77.821c-3.611,0-6.549-2.938-6.549-6.549s2.938-6.549,6.549-6.549  c0.512,0,1.008,0.065,1.486,0.177l0.017,0.013c0.002-0.002,0.003-0.005,0.005-0.007c2.885,0.684,5.04,3.275,5.04,6.367  C74.743,74.883,71.805,77.821,68.194,77.821z"/><path d="M35.719,71.94c-0.515,0-0.952-0.395-0.996-0.917c-0.058-0.687-0.358-1.333-0.847-1.821c-0.61-0.609-1.458-0.919-2.312-0.848  c-0.554,0.05-1.034-0.364-1.079-0.915c-0.045-0.55,0.364-1.033,0.915-1.079c1.448-0.122,2.864,0.401,3.89,1.427  c0.822,0.822,1.329,1.912,1.426,3.069c0.046,0.55-0.363,1.034-0.913,1.08C35.775,71.939,35.747,71.94,35.719,71.94z"/><path d="M72.107,71.94c-0.515,0-0.952-0.395-0.996-0.917c-0.058-0.687-0.358-1.333-0.847-1.821c-0.61-0.609-1.456-0.919-2.312-0.848  c-0.558,0.05-1.033-0.364-1.079-0.915s0.364-1.033,0.915-1.079c1.451-0.122,2.864,0.401,3.89,1.427  c0.822,0.822,1.329,1.912,1.426,3.069c0.046,0.55-0.363,1.034-0.913,1.08C72.163,71.939,72.135,71.94,72.107,71.94z"/><text x="0" y="115" fill="#000000" font-size="5px" font-weight="bold" font-family="'Helvetica Neue', Helvetica, Arial-Unicode, Arial, Sans-serif">Created by Juan Pablo Pérez Beltrán</text><text x="0" y="120" fill="#000000" font-size="5px" font-weight="bold" font-family="'Helvetica Neue', Helvetica, Arial-Unicode, Arial, Sans-serif"></text></svg>