<?xml version="1.0" encoding="UTF-8"?>
<svg id="Layer_1" xmlns="http://www.w3.org/2000/svg" version="1.1" viewBox="0 0 841.89 595.28">
  <!-- Generator: Adobe Illustrator 29.5.1, SVG Export Plug-In . SVG Version: 2.1.0 Build 141)  -->
  <defs>
    <style>
      .st0 {
        fill: #fff;
        stroke: #000;
        stroke-miterlimit: 10;
      }
    </style>
  </defs>
  <path class="st0" d="M467.5,445.94c.08,1.72,2.16,2.18,2.49,2.73-.91-1.08-1.31-1.7-2.49-2.73Z"/>
  <path class="st0" d="M472.45,450.05c-.01-1.72-2.36-1.26-2.46-1.37.38.64-.39,2.13,0,2.73.39-.32,2.04.43,2.46-1.36Z"/>
  <path class="st0" d="M425.16,503.36c-1.59-.81-3.99-4.46-6.22-5.46l-2.37,4.23-.32-.57c-.48.78-.88,1.46-1.05,1.79,3.53,4.75,4.48.23,9.96,0Z"/>
  <path class="st0" d="M435.12,511.56c-.36-.77.78-3.33-.43-4.9-2.63-2.36-6.91-1.98-9.53-3.31l-2.48,10.93,12.44-2.73Z"/>
  <path class="st0" d="M462.52,445.94c1.63.18,3.34-.12,4.98,0-2.65-2.32-3.38-1.83-4.98-2.73.39.42-.34,1.92,0,2.73Z"/>
  <polygon class="st0" points="445.07 395.36 450.06 396.73 450.06 393.99 445.07 395.36"/>
  <path class="st0" d="M453.83,445.95l-1.28,2.72c4.46,1.02,3.91-1.7,4.98-2.73-1.25.22-2.71-.43-3.7.01Z"/>
  <path class="st0" d="M457.53,445.94c.79-.14,1.67.05,2.49,0v-2.73c-.78.87-1.68,1.96-2.49,2.73Z"/>
  <path class="st0" d="M522.29,331.11l-4.95,9.59,1.2,1.3c1.07-.88,2.57-2.54,3.75-2.68.5-2.28,3-5.01,2.49-8.2-.8.07-1.69.05-2.49,0Z"/>
  <path class="st0" d="M461.27,440.61c-1.18.49-.85,2.16-1.24,2.6h2.49c-.39-.22-.41-2.61-1.25-2.6Z"/>
  <path class="st0" d="M460.03,445.94l4.28,3.56c-.98-1-1.28-2.34-1.79-3.56-.79-.09-1.69-.05-2.49,0Z"/>
  <path class="st0" d="M577.08,295.56c.03-.16.56-.54,1.13-1.17l-.71-1.31,2.21-4.01c-.16-6.05-4.06-8.13-10.09-7.18l7.11,5.84.36,7.84Z"/>
  <path class="st0" d="M517.31,191.67c2.9,2.13,2.28,6.93,8.2,5.89l-4.69-8.63h-3.5c.13.87-.03,1.84,0,2.73Z"/>
  <path class="st0" d="M499.87,172.53h2.49l-.22-3.81c-.52-1.25-1.81-1.17-2.27-1.66-.28,1.72.4,4.07,0,5.47Z"/>
  <polygon class="st0" points="544.7 311.97 544.7 314.7 549.69 314.7 549.67 309.23 544.7 311.97"/>
  <path class="st0" d="M445.09,307.67l-.02-9.37-5.34,2.31c2.11,2.07,3.92,4.45,5.36,7.06Z"/>
  <path class="st0" d="M611.95,158.86c-.58.48-2.74-.29-2.49,2.73,1.22-.44,2.37-1.14,2.49-2.73Z"/>
  <path class="st0" d="M582.06,314.7c-1.82-1.48-7.42-4.82-7.49-1.37l7.49,4.1c.04-.91-.06-1.83,0-2.73Z"/>
  <path class="st0" d="M619.42,175.26c1.5-1.65,2.74-3.54,4.87-4.36l7.28,1.32,4.91-5.96-1.97-3.43-3.94,1.2-1.77-6.64-3.1.9-1.3-7.65-2.5,13.68-2.48-8.22c-4.65-1.34-5.05.76-7.47,2.76l4.98,16.4c.82.09,1.68-.13,2.49,0Z"/>
  <path class="st0" d="M445.08,489.69v2.73h2.49c-.25-.32.34-3.2-2.49-2.73Z"/>
  <path class="st0" d="M515.43,325.63l-1.73,3.09c2.2.7,4.76,2.14,8.58,2.4v-2.73c-.74-.75-2.38-1.9-2.49-2.73l-3.87-.08c-.18,0-.34.04-.49.07Z"/>
  <path class="st0" d="M118.82,366.65c-.79-1.84-1.74-3.61-2.49-5.47h-4.98c1.57.93,1.66,2.92,7.47,5.47Z"/>
  <path class="st0" d="M91.43,377.58h4.98s-2.49-5.46-2.49-5.46c-.09.32-3.62,1.49-2.48,5.46Z"/>
  <polygon class="st0" points="459.09 426.22 460.01 426.8 460.87 423.03 459.09 426.22"/>
  <polygon class="st0" points="296.9 238.14 295.87 227.36 292.23 233.74 296.9 238.14"/>
  <polygon class="st0" points="660.46 281.03 660.64 279.1 659.04 278.62 660.46 281.03"/>
  <polygon class="st0" points="173.59 384.42 171.12 383.05 171.12 385.79 173.59 384.42"/>
  <path class="st0" d="M88.93,358.45c-.21.4-.62.88-1.16,1.44l-4.05,7.17-5.74,10.16c4.16-.26,8-1.83,11.14-6.32,2.89-4.15,1.52-6.57,2.31-9.71,1-3.96,3.39-7.76,3.04-13.12l-4.8,8.49c-.19.67-.42,1.31-.73,1.9Z"/>
  <path class="st0" d="M198.52,470.55c-1.76,1.35-3.93,2.61-5.51,4.38l2.17,4.01c.22-.03.43-.07.63-.12l6.32-11.29c-3.32-.4-2.97,2.53-3.61,3.03Z"/>
  <polygon class="st0" points="488.91 130.31 487.43 127.6 487.44 131.51 488.91 130.31"/>
  <polygon class="st0" points="454.43 434.53 451.52 439.73 453.81 440.44 454.43 434.53"/>
  <polygon class="st0" points="422.67 495.14 421.9 492.61 420.71 494.73 422.67 495.14"/>
  <path class="st0" d="M455.57,512.04l.58,1.45.97-1.75c-.46.16-.96.27-1.55.31Z"/>
  <polygon class="st0" points="450.05 517.03 450.08 522.47 451.03 522.79 454.2 517.02 450.05 517.03"/>
  <path class="st0" d="M439.16,520.01c-1.01-.75-2.97-6.16-4.04-8.45,1.78,8.27-.73,3.45-3.72,4.1-4.59.98-8.88,3.6-12.49,6.81l-2.45-8.15c-4.06,3.17-3.74,10.97-1.41,15.07l-9.81,1.31,7.46-16.38-8.72,5.44-1.22-4.07,12.47-4.13-2.08-6.37c.23-1.32,1.84-1.4,2.05-1.82-1.37-1.85-2.06-5.54-4.97-5.48l-4.99,5.46,5.23-10.78.8.17-43.87-77.71-.74.82-3.72-4.09,1.2-1.32,1.77,1.95-4.85-8.59,68.31.5.5-1.78-9.67-7.51,2.5-14.68,4.95,2.77.15-10.79,14.85,1.15-2.53,17.81h7.45s-2.43-9.69-2.43-9.69l6.2-9.42-3.75,8.15,7.45,1.4,2.53,6.81-7.48,5.47,2.46,1.37-2.46,1.37-7.44,4.09,4.34,3.6,15.56.11v-2.32s3.71,0,3.71,0l1.08,2.35,3.89.03-2.13,3.8,2.17,4.71-3.56-2.23-2.46,4.39,1,3.31,6.25-2.72c-.18,9.25,2.88,14.06,10.1,17.99l-5.12,23.03c-4.91,1.16-5.34-2.17-7.46-5.46-1.77,1.48-5,2.32-4.99,5.43,5.87-.19,8,5.68,9.97,10.95l-14.86-8.18-5.06,8.19,2.48-10.92h-7.47s4.95,17.78,4.95,17.78l-6.19-6.85,1.21,9.58-6.27,1.12-2.42,8.4c-7.23-4.99.68-6.53.55-9.51-1.62-4.54-3.73-7.17-6.31-9.23l-3.73,6.65,3.25,1.2v2.7s-5.44,0-5.44,0l-4.19,7.48c10.31-.09,7.29,10.62,17.11,15.78l-4.98,1.37,4.98,5.46,1.25-2.7c1.57,0,1.13,2.62,1.25,2.7.93.7,4.72,2.83,4.98,2.73,1-.36.66-5.3,2.49,0,9.52-3.85,3.19-16.3-3.74-5.49l-3.71-4.09,4.94-2.7c-2.31-1.75-3.37-4.55-4.97-6.86-.31-.45-1.9-.24-2.46-1.34.11-1.78,2.3-1.22,2.46-1.39,5.79-5.95,9.76-.28,12.45,5.45l-9.96-2.72c4.45,5.85,7.2,8.56,14.95,8.22-.59,1.09-.96,2.33-1.27,3.58l12.29-22.33c-2.09-3.91-4.21-8.04-3.57-8.59l9.45-2.09,36.5-66.29,31.28.23v-.21s6.1.11,6.1.11l.1.14,43.96.32,30.44,54.96,1.57-.87-.66,2.52,4.26,7.7,1.38-2.02.66,5.71,4.54,8.19,20.45-35.43-3.11-4.27,1.16-.89-15.23-28h-3.46v-2.7h1.99l-2.02-3.7v.95h-2.46v-5.45h2.46v3.62l12.55.09c.12-.53.51-.99,1.16-.99s1.05.46,1.17,1l79.69.58,41.02.29-22.88-39.75-60.03-104.31h-.35v-.61l-4.37-7.6h-3.11s0-5.39,0-5.39l-10.04-17.45-14.35,27.38,5.71-1.76-6.2,7.02-1.67-1.15-1.23,2.34,5.17.07c-1.27,8.79,5.46,6.59,4.84,15.03l7.78,6.72-9.94-2.72.7,4.11,16.72,28.57v-2.59h4.97v2.7h-4.9l3.09,5.28c2.9,2.31,5.22,5.64,5.39,9.21l2.52,4.3c3.31-1.51,4.21-6.41,3.89-10.59l19.91,5.5c1.53,5.17-2.91,6.96-6.27,8.22-1.52.57.05-8.77-6.19-5.49l2.5,8.19-6.29,2.71-4.94-8.14-.82,2.69,5,8.53c.2-.19.46-.32.8-.32,1.41,0,1.59,2.08.54,2.61l1.69,2.88c.08-.02.17-.03.26-.03,1.15,0,1.48,1.38.99,2.18l6.97,11.9h-19.52c.63.76.34,2.33-.89,2.33s-1.52-1.57-.89-2.33h-28.11c.63.76.34,2.33-.89,2.33s-1.52-1.57-.89-2.33h-29.12l1.34,3.71-1.2,1.32-2.3-5.03h-10.59l-5.92-10.87-9.67,2.56c-.77,5.32,1.98,9.41-5.15,7.9l2.34-12.1-7.34-4.34,2.72-10.61,6.83-2.29-14.26-26.21-.28.85-4.95-5.45c-.15,2.71.16,5.49-.01,8.19.54.44,1.21.66,1.49,1.4-.04.79-1.4,1-1.49,1.33-1.52,5.57-3.51,10.71-5.19,16.18l-7.25.21c-.8-4.39,2.95-1.6,5.05-4.43,2.54-3.42,2.43-6.69-1.32-9.18l-6.36,6.38-4.85-2.32,6.42-3.93-1.3-7.98,8.63-5.87c2.11-3.37.63-7.81,1.19-10.93l-12.45-.02,7.44-4.07-4.58-6.03c-.53-2.2,2.08-3.24,2.12-3.56.33-2.96-3.12-7.54-2.49-8.19l11.22,5.42.02-5.47,6.01,2.69,6.42-10.82c2.33,1.34-1.05,3.8-.84,4.92l4.84-8.79-2.74-3.01,1.2-1.32,2.44,2.68,25.41-46.17,11.13-20.21-5.32,4.9,4.95-12.3-14.93-2.77,9.94-2.72c1.35-8.41-2.93-4.76-7.46-5.47-.37.4.02,2.16-1.23,2.7-1.63-.08-1.07-2.45-1.26-2.7-3.15-4.16-4.51-9.36-7.47-13.67-1.09.39-1.97.8-2.78,1.13l-5.36,9.56,3.12-1.14-3.71,4.09-.48-1.04-1.15,2.05-5.59,9.98h3.48v2.7h-4.97v-.04l-1.57,2.8h1.55v5.45h-2.46v-3.82l-6.39,11.41c1.8,2.19-.25,3.02-.45,5.44-.99,11.98.1,6.01,3.59,9.39.36.35-2.44,9.59,5.72,7.64l-4.97-5.44,7.45-2.73-9.95-2.78c-1.38-7.1,1.79-4.04,5.16-6.93l-2.66-9.44c8.25-2.43,2.75,6.18,6.41,8.39l11.01-.19-4.97,4.08,7.46,5.47-12.17,9.9c1.98,4.68,2.85,7.22-1.53,10.6l-3.57-6.94c-7.24,1.86-9.34-.74-13.87-6.69l-4.98,10.87-1.04-6.81-6.97,12.44c.16-.08.34-.13.55-.13,1.62,0,1.62,2.73,0,2.73-.83,0-1.23-.72-1.21-1.43l-6.28,11.21-20.05-36.83c-4.89.68-4.48-4.42-4.4-8.08l-1.95-3.58-19.64-5.03-5,8.2,3.68-11.18,8.76.25c-.02-1.81.07-3.66,0-5.48-2.29-1.68-2.23-.84-5.99-4.42l-3.96-3.77c2.37-.38,5.35.51,7.46-.02-.2-1.78-.05-3.66.01-5.52l-1.62-2.97-4.35.49-2.7-5.63-3.81,2.69-7.44,6.85c1.72-2.03,4.19-4.19,4.95-6.85l-7.48-6.85,1.25-4.08c1.39,2.66,4.68,3.81,6.23,5.46.79-4.76-2.14-7.27,3.77-3.08l-1.28-7.84.99.72-1.56-2.87-4.43,4.86h-2.46s1.22-5.47,1.22-5.47l4.31-1.88-10.44-19.19-5.06,10.13-.03-16.42-4.93,2.77c-.47-2.82-.95-7.08-2.34-9.29-1.68-2.67-6.06.08-5.16-4.38l8.88,1.32-30.34-55.75-2.22,2.43-1.2-1.32,2.52-2.77-9.56-17.56-18.99-34.91-22.88,40.17-18.7,32.84h.33v2.7h-1.86l-20.56,36.11v4.91s-2.79,0-2.79,0l-27.1,47.6v4.36l-1.69-1.4-24.75,43.48-2.17,7.07,3.2,4.53-1.99,9.19,7.49,2.73-13.7-2.71-2.48,5.46-2.74-4.5-1.65,2.89.64,7.07-3.78-1.56-1.5,2.63,2.76,3.06-6.22,3.03-.85,1.49-.48-.84-7.13,3.48,2.3,5.12c-2.47.26-5.07-.28-7.52.01l2.48,4.16,7.47-1.42-4.48,3.1-.51,10.55-4.82-11.98-5.12-1.7c-.74-4.35,2.45-2.42,4.97-2.71l2.12-26.71-35.01-61.99-13.2-23.4-2.49,5.44-1.2-1.32,2.35-6.5-6.23-11.05-19.97,35.31h1.39v3.5s4.16,7.5,4.16,7.5c.57.21.84.83.79,1.42l3.72,6.71s.04,0,.06,0c1.08,0,1.44,1.22,1.07,2.03l9.31,16.78,33.58,60.49h4.6v2.7h-3.1l9.99,18-3.78,6.64h1.87s0,5.46,0,5.46l-4.52-.8-6.13,10.77,3.19-1.76v2.7l-4.95,2.16-27.03,47.48h-89.19l54.39-97.89-20.85-38.29-1.03,1.83c.08-.02.16-.03.25-.03,1.62,0,1.62,2.73,0,2.73-.69,0-1.08-.49-1.18-1.06l-59.55,105.35,4.66,6.46-4.95-1.38.24,13.48,2.25.19c.38-1.44-.25-3.72.01-5.46h2.46c.16,1.78-.2,3.71.01,5.46,2.59.96,4.53.99,7.47,2.73l3.74-2.73c.7.2.7,2.48,1.24,2.73,4.01,1.81,8.59.74,7.46,8.2-.56.74-3.38-2.04-4.97-2.73.82,1.91.82,5.64,2.49,8.19l-4.99-5.45-3.88,5.65-8.54-2.94,4.98-6.8c-.49-3.12-3.87,2.37-4.99-6.85-.74-.28-1.73.26-2.49,0-.94,3.59-.1,2.73-2.49,5.47-.15.17.33,2.7-1.25,2.7l-1.25-2.7c-3.65,1-1.82,5.73-2.49,8.2l7.47,5.45c-1.54.34-3.94-.49-4.98.02-.98.47-7.29,6.27-7.45,7.01,4.45,6.84,3.92,10.41,4.91,17.23l4.92.03-4.86-13.33,7.3,1.37-1.81-3.6,8.22-5.95-3.76,12.23,3.7,1.4,6.26-13.66c-.14,4.72,1.02,9.24,1.08,13.92.05,4.39-4.1,5.96,3.92,5.19l-1.17-13.72c2.44-5.73,7.53-3.02,8.74-4.08,2.64-2.31.98-7.58,4.86-6.78l2.51,8.16-12.43,6.88,9.92-4.14c.1,5.49-1.97,9.77,4.99,8.21l2.48-13.64v9.57s2.48-4.09,2.48-4.09h4.97s3.02,12.42,3.02,12.42l4.47-1.51-1.41,5.54,9.58.07c.16-.08.34-.13.55-.13s.41.05.57.14l14.02.1c-.96-6-4.94-8.75-5.87-16.65-.38-3.2-.02-1.7,0-2.73.07-3.64-.07-7.31.01-10.94l7.2,3.03c-3.08,7.04,2.64,10.49,5.24,16.09l-7.46-5.44-.12,6.82,4.58,1.81-2.02,5.02,7.53.02c.16,1.32.22,2.31.2,3.04l9.84.07-6.12,10.75c.94,1.44,1.45,3.08,1.03,5.26l-2.89-1.99-10.08,17.71,11.76,8.85c8.11-5.41-3.06-8.33-3.17-12.18-.03-.97,1.63-8.08,4.39-6.91l-.94,8.09,13.36,4.16c-2.89,3.36-2.68,24.57-.75,30.17l13.05-23.31h-2.28v-2.7h3.79l12.26-21.91h-3.6v-2.7h4.97v.26l1.68-3.01h-9.13s0-5.46,0-5.46l6.22-2.71,3.36,7.38,5.29-9.45,5.21.04c.18-.42.53-.73,1.08-.73s.92.32,1.09.75l50.02.37c.09-.59.49-1.11,1.19-1.11s1.11.54,1.2,1.13l20.14.15,63.01,113.54,1.68-1.36c2.08-7.61,5.78-6.19,11.12-9.54l1.21,8.2c-5.76-3.79-8.77,1.66-13.18,4.23l12.59,22.69,23.2,41.79,21.89-39.78,8.36-15.19c-.26-8.25-4.13-4.43-8.97-8.04ZM456.29,393.99c-1.62,0-1.62-2.73,0-2.73s1.62,2.73,0,2.73ZM433.87,484.22c-1.62,0-1.62-2.73,0-2.73s1.62,2.73,0,2.73ZM438.86,495.15c-1.62,0-1.62-2.73,0-2.73s1.62,2.73,0,2.73ZM448.82,484.22c-1.62,0-1.62-2.73,0-2.73s1.62,2.73,0,2.73ZM463.76,497.89c-1.62,0-1.62-2.73,0-2.73s1.62,2.73,0,2.73ZM478.72,465.05l-3.72-4.08,1.2-1.32,3.72,4.08-1.2,1.32ZM640.59,424.07c1.62,0,1.62,2.73,0,2.73s-1.62-2.73,0-2.73ZM618.18,435c-1.62,0-1.62-2.73,0-2.73s1.62,2.73,0,2.73ZM625.65,440.47c-1.62,0-1.62-2.73,0-2.73s1.62,2.73,0,2.73ZM631.87,456.86h-4.97v-2.7h4.97v2.7ZM631.86,448.67l-4.96-4.11v-1.34s4.97,0,4.97,0v5.46ZM624.17,424.3l-7.24,2.52-2.5-8.21c10.42-2.74,13.85,4.45,22.02,8.59l-.83,7.78c-3.95-4.63-11.69-3.16-11.45-10.69ZM635.61,454.14c-1.62,0-1.62-2.73,0-2.73s1.62,2.73,0,2.73ZM669.23,270.94h-4.97v-2.7h4.97v2.7ZM671.71,279.15h-2.46v-5.45h2.46v5.45ZM669.25,265.49v-5.46s4.97,0,4.97,0l-4.97,5.45ZM677.95,284.63c-1.62,0-1.62-2.73,0-2.73s1.62,2.73,0,2.73ZM677.95,260.02c-1.62,0-1.62-2.73,0-2.73s1.62,2.73,0,2.73ZM679.18,246.34h-2.46v-5.45h2.46v5.45ZM680.44,254.55c-1.62,0-1.62-2.73,0-2.73s1.62,2.73,0,2.73ZM690.4,320.17c-1.62,0-1.62-2.73,0-2.73s1.62,2.73,0,2.73ZM702.86,372.12c1.62,0,1.62,2.73,0,2.73s-1.62-2.73,0-2.73ZM691.66,374.87h4.97v2.7h-4.97v-2.7ZM675.46,399.46c-1.62,0-1.62-2.73,0-2.73s1.62,2.73,0,2.73ZM687.91,374.85c1.62,0,1.62,2.73,0,2.73s-1.62-2.73,0-2.73ZM675.47,383.09l1.2,1.32-3.72,4.09-1.2-1.32,3.72-4.08ZM665.5,374.85c1.62,0,1.62,2.73,0,2.73s-1.62-2.73,0-2.73ZM620.67,197.13c1.62,0,1.62,2.73,0,2.73s-1.62-2.73,0-2.73ZM605.72,175.26c1.62,0,1.62,2.73,0,2.73s-1.62-2.73,0-2.73ZM604.49,202.59h-9.97s7.49-21.85,7.49-21.85l1.24,8.22,3.71-.05-2.47,13.68ZM615.69,199.87c1.62,0,1.62,2.73,0,2.73s-1.62-2.73,0-2.73ZM615.69,208.07c1.62,0,1.62,2.73,0,2.73s-1.62-2.73,0-2.73ZM609.47,186.21h2.46s2.51,8.18,2.51,8.18h-4.97s0-8.18,0-8.18ZM610.7,221.74c-1.62,0-1.62-2.73,0-2.73s1.62,2.73,0,2.73ZM608.21,167.06c1.62,0,1.62,2.73,0,2.73s-1.62-2.73,0-2.73ZM611.95,224.49l-2.51,8.18h-2.46s0-8.18,0-8.18h4.97ZM603.22,232.71l3.72,4.09-1.2,1.32-3.72-4.09,1.2-1.32ZM589.54,246.36h4.97v2.7h-4.97v-2.7ZM589.54,251.83c3.37,1.35,9.95-3.63,9.93-1.4l-9.93,4.1v-2.7ZM579.58,238.16l6.23-2.71,3.7,4.06-3.7,4.06-6.23-2.71v-2.7ZM580.83,243.65l1.2,1.32-3.72,4.09-1.2-1.32,3.72-4.09ZM204.74,164.32c-1.62,0-1.62-2.73,0-2.73s1.62,2.73,0,2.73ZM207.23,194.4c-1.62,0-1.62-2.73,0-2.73s1.62,2.73,0,2.73ZM207.23,175.26c-1.62,0-1.62-2.73,0-2.73s1.62,2.73,0,2.73ZM209.72,186.2c-1.62,0-1.62-2.73,0-2.73s1.62,2.73,0,2.73ZM213.44,164.32h-2.46v-5.45h2.46v5.45ZM212.2,156.09l-1.2-1.32,3.72-4.09,1.2,1.32-3.72,4.09ZM115.08,331.11c1.62,0,1.62,2.73,0,2.73s-1.62-2.73,0-2.73ZM111.35,342.03v-5.46s4.97,5.45,4.97,5.45h-4.97ZM120.06,306.5c1.62,0,1.62,2.73,0,2.73s-1.62-2.73,0-2.73ZM118.82,344.76v-1.34s4.97-4.11,4.97-4.11v5.46s-4.97,0-4.97,0ZM125.04,377.59c-1.62,0-1.62-2.73,0-2.73s1.62,2.73,0,2.73ZM149.95,377.59c-1.62,0-1.62-2.73,0-2.73s1.62,2.73,0,2.73ZM158.67,372.13h4.97v2.7h-4.97v-2.7ZM159.91,383.05c-1.62,0-1.62-2.73,0-2.73s1.62,2.73,0,2.73ZM165.98,396.59l-7.07-.02-1.5-10.75,11.19,4.05-2.62,6.71ZM173.58,400.84l-1.2,1.32-3.72-4.08,1.2-1.32,3.72,4.08ZM242.1,342.04c1.62,0,1.62,2.73,0,2.73s-1.62-2.73,0-2.73ZM239.61,331.11c1.62,0,1.62,2.73,0,2.73s-1.62-2.73,0-2.73ZM239.61,369.38c1.62,0,1.62,2.73,0,2.73s-1.62-2.73,0-2.73ZM234.63,361.18c1.62,0,1.62,2.73,0,2.73s-1.62-2.73,0-2.73ZM229.65,380.32c1.62,0,1.62,2.73,0,2.73s-1.62-2.73,0-2.73ZM222.18,372.12c1.62,0,1.62,2.73,0,2.73s-1.62-2.73,0-2.73ZM220.95,388.52l4.97,5.45h-4.97s0-5.45,0-5.45ZM228.4,396.74v2.7h-4.97v-2.7h4.97ZM219.69,383.05c1.62,0,1.62,2.73,0,2.73s-1.62-2.73,0-2.73ZM210.98,388.52l4.97,5.45h-4.97s0-5.45,0-5.45ZM208.46,391.27v4.07s-6.23,6.83-6.23,6.83l-1.2-1.32,4.97-9.57h2.46ZM198.53,374.85h1.22s3.71,4.1,3.71,4.1l-4.94,4.1v-8.2ZM200.99,385.8v5.45h-2.46v-5.45h2.46ZM193.53,369.39v5.46s-1.23,0-1.23,0l-3.74-5.44h4.97ZM191.06,402.18l-9.97-27.32,6.21,8.17,6.21-5.44,2.53,8.19-7.51.02c-3.02,2.1,9.73,14.98,2.52,16.39ZM196.04,399.45v-5.45h2.46v5.45h-2.46ZM207.23,410.4c-1.62,0-1.62-2.73,0-2.73s1.62,2.73,0,2.73ZM193.55,429.53c-2.53-8.66,10.25-5.84,12.46-8.22l-2.5-8.18,7.46,8.18-17.42,8.23ZM206.34,443.73l-2.83,4.94,3.72-8.16,2.5,5.37-3.39-2.15ZM210.95,437.73h-2.46s0-8.18,0-8.18h4.97s-2.51,8.18-2.51,8.18ZM219.69,426.8c-1.62,0-1.62-2.73,0-2.73s1.62,2.73,0,2.73ZM219.69,415.86c-1.62,0-1.62-2.73,0-2.73s1.62,2.73,0,2.73ZM234.61,404.9c-.92-2.73,2.01-7.18,3.16-10.17,2.21-5.74,2.89-3.38,8.05-3.46l-11.21,13.63ZM252.06,314.7c-1.62,0-1.62-2.73,0-2.73s1.62,2.73,0,2.73ZM377.82,393.99h-1.22s-3.73-4.13-3.73-4.13v-4.07s4.96,0,4.96,0v8.19ZM417.69,291.97v-1.86h4.97v2.12c6.02.82,11.47,3.41,15.82,7.22l-.86-3.88,9.51.77.97,3.82c7.12-.86,12.56,4.33,14.43,11.79l-9.96,2.75c-.91-1.18,4.25-14.24-1.26-13.64-4.01.44-1.82,8.98-3.82,12.31.85,2.8,1.32,5.77,1.32,8.86,0,8.61-3.6,16.38-9.36,21.89l5.62-2.08v8.2l-7.45-2.75v-1.76c-5.21,4.24-11.85,6.78-19.09,6.78-16.73,0-30.29-13.56-30.29-30.29,0-7.39,2.65-14.15,7.04-19.4v-1.78h1.61c5.32-5.43,12.66-8.86,20.8-9.08ZM403.99,284.63c1.62,0,1.62,2.73,0,2.73s-1.62-2.73,0-2.73ZM406.48,260.02c1.62,0,1.62,2.73,0,2.73s-1.62-2.73,0-2.73ZM407.73,290.08v-2.7h7.46v2.7h-7.46ZM446.33,279.16c1.62,0,1.62,2.73,0,2.73s-1.62-2.73,0-2.73ZM458.79,287.35l-3.74-5.44h4.97s0,5.45,0,5.45h-1.22ZM460,294.18l-3.72,4.09-1.2-1.32,3.72-4.08,1.2,1.32ZM457.55,355.71v-8.2h1.22s3.71,4.1,3.71,4.1l-4.94,4.1ZM458.78,363.92c-1.62,0-1.62-2.73,0-2.73s1.62,2.73,0,2.73ZM453.8,363.92c-1.62,0-1.62-2.73,0-2.73s1.62,2.73,0,2.73ZM450.05,347.52v5.45h-2.46v-5.45h2.46ZM446.33,366.65c-1.62,0-1.62-2.73,0-2.73s1.62,2.73,0,2.73ZM431.38,352.98c-1.62,0-1.62-2.73,0-2.73s1.62,2.73,0,2.73ZM389.04,306.5c1.62,0,1.62,2.73,0,2.73s-1.62-2.73,0-2.73ZM389.04,287.36c1.62,0,1.62,2.73,0,2.73s-1.62-2.73,0-2.73ZM463.76,363.92c1.62,0,1.62,2.73,0,2.73s-1.62-2.73,0-2.73ZM397.78,374.85l7.45,2.74-3.73,8.16-6.23-2.72,2.5-8.19ZM403.99,399.43l-3.73-4.08v-1.34s7.46,0,7.46,0l-3.74,5.42ZM411.46,372.12c-1.62,0-1.62-2.73,0-2.73s1.62,2.73,0,2.73ZM416.44,377.59c-1.62,0-1.62-2.73,0-2.73s1.62,2.73,0,2.73ZM456.29,374.85c-1.62,0-1.62-2.73,0-2.73s1.62,2.73,0,2.73ZM460.03,377.58v-5.46s4.97,5.45,4.97,5.45h-4.97ZM466.25,372.12c-1.62,0-1.62-2.73,0-2.73s1.62,2.73,0,2.73ZM478.7,404.93c-1.62,0-1.62-2.73,0-2.73s1.62,2.73,0,2.73ZM480.05,390.04l-10.04,1.21,7.2-5.75,5.24-7.91-2.39,12.45ZM475,370.74l1.2-1.32,3.72,4.09-1.2,1.32-3.72-4.09ZM494.81,424.08l-9.89-2.75,6.26-19.12c13.51,4.47,6.23,11.7,3.63,21.87ZM504.84,391.25h-2.46v-5.45h2.46v5.45ZM514.83,393.99c-1.64-3.42,3.98-9.54,4.95-8.2,1.64,3.42-3.98,9.54-4.95,8.2ZM523.52,383.02l-1.2-1.32,3.72-4.09,1.2,1.32-3.72,4.09ZM529.78,355.7l-4.97-9.57,9.92-1.35-4.95,10.92ZM535.99,372.12c-1.62,0-1.62-2.73,0-2.73s1.62,2.73,0,2.73ZM542.22,398.08c.44-2.6,2.98-.65,4.32-1.64l-2.91-5.32c-.98-.22-1.7-.76-1.41-2.58l1.41,2.58c1.88.42,4.76-.37,3.57,4.22-.14.55-.38.89-.66,1.1l3.14,5.74-7.46-4.1ZM548.45,377.55l-6.23-2.71v-2.7s9.92,1.34,9.92,1.34l-3.7,4.08ZM559.63,385.78h-2.46v-5.45h2.46v5.45ZM580.82,377.59c-1.62,0-1.62-2.73,0-2.73s1.62,2.73,0,2.73ZM614.44,402.18v-1.34s3.74-4.08,3.74-4.08l3.74,5.42h-7.47ZM653.04,374.85c1.62,0,1.62,2.73,0,2.73s-1.62-2.73,0-2.73ZM646.83,396.73h2.46v5.45h-2.46v-5.45ZM645.57,377.59c1.62,0,1.62,2.73,0,2.73s-1.62-2.73,0-2.73ZM639.36,369.39h2.46l-3.74,8.16-1.2-1.32,2.48-6.84ZM641.81,380.35c.48,8.05,7.4,2.83,2.51,13.63l-7.45-12.3,4.94-1.33ZM630.63,383.05c1.62,0,1.62,2.73,0,2.73s-1.62-2.73,0-2.73ZM634.36,388.53v5.46s-1.23,0-1.23,0l-3.74-5.44h4.97ZM619.43,369.39l9.93,6.84-9.93,1.35c-.85,8.05-.16,12.12-9.95,10.93l2.5-16.4c.94-1.29,5.01,5.1,7.46,5.47.28-2.65-.2-5.51,0-8.19ZM573.35,352.98c1.62,0,1.62,2.73,0,2.73s-1.62-2.73,0-2.73ZM569.63,344.78h2.46v5.45h-2.46v-5.45ZM563.4,331.14l1.2,1.32-3.72,4.09-1.2-1.32,3.72-4.08ZM576.06,367.06h-39.29l4.84-8.8c-.17.12-.39.19-.64.19-1.62,0-1.62-2.73,0-2.73.87,0,1.27.79,1.2,1.53l14.19-25.78,19.7,35.59ZM545.96,303.76l6.21-5.47,2.09,12.06c-.45,3.02-4.31,3.79-4.57,4.35-.48,1.03.33,3.8-.01,5.47-3.02.07-3.71-3.62-4.97-5.47-.08-.12-2.46.35-2.46-1.37l2.46-1.37-2.43-3.95-5.03,1.22,2.49-13.69c8.81-2.18.66,5.48,6.22,8.21ZM548.44,270.96c1.62,0,1.62,2.73,0,2.73s-1.62-2.73,0-2.73ZM553.42,260.02c1.62,0,1.62,2.73,0,2.73s-1.62-2.73,0-2.73ZM542.22,328.39h4.97v2.7h-4.97v-2.7ZM562.06,299.58l5.05-1.27v5.43s-8.72,5.47-8.72,5.47l3.67-9.63ZM555.91,279.16c1.62,0,1.62,2.73,0,2.73s-1.62-2.73,0-2.73ZM542.21,284.64v2.7s-7.45,2.75-7.45,2.75v-5.46s7.45,0,7.45,0ZM538.49,279.13l-3.72-4.09,1.2-1.32,3.72,4.09-1.2,1.32ZM535.99,238.15c1.62,0,1.62,2.73,0,2.73s-1.62-2.73,0-2.73ZM538.48,229.94c1.62,0,1.62,2.73,0,2.73s-1.62-2.73,0-2.73ZM530.99,219.04l6.21,6.82-1.2,1.32-6.21-6.82,1.2-1.32ZM528.52,257.28c1.62,0,1.62,2.73,0,2.73s-1.62-2.73,0-2.73ZM529.73,269.6l-7.44-5.49,4.97-1.35,2.47,6.84ZM526.03,208.07c1.62,0,1.62,2.73,0,2.73s-1.62-2.73,0-2.73ZM516.06,210.8c1.62,0,1.62,2.73,0,2.73s-1.62-2.73,0-2.73ZM511.08,208.07c1.62,0,1.62,2.73,0,2.73s-1.62-2.73,0-2.73ZM503.62,178.03l1.2,1.32-3.72,4.09-1.2-1.32,3.72-4.09ZM502.36,213.55v5.46s-1.23,0-1.23,0l-3.74-5.44h4.97ZM489.92,194.42h9.95v2.7h-9.95v-2.7ZM486.18,177.99c1.62,0,1.62,2.73,0,2.73s-1.62-2.73,0-2.73ZM472.47,120.57c-2.41,12.34,16.12,11.43,7.61,23.44l3.04,1.23,1.8,5.42-7.47-2.72,1.39,4.89-8.83,3.3,4.9-7.36c7.73-18.9-5.56-15.76-7.38-21.38-1.54-4.77-.48-8.28,4.94-6.81ZM483.69,188.93c-1.62,0-1.62-2.73,0-2.73s1.62,2.73,0,2.73ZM479.94,172.53v5.46s-7.45,0-7.45,0v-2.7s7.45-2.75,7.45-2.75ZM478.7,161.59c1.62,0,1.62,2.73,0,2.73s-1.62-2.73,0-2.73ZM468.74,164.32c-1.62,0-1.62-2.73,0-2.73s1.62,2.73,0,2.73ZM466.25,131.51c1.62,0,1.62,2.73,0,2.73s-1.62-2.73,0-2.73ZM460,105.54l-4.94,4.1-2.51-8.19c3.69-.89,5.17,1.17,7.44,4.09ZM453.8,95.97c1.62,0,1.62,2.73,0,2.73s-1.62-2.73,0-2.73ZM450.07,85.05h4.97v2.7h-4.97v-2.7ZM447.59,109.64c.52-.69,12.49,6.96,12.44,10.92l-13.72-2.85,1.28-8.07ZM445.07,79.58l-4.5,3.11,1.96,3.72-4.89-2.74,7.43-4.09ZM441.39,106.91l1.19,10.92h-2.46s-2.49-13.66-2.49-13.66l3.76,2.74ZM441.35,90.5c1.62,0,1.62,2.73,0,2.73s-1.62-2.73,0-2.73ZM433.87,90.5c-1.62,0-1.62-2.73,0-2.73s1.62,2.73,0,2.73ZM431.38,74.1c-1.62,0-1.62-2.73,0-2.73s1.62,2.73,0,2.73ZM428.89,63.16c1.62,0,1.62,2.73,0,2.73s-1.62-2.73,0-2.73ZM423.91,60.43c1.62,0,1.62,2.73,0,2.73s-1.62-2.73,0-2.73ZM416.44,52.22c1.62,0,1.62,2.73,0,2.73s-1.62-2.73,0-2.73ZM418.95,73.45l-1.22-6.22c1.3-1.49,6.56,2.09,7.34,2.86,1.36,1.34,8.06,11.7,7.56,12.2-7.68-1.87-8.63-7.48-17.43-2.73l.03-6.89,3.72.78ZM411.47,85l-6.21-6.8,7.44-4.09c-3.24,4.76-.27,7.72-1.23,10.89ZM403.98,85.04l3.71,4.09c-2.28,2.92-3.75,4.97-7.44,4.09l3.73-8.18ZM401.5,74.1c1.62,0,1.62,2.73,0,2.73s-1.62-2.73,0-2.73ZM403.99,60.43c1.62,0,1.62,2.73,0,2.73s-1.62-2.73,0-2.73ZM408.97,63.16c1.62,0,1.62,2.73,0,2.73s-1.62-2.73,0-2.73ZM395.24,86.39l-4.83,5.49,9.82,12.29-11.27-10.83-3.65-8.3,9.93,1.35ZM391.53,104.17c-1.62,0-1.62-2.73,0-2.73s1.62,2.73,0,2.73ZM391.53,115.11c-1.62,0-1.62-2.73,0-2.73s1.62,2.73,0,2.73ZM386.55,109.64c-1.62,0-1.62-2.73,0-2.73s1.62,2.73,0,2.73ZM384.06,112.38c1.62,0,1.62,2.73,0,2.73s-1.62-2.73,0-2.73ZM382.81,117.86v2.7s-9.94,2.74-9.94,2.74v-2.7s9.94-2.74,9.94-2.74ZM379.08,136.98c-1.62,0-1.62-2.73,0-2.73s1.62,2.73,0,2.73ZM377.83,145.2v2.7h-4.97v-2.7h4.97ZM374.1,106.91c1.62,0,1.62,2.73,0,2.73s-1.62-2.73,0-2.73ZM379.08,98.7c1.62,0,1.62,2.73,0,2.73s-1.62-2.73,0-2.73ZM372.87,93.24h2.46s-3.74,10.9-3.74,10.9l-1.2-1.32,2.47-9.58ZM371.61,131.51c-1.62,0-1.62-2.73,0-2.73s1.62,2.73,0,2.73ZM366.63,134.25c1.62,0,1.62,2.73,0,2.73s-1.62-2.73,0-2.73ZM361.65,131.51c1.62,0,1.62,2.73,0,2.73s-1.62-2.73,0-2.73ZM356.67,142.45c1.62,0,1.62,2.73,0,2.73s-1.62-2.73,0-2.73ZM340.49,169.8h2.46v5.45h-2.46v-5.45ZM329.27,180.73c1.62,0,1.62,2.73,0,2.73s-1.62-2.73,0-2.73ZM314.33,224.47c1.62,0,1.62,2.73,0,2.73s-1.62-2.73,0-2.73ZM311.84,229.94c1.62,0,1.62,2.73,0,2.73s-1.62-2.73,0-2.73ZM298.15,246.36h4.97v2.7h-4.97v-2.7ZM291.9,249.11l3.74,8.16h-2.46l-2.48-6.84,1.2-1.32ZM281.95,257.28c1.62,0,1.62,2.73,0,2.73s-1.62-2.73,0-2.73ZM291.91,298.3c-1.62,0-1.62-2.73,0-2.73s1.62,2.73,0,2.73ZM278.23,268.23h2.46v5.45h-2.46v-5.45ZM278.23,287.37h2.46v5.45h-2.46v-5.45ZM279.46,298.3c-1.62,0-1.62-2.73,0-2.73s1.62,2.73,0,2.73ZM272,290.13l1.2,1.32-3.72,4.08-1.2-1.32,3.72-4.09ZM265.78,284.63h2.46v5.45h-2.46v-5.45ZM262.03,281.89c1.62,0,1.62,2.73,0,2.73s-1.62-2.73,0-2.73ZM262.03,287.36c1.62,0,1.62,2.73,0,2.73s-1.62-2.73,0-2.73ZM262.03,292.83c1.62,0,1.62,2.73,0,2.73s-1.62-2.73,0-2.73ZM260.79,301.04h2.46v8.19h-2.46v-8.19ZM262.03,339.31c-1.62,0-1.62-2.73,0-2.73s1.62,2.73,0,2.73ZM257.04,221.74c1.62,0,1.62,2.73,0,2.73s-1.62-2.73,0-2.73ZM232.14,197.13c-1.62,0-1.62-2.73,0-2.73s1.62,2.73,0,2.73ZM239.61,227.21c-1.62,0-1.62-2.73,0-2.73s1.62,2.73,0,2.73ZM252.08,218.97l-3.72-4.09,1.2-1.32,3.72,4.09-1.2,1.32ZM253.31,270.97h7.46s0,8.19,0,8.19h-1.22s-6.23-8.19-6.23-8.19ZM259.53,314.7c1.62,0,1.62,2.73,0,2.73s-1.62-2.73,0-2.73ZM269.5,372.12c-1.62,0-1.62-2.73,0-2.73s1.62,2.73,0,2.73ZM291.91,402.19c-1.62,0-1.62-2.73,0-2.73s1.62,2.73,0,2.73ZM258.35,367.06l10.95-19.57c-1.42-.21-1.35-2.71.2-2.71.48,0,.81.24,1,.57l7.76-13.87,19.76,35.58h-39.67ZM301.87,402.19c-1.62,0-1.62-2.73,0-2.73s1.62,2.73,0,2.73ZM325.53,374.84h-4.97v-2.7h4.97v2.7ZM313.09,361.17v-5.45c5.03-.41,10.88-.83,12.45,5.44-4.8,1.39-7.65,1.94-12.45,0ZM326.78,396.73c-1.62,0-1.62-2.73,0-2.73s1.62,2.73,0,2.73ZM326.78,391.26c-1.62,0-1.62-2.73,0-2.73s1.62,2.73,0,2.73ZM331.76,407.66c-1.62,0-1.62-2.73,0-2.73s1.62,2.73,0,2.73ZM339.23,421.33c-1.62,0-1.62-2.73,0-2.73s1.62,2.73,0,2.73ZM335.52,402.17l-5-5.46v-2.7s9.94,4.11,9.94,4.11v4.07s-4.94-.02-4.94-.02ZM346.7,410.4c-1.62,0-1.62-2.73,0-2.73s1.62,2.73,0,2.73ZM356.67,451.41c-1.62,0-1.62-2.73,0-2.73s1.62,2.73,0,2.73ZM360.76,367.06h-20.45l-41.16-72.89,92.76-165.74-1.62-2.36h2.95s18.38-32.84,18.38-32.84c-.05,0-.1.02-.15.02-1.62,0-1.62-2.73,0-2.73.63,0,1.02.42,1.15.93l5.44-9.73,5.26,9.5.61-.67,1.2,1.32-.9.99,2.08,3.75,8.81,4.87-1.27,2.75-4.05-1.3,2.39,4.32c.18.17.3.4.36.65l13.18,23.81c.17-.1.36-.16.6-.16,1.33,0,1.56,1.86.7,2.51l20.55,37.12,7.38-4.07v2.7l-6.23,2.72-1.03-1.13,5.37,9.7,6.85,3.78-1.2,1.32-3.72-1.62,12.9,23.29c3.59-5.12,8.59-11.75,11.97-7.96v10.93s-6.02-2.89-6.02-2.89l-3.69,4.01,5.65,10.2,9.05,7.81-5.03-.55,2.06,3.72c3.58.91,7.11,1.01,9.07-.41,2.47.26,1.21-3.61,1.37-5.49-2.17-1.13.04-2.6,0-2.73-.5-1.74-3.28-4.73-2.49-5.45l8.42.13,4.02-5.61,1.29,7.94-3.82-1.14-1.18,9.57c-1.01-1.56-2.14-2.12-3.75-2.7,4.15,13.19,4.68,2.79,12.42,9.59l-8.69,3.26-8.71-4.63,9.93,12.31-13.68-9.55c-.15.69-.25,1.33-.32,1.94l5.37,9.71c4.74,2.3,11.18,3.45,13.64,10.18l-5.27-5.08-5.15.71,10.16,18.35,7.44.95c-1.57,3.31.32,7.48-1.27,10.19l3.7,6.67-5.18,9.25h.55v2.7h-2.07l-6.64,11.85c-.55,2.94-1.66,6.87-1.25,10.04l2.49,2.73,2.49,2.73c4.15-.34,7.13.59,9.95-4.13l-12.43-8.19,7.42.04-1.21-6.86,13.7,8.22-4.5,3.08-.43,11.8,7.4,2.86c-5.81,9.15-8.17-6.19-14.91-4.07l2.48,8.18c-3.6.93-6.92-3.08-9.96-2.72-.51,2.33-1.01,4.63-1.73,6.89l5.62,6.84-1.41,10.86-7.51-17.19-4.37-2.44-.57-10.45c-.48-.14-.91-.23-1.32-.29l-3.95,7.05c.15.83.35,1.67.59,2.49,1.07,3.67,12.01,7.79,12.15,15.35l-6.72-1.34.55-4.08c-5.44,5.11-8.88,1.94-12.01-2.74l-1.76,3.14v5.02s-1.62-2.12-1.62-2.12l-6.02,10.74h-25c3.57-3.86,6.68-8.15,9.26-12.77l-6.5-4.07v-5.43s9.97,1.32,9.97,1.32l-2.49-9.54,4.96,2.78v-8.24s-6.25,2.69-6.25,2.69l-1.03-9.37-7.64-1.53,7.46-2.73-3.72-5.41-8.7,4.08,6.22-15.04,1.24,8.18,7.06-3.11,1.65-7.82,1.63,4.8,2.57.21c-.44-1.8-.97-3.57-1.56-5.31-1.55-1.02-3.02-2.81-3.9-5.16.76.07,1.42.13,1.99.16-2.33-5.39-5.35-10.4-8.95-14.93l-3.03,6.56-4.91-4.09,3.23-7.81c-3.42-3.48-7.23-6.57-11.35-9.23l5.59,10.19c-5.73-5.8-7.72-3.97-14.93-2.75l2.54-9.23,2.42-.82c-3.21-1.74-6.58-3.2-10.08-4.39-.17.44-.53.79-1.11.79-.88,0-1.27-.8-1.2-1.54-1.52-.46-3.07-.86-4.64-1.21h-.37v-.09c-4.51-.98-9.18-1.51-13.98-1.52-.9,1.51-1.54,3.26-.97,5.68.8,3.44,6.62,5.31,9.79,3.85l2.64-5.17,9.97,8.21-6.22,8.21-1.39-5.23-9.54,2.26-2.74-6.63-7.5-1.38,2.11-9.68c-34.91,1.93-62.62,30.85-62.62,66.24,0,17.39,6.68,33.22,17.64,45.04h-7.28c.63.76.34,2.33-.89,2.33s-1.52-1.57-.89-2.33ZM523.54,243.61c-1.62,0-1.62-2.73,0-2.73s1.62,2.73,0,2.73ZM528.52,325.64c1.62,0,1.62,2.73,0,2.73s-1.62-2.73,0-2.73ZM466.25,290.09c1.62,0,1.62,2.73,0,2.73s-1.62-2.73,0-2.73ZM472.49,298.29v-8.19h2.46v8.19h-2.46ZM366.63,322.9c-1.62,0-1.62-2.73,0-2.73s1.62,2.73,0,2.73ZM360.42,322.9v-5.45h2.46v5.45h-2.46ZM361.65,350.25c-1.62,0-1.62-2.73,0-2.73s1.62,2.73,0,2.73ZM366.63,437.74c-1.62,0-1.62-2.73,0-2.73s1.62,2.73,0,2.73ZM399.01,506.09c-1.62,0-1.62-2.73,0-2.73s1.62,2.73,0,2.73ZM423.91,527.96c-1.62,0-1.62-2.73,0-2.73s1.62,2.73,0,2.73Z"/>
  <path class="st0" d="M514.82,227.21c-.46-1.46.07-3.08-2.49-2.73-.06.91.08,1.83,0,2.73.63.33,1.69-.28,2.49,0Z"/>
  <path class="st0" d="M517.31,183.47l.41-.22-.54-1c-.84.53-1.63,1.04-2.36,1.22.39,3.56,2.45,5.17,2.49,5.47v-5.46Z"/>
  <polygon class="st0" points="96.32 344.77 98.89 344.78 98.91 340.19 96.32 344.77"/>
  <polygon class="st0" points="97.65 361.21 96.4 363.92 98.89 363.92 97.65 361.21"/>
  <polygon class="st0" points="526.81 276.75 525.6 275.93 526.87 278.23 526.81 276.75"/>
  <polygon class="st0" points="512.35 251.83 512.27 251.85 512.34 251.99 512.35 251.83"/>
  <polygon class="st0" points="451.32 514.16 452.55 511.56 450.06 511.56 451.32 514.16"/>
  <polygon class="st0" points="437.58 402.22 432.62 403.57 432.62 404.31 438.36 404.35 437.58 402.22"/>
  <polygon class="st0" points="440.07 515.62 445.07 517.02 445.08 508.82 442.59 508.82 440.07 515.62"/>
  <polygon class="st0" points="517.3 322.9 517.3 322.29 517.09 322.67 517.3 322.9"/>
  <path class="st0" d="M446.38,448.91l1.19,5.24-5.09,1.71-3.83,6.84,2.71,7.81c.55-4.06-.69-7.02,2.46-10.83,2.79-3.37,7.16-5.22,11.25-5.57l-2.51-5.44-4.29-3.13-1.89,3.37Z"/>
</svg>